<?xml version="1.0" encoding="UTF-8" standalone="no"?>
<svg
   xmlns:dc="http://purl.org/dc/elements/1.1/"
   xmlns:cc="http://creativecommons.org/ns#"
   xmlns:rdf="http://www.w3.org/1999/02/22-rdf-syntax-ns#"
   xmlns:svg="http://www.w3.org/2000/svg"
   xmlns="http://www.w3.org/2000/svg"
   xmlns:sodipodi="http://sodipodi.sourceforge.net/DTD/sodipodi-0.dtd"
   xmlns:inkscape="http://www.inkscape.org/namespaces/inkscape"
   viewBox="0 0 790 416"
   height="416.0pt"
   width="790.0pt"
   version="1.1"
   id="svg324"
   sodipodi:docname="untunedsig.svg"
   inkscape:version="0.92.1 r15371">
  <metadata
     id="metadata330">
    <rdf:RDF>
      <cc:Work
         rdf:about="">
        <dc:format>image/svg+xml</dc:format>
        <dc:type
           rdf:resource="http://purl.org/dc/dcmitype/StillImage" />
        <dc:title></dc:title>
      </cc:Work>
    </rdf:RDF>
  </metadata>
  <defs
     id="defs328" />
  <sodipodi:namedview
     pagecolor="#ffffff"
     bordercolor="#666666"
     borderopacity="1"
     objecttolerance="10"
     gridtolerance="10"
     guidetolerance="10"
     inkscape:pageopacity="0"
     inkscape:pageshadow="2"
     inkscape:window-width="1920"
     inkscape:window-height="1017"
     id="namedview326"
     showgrid="false"
     inkscape:pagecheckerboard="true"
     inkscape:zoom="0.76260124"
     inkscape:cx="633.02369"
     inkscape:cy="203.15493"
     inkscape:window-x="1912"
     inkscape:window-y="-8"
     inkscape:window-maximized="1"
     inkscape:current-layer="svg324" />
  <path
     style="fill:#02ac02;stroke-width:1.33333337"
     d="M 346.71289 9.3710938 C 344.77622 9.3494271 342.84719 9.5060677 340.86719 10.052734 C 340.13385 18.106068 340.67935 26.359453 340.66602 34.439453 C 337.99935 32.692786 335.14599 30.373359 331.97266 29.693359 C 326.45266 28.600026 320.52081 29.706172 316.49414 33.826172 C 311.33414 38.679505 309.94617 46.560312 309.82617 53.320312 C 309.74617 60.066979 311.05315 68.292552 316.14648 73.199219 C 320.26648 77.239219 325.90706 77.906667 331.40039 77 C 335.60039 76.2 338.55909 73.520521 341.73242 70.867188 C 342.11909 72.493854 342.57341 74.093021 343.08008 75.679688 C 346.17341 76.159688 349.52062 75.919089 352.64062 75.732422 C 352.84063 53.759088 352.90628 31.7331 352.59961 9.7597656 C 350.59294 9.593099 348.64956 9.3927604 346.71289 9.3710938 z M 331.89258 40.119141 C 332.77591 40.292474 333.59693 40.600339 334.37109 40.998047 C 335.14526 41.395755 335.87422 41.884375 336.57422 42.421875 C 337.97422 43.496875 339.26089 44.765911 340.57422 45.892578 C 340.56089 50.839245 340.56055 55.785755 340.56055 60.732422 C 339.13388 61.965755 337.67336 63.40388 336.06836 64.560547 C 335.26586 65.13888 334.42802 65.647474 333.53906 66.025391 C 332.6501 66.403307 331.71036 66.650365 330.70703 66.707031 C 329.7837 66.710365 328.92836 66.550521 328.14648 66.257812 C 327.36461 65.965104 326.6568 65.538646 326.0293 65.007812 C 325.4018 64.476979 324.85279 63.841901 324.39258 63.130859 C 323.93237 62.419818 323.5593 61.634115 323.2793 60.800781 C 322.87263 59.540781 322.56727 58.227787 322.36914 56.892578 C 322.17102 55.55737 322.07992 54.19987 322.10742 52.845703 C 322.13492 51.491536 322.28057 50.141094 322.55078 48.824219 C 322.82099 47.507344 323.21609 46.223333 323.74609 45 C 324.08943 44.226667 324.55039 43.490781 325.10352 42.832031 C 325.65664 42.173281 326.30312 41.592526 327.01562 41.130859 C 327.72813 40.669193 328.50667 40.326615 329.32812 40.144531 C 330.14958 39.962448 331.01258 39.939141 331.89258 40.119141 z "
     id="path4"
     transform="scale(0.74999997)" />
  <path
     d="M 95.14 14.37 C 98.03 13.79 100.76 14.05 103.66 14.28 C 103.78 17.17 103.80 20.07 103.80 22.96 C 106.51 22.99 109.21 23.03 111.91 23.15 C 111.96 25.39 111.96 27.61 111.91 29.85 C 109.20 29.98 106.50 30.01 103.79 30.04 C 103.84 35.05 103.68 40.06 103.81 45.07 C 103.91 46.91 104.13 49.08 106.12 49.81 C 108.10 49.96 110.14 49.55 112.11 49.37 C 112.00 51.72 112.14 54.21 111.59 56.51 C 106.58 59.36 96.94 58.68 95.42 51.83 C 93.94 44.80 94.90 37.22 94.66 30.06 C 93.01 29.99 91.37 29.92 89.73 29.84 C 89.57 27.62 89.53 25.43 89.60 23.21 C 91.27 23.10 92.95 23.01 94.62 22.93 C 94.67 20.14 94.38 17.07 95.14 14.37 Z"
     fill="#02ac02"
     id="path6" />
  <path
     d="M 69.19 22.40 C 73.57 21.40 78.37 22.02 81.38 25.64 C 84.18 28.97 84.02 33.81 84.31 37.93 C 84.39 44.19 84.47 50.48 84.17 56.73 C 81.20 56.97 78.28 56.98 75.31 56.80 C 75.05 50.17 75.38 43.52 75.16 36.90 C 74.90 34.17 74.55 31.27 71.54 30.30 C 68.21 28.90 64.99 32.59 62.76 34.57 C 62.61 41.88 63.21 49.35 62.47 56.60 C 59.50 57.25 56.69 56.95 53.71 56.61 C 53.55 48.08 53.71 39.54 53.62 31.00 C 53.64 28.47 53.48 25.76 54.05 23.29 C 56.56 22.87 59.02 23.08 61.53 23.31 C 61.52 24.74 61.50 26.16 61.47 27.59 C 63.72 25.63 66.27 23.23 69.19 22.40 Z"
     fill="#02ac02"
     id="path8" />
  <path
     d="M 173.21 22.47 C 177.47 21.35 182.51 21.97 185.50 25.51 C 188.20 28.57 188.38 33.26 188.55 37.14 C 188.59 43.67 188.71 50.21 188.40 56.74 C 185.42 56.97 182.48 56.97 179.50 56.80 C 179.28 50.17 179.57 43.54 179.37 36.92 C 179.18 34.30 178.75 31.16 175.81 30.32 C 172.33 28.90 169.24 32.61 166.97 34.71 C 166.83 41.96 167.42 49.38 166.68 56.58 C 163.95 57.20 161.05 57.20 158.32 56.58 C 157.78 53.46 158.03 50.16 157.99 47.00 C 158.09 39.06 157.83 31.11 158.15 23.17 C 160.68 23.05 163.15 23.08 165.68 23.27 C 165.71 24.72 165.73 26.16 165.75 27.60 C 167.95 25.68 170.37 23.35 173.21 22.47 Z"
     fill="#02ac02"
     id="path10" />
  <path
     style="fill:#02ac02;stroke-width:1.33333337"
     d="M 283.10547 29.3125 C 278.15609 29.14625 273.09648 30.092812 269.14648 33.132812 C 263.21315 37.546146 260.67919 44.733593 260.50586 51.933594 C 260.23919 58.720261 261.04086 66.266458 265.88086 71.453125 C 270.40086 76.133125 276.3743 77.292708 282.6543 77.359375 C 288.18763 77.306042 294.56055 76.906641 299.56055 74.306641 C 300.17388 71.319974 299.97266 68.092734 299.97266 65.052734 C 292.94599 66.572734 285.49271 69.667188 278.35938 66.867188 C 273.71937 64.947187 273.4793 60.41349 272.2793 56.160156 C 280.65263 55.786823 289.03911 56.172656 297.42578 55.972656 C 299.29245 55.66599 301.01352 56.293828 301.85352 54.173828 C 302.72018 50.013828 302.19966 45.373646 300.98633 41.320312 C 299.17299 35.360312 294.10599 30.8925 287.97266 29.8125 C 286.39266 29.545833 284.75526 29.367917 283.10547 29.3125 z M 281.51953 37.326172 C 282.73286 37.261172 283.96018 37.432786 285.10352 37.845703 C 286.24685 38.25862 287.3075 38.9125 288.1875 39.8125 C 289.01417 40.9325 289.5468 42.309375 289.9668 43.734375 C 290.3868 45.159375 290.69307 46.633932 291.06641 47.947266 C 284.78641 48.027266 278.5593 48.080182 272.2793 47.853516 C 272.69263 46.646849 273.05609 45.347031 273.49609 44.082031 C 273.93609 42.817031 274.45383 41.586198 275.17383 40.519531 C 275.94716 39.526198 276.92758 38.760313 278.01758 38.226562 C 279.10758 37.692812 280.3062 37.391172 281.51953 37.326172 z "
     id="path12"
     transform="scale(0.74999997)" />
  <path
     d="M 22.94 23.37 C 23.82 28.11 23.20 33.18 23.33 38.00 C 23.44 41.01 22.91 44.90 24.38 47.63 C 25.68 50.08 28.91 50.64 31.19 49.19 C 33.35 47.81 35.96 45.95 35.64 43.04 C 35.74 36.44 35.54 29.84 35.70 23.24 C 38.69 23.03 41.61 23.02 44.60 23.23 C 44.90 34.30 44.92 45.73 44.59 56.79 C 42.11 56.94 39.66 56.96 37.18 56.87 C 37.10 55.33 37.04 53.79 36.99 52.25 C 34.53 54.52 31.94 56.98 28.57 57.74 C 24.55 58.44 20.11 57.96 17.30 54.71 C 14.23 51.23 14.23 46.39 14.19 42.01 C 14.30 35.79 13.99 29.53 14.41 23.33 C 17.28 22.96 20.09 22.80 22.94 23.37 Z"
     fill="#02ac02"
     id="path14" />
  <path
     d="M 127.32 23.52 C 128.09 30.64 127.12 37.94 127.76 45.07 C 128.16 47.96 129.95 49.97 132.97 50.04 C 135.76 49.75 138.10 46.99 140.02 45.15 C 140.02 37.84 139.91 30.53 140.09 23.22 C 143.01 23.02 145.88 23.02 148.80 23.25 C 149.12 34.31 149.15 45.77 148.78 56.82 C 146.28 56.95 143.80 56.94 141.30 56.82 C 141.28 55.29 141.27 53.76 141.27 52.24 C 138.84 54.43 136.26 56.93 132.98 57.70 C 128.57 58.57 123.80 57.85 120.99 54.02 C 118.01 50.00 118.43 43.76 118.40 39.00 C 118.56 33.87 118.09 28.62 118.68 23.52 C 121.44 22.77 124.56 22.75 127.32 23.52 Z"
     fill="#02ac02"
     id="path16" />
  <path
     d="M 226.04 92.02 C 227.47 92.03 228.90 92.05 230.33 92.07 C 230.42 96.72 230.44 101.37 230.31 106.02 C 233.15 104.44 235.57 102.55 239.04 103.00 C 242.83 103.30 245.48 106.28 245.79 110.00 C 246.36 115.94 245.91 121.99 245.93 127.95 C 244.51 127.95 243.08 127.95 241.65 127.94 C 241.55 122.96 241.77 117.97 241.55 112.99 C 241.39 111.07 241.20 108.75 239.45 107.57 C 236.61 105.42 231.56 108.33 230.67 111.36 C 229.98 116.81 230.55 122.44 230.35 127.93 C 228.92 127.95 227.48 127.97 226.04 127.98 C 225.97 116.00 225.97 104.00 226.04 92.02 Z"
     fill="#abacab"
     id="path22" />
  <path
     d="M 14.64 95.48 C 16.03 95.11 17.48 94.89 18.90 94.63 C 19.08 105.73 19.03 116.84 18.94 127.94 C 17.42 127.94 15.91 127.95 14.39 127.95 C 14.32 119.63 14.43 111.32 14.31 103.00 C 14.31 100.51 14.25 97.94 14.64 95.48 Z"
     fill="#abacab"
     id="path24" />
  <path
     d="M 96.75 97.46 C 98.03 97.09 99.37 96.87 100.68 96.60 C 100.75 98.72 100.81 100.84 100.87 102.96 C 103.13 102.99 105.40 103.03 107.66 103.07 C 107.61 104.22 107.56 105.37 107.52 106.52 C 105.29 106.58 103.07 106.64 100.85 106.70 C 100.81 110.47 100.67 114.25 100.78 118.02 C 100.90 120.09 100.88 122.02 102.11 123.79 C 104.18 124.01 106.29 123.93 108.37 123.96 C 107.64 125.10 107.31 127.37 105.84 127.69 C 103.82 128.26 101.43 128.20 99.49 127.37 C 97.43 126.33 96.74 124.15 96.51 122.00 C 96.09 116.94 96.42 111.80 96.39 106.72 C 95.05 106.65 93.70 106.58 92.36 106.51 C 92.32 105.41 92.27 104.31 92.23 103.21 C 93.52 103.10 94.80 102.99 96.09 102.88 C 96.27 101.08 96.39 99.24 96.75 97.46 Z"
     fill="#abacab"
     id="path26" />
  <path
     d="M 209.07 97.02 C 210.48 97.03 211.88 97.05 213.29 97.06 C 213.35 99.03 213.40 101.00 213.45 102.97 C 215.62 102.99 217.79 103.01 219.96 103.04 C 219.98 104.20 220.00 105.35 220.03 106.51 C 217.83 106.57 215.63 106.62 213.43 106.67 C 213.42 111.11 213.20 115.58 213.46 120.01 C 213.72 121.50 213.41 123.13 215.11 123.76 C 216.95 124.00 218.84 123.90 220.69 123.92 C 219.89 125.24 219.84 127.84 217.93 127.83 C 214.79 128.35 210.70 128.13 209.57 124.52 C 208.37 118.79 209.18 112.54 209.01 106.69 C 207.65 106.65 206.29 106.61 204.93 106.57 C 204.91 105.40 204.88 104.24 204.86 103.08 C 206.23 103.03 207.60 102.99 208.98 102.94 C 209.01 100.97 209.04 98.99 209.07 97.02 Z"
     fill="#abacab"
     id="path28" />
  <path
     d="M 293.75 97.46 C 295.03 97.09 296.37 96.87 297.68 96.60 C 297.75 98.72 297.81 100.84 297.87 102.96 C 300.13 102.99 302.40 103.03 304.66 103.07 C 304.61 104.22 304.56 105.37 304.52 106.52 C 302.29 106.58 300.07 106.64 297.85 106.70 C 297.81 110.47 297.67 114.25 297.78 118.02 C 297.90 120.09 297.88 122.02 299.11 123.79 C 301.18 124.01 303.29 123.93 305.37 123.96 C 304.64 125.10 304.31 127.37 302.84 127.70 C 300.82 128.26 298.43 128.20 296.49 127.37 C 294.43 126.33 293.74 124.15 293.51 122.00 C 293.09 116.94 293.42 111.80 293.39 106.72 C 292.05 106.65 290.70 106.58 289.36 106.51 C 289.32 105.41 289.27 104.31 289.23 103.21 C 290.52 103.10 291.80 102.99 293.09 102.88 C 293.27 101.08 293.39 99.24 293.75 97.46 Z"
     fill="#abacab"
     id="path30" />
  <path
     d="M 39.48 103.43 C 40.88 103.10 42.32 102.90 43.73 102.67 C 43.97 108.44 43.42 114.29 44.05 120.02 C 44.37 122.94 46.97 124.97 49.88 123.97 C 51.89 123.26 54.84 121.47 54.85 119.05 C 55.30 113.75 54.89 108.37 55.05 103.05 C 56.56 103.06 58.08 103.07 59.59 103.08 C 59.66 111.34 59.65 119.60 59.60 127.87 C 58.24 127.93 56.87 127.99 55.51 128.06 C 55.50 126.95 55.49 125.85 55.49 124.75 C 52.14 126.84 49.29 128.81 45.10 127.80 C 41.29 126.97 39.64 123.61 39.36 120.00 C 39.03 114.53 38.86 108.88 39.48 103.43 Z"
     fill="#abacab"
     id="path32" />
  <path
     d="M 67.65 103.55 C 68.81 103.12 70.00 102.74 71.20 102.40 C 71.27 103.65 71.34 104.89 71.40 106.14 C 74.55 104.37 77.14 102.40 80.99 103.07 C 84.76 103.58 87.00 106.55 87.41 110.19 C 88.00 116.05 87.54 122.03 87.58 127.91 C 86.13 127.93 84.68 127.95 83.22 127.97 C 83.07 122.35 83.61 116.58 82.85 111.01 C 82.48 108.36 80.74 106.73 78.01 106.79 C 75.68 107.32 73.60 109.37 71.73 110.80 C 71.87 116.52 71.83 122.24 71.75 127.96 C 70.30 127.96 68.84 127.95 67.39 127.94 C 67.58 119.84 66.89 111.60 67.65 103.55 Z"
     fill="#abacab"
     id="path34" />
  <path
     d="M 113.48 103.43 C 114.88 103.10 116.32 102.90 117.73 102.67 C 117.97 108.44 117.42 114.29 118.05 120.02 C 118.37 122.94 120.97 124.97 123.88 123.97 C 125.89 123.26 128.84 121.47 128.85 119.05 C 129.30 113.75 128.89 108.37 129.05 103.05 C 130.56 103.06 132.08 103.07 133.59 103.08 C 133.66 111.34 133.65 119.60 133.60 127.87 C 132.24 127.93 130.87 127.99 129.51 128.06 C 129.50 126.95 129.49 125.85 129.49 124.75 C 126.14 126.84 123.29 128.81 119.10 127.80 C 115.29 126.97 113.64 123.61 113.36 120.00 C 113.03 114.53 112.86 108.88 113.48 103.43 Z"
     fill="#abacab"
     id="path36" />
  <path
     d="M 141.65 103.55 C 142.81 103.12 144.00 102.74 145.20 102.40 C 145.27 103.65 145.34 104.89 145.40 106.14 C 148.55 104.37 151.14 102.40 154.99 103.07 C 158.76 103.58 161.00 106.55 161.41 110.19 C 162.00 116.04 161.54 122.03 161.58 127.91 C 160.13 127.93 158.68 127.95 157.22 127.97 C 157.02 122.13 157.75 115.99 156.68 110.24 C 156.20 107.75 153.50 106.19 151.12 107.03 C 149.16 107.90 147.41 109.47 145.73 110.80 C 145.87 116.52 145.83 122.24 145.75 127.96 C 144.30 127.96 142.84 127.95 141.39 127.94 C 141.58 119.84 140.89 111.60 141.65 103.55 Z"
     fill="#abacab"
     id="path38" />
  <path
     style="fill:#abacab;stroke-width:1.33333337"
     d="M 238.44727 137.20508 C 233.59913 137.34887 228.7757 139.55336 226.3457 143.69336 C 223.65237 147.90669 223.60016 153.89302 224.16016 158.67969 C 224.74682 163.41302 227.46667 167.6938 232 169.48047 C 238.36 172.0538 244.86581 170.14698 251.11914 168.32031 C 251.10581 166.60031 251.09341 164.86648 251.08008 163.14648 C 246.18674 164.62648 239.97367 167.2276 235.01367 164.96094 C 230.92034 163.40094 230.72047 158.34677 229.48047 154.77344 C 237.22714 154.61344 244.97404 154.72055 252.7207 154.56055 C 252.21404 149.74721 252.60003 144.18602 248.69336 140.66602 C 246.00419 138.22768 242.21804 137.09324 238.44727 137.20508 z M 238.67578 141.82227 C 240.47411 141.82393 242.27388 142.24674 243.56055 143.08008 C 245.32055 145.00008 246.37253 147.70734 247.50586 150.02734 C 241.33253 150.18734 235.17367 150.17318 229.01367 149.83984 C 230.46701 147.59984 231.81411 144.93375 233.80078 143.09375 C 235.08078 142.24042 236.87745 141.8206 238.67578 141.82227 z "
     transform="scale(0.74999997)"
     id="path40" />
  <path
     style="fill:#abacab;stroke-width:1.33333337"
     d="M 351.59375 137.19336 C 346.72889 137.19471 341.79797 139.27164 339.29297 143.30664 C 336.23964 147.85331 335.89352 154.1057 336.85352 159.3457 C 337.77352 163.93237 340.50701 167.98763 345.01367 169.6543 C 351.53367 171.9343 357.4537 170.22656 363.70703 168.22656 C 363.7737 166.58656 363.85326 164.94698 363.91992 163.32031 C 359.18659 164.54698 352.97255 166.93417 348.19922 165.1875 C 343.73255 163.76083 343.34633 158.50609 341.98633 154.74609 C 349.773 154.63943 357.56099 154.73414 365.34766 154.49414 C 364.85432 149.81414 365.32096 144.57367 361.6543 141.01367 C 359.12263 138.44701 355.37753 137.19231 351.59375 137.19336 z M 350.82227 141.81055 C 352.57393 141.73721 354.36078 142.09411 355.80078 142.80078 C 357.92078 144.45411 358.94596 147.63924 360.2793 149.89258 C 354.14596 150.17258 348.00018 150.18667 341.85352 150 C 343.12018 147.78667 344.30607 145.29372 346.05273 143.40039 C 347.35273 142.38706 349.0706 141.88388 350.82227 141.81055 z "
     transform="scale(0.74999997)"
     id="path42" />
  <path
     d="M 310.48 103.43 C 311.88 103.10 313.32 102.90 314.73 102.67 C 314.97 108.44 314.42 114.29 315.05 120.02 C 315.37 122.94 317.97 124.97 320.88 123.97 C 322.89 123.26 325.84 121.47 325.85 119.05 C 326.30 113.75 325.89 108.37 326.05 103.05 C 327.56 103.06 329.08 103.07 330.59 103.08 C 330.66 111.34 330.65 119.60 330.60 127.87 C 329.24 127.93 327.87 127.99 326.51 128.06 C 326.50 126.95 326.50 125.85 326.49 124.74 C 323.15 126.84 320.30 128.82 316.10 127.80 C 312.29 126.97 310.64 123.61 310.36 120.00 C 310.03 114.53 309.86 108.88 310.48 103.43 Z"
     fill="#abacab"
     id="path44" />
  <path
     d="M 338.65 103.55 C 339.81 103.12 341.00 102.74 342.20 102.40 C 342.27 103.65 342.34 104.89 342.40 106.14 C 345.55 104.37 348.14 102.40 351.99 103.07 C 355.76 103.58 358.00 106.55 358.41 110.19 C 359.00 116.05 358.54 122.03 358.58 127.91 C 357.13 127.93 355.68 127.95 354.22 127.97 C 354.02 122.13 354.75 115.99 353.68 110.24 C 353.20 107.75 350.50 106.19 348.12 107.03 C 346.16 107.90 344.41 109.47 342.73 110.80 C 342.87 116.52 342.83 122.24 342.75 127.96 C 341.30 127.96 339.84 127.95 338.39 127.94 C 338.58 119.84 337.89 111.60 338.65 103.55 Z"
     fill="#abacab"
     id="path46" />
  <path
     style="fill:#abacab;stroke-width:1.33333337"
     d="M 501.11328 137.20508 C 496.26515 137.34887 491.44367 139.55336 489.01367 143.69336 C 486.33367 147.88003 486.26583 153.85362 486.8125 158.62695 C 487.4125 163.38695 490.10602 167.68047 494.66602 169.48047 C 500.97268 172.04047 507.49404 170.14638 513.7207 168.37305 C 513.74737 166.65305 513.78583 164.93289 513.8125 163.21289 C 508.9325 164.59956 502.59969 167.21427 497.67969 164.96094 C 493.58635 163.40094 493.38648 158.34677 492.14648 154.77344 C 499.89315 154.61344 507.64005 154.72055 515.38672 154.56055 C 514.88005 149.74721 515.26604 144.18602 511.35938 140.66602 C 508.67021 138.22768 504.88405 137.09324 501.11328 137.20508 z M 501.3418 141.82227 C 503.14013 141.82393 504.9399 142.24674 506.22656 143.08008 C 507.98656 145.00008 509.04049 147.70734 510.17383 150.02734 C 504.00049 150.18734 497.83969 150.17318 491.67969 149.83984 C 493.13302 147.59984 494.48013 144.93375 496.4668 143.09375 C 497.7468 142.24042 499.54346 141.8206 501.3418 141.82227 z "
     transform="scale(0.74999997)"
     id="path48" />
  <path
     d="M 406.59 104.38 C 406.52 105.54 406.44 106.70 406.37 107.85 C 403.10 107.23 398.44 104.93 395.91 108.17 C 395.87 109.85 395.45 110.89 397.22 111.76 C 400.03 113.63 403.76 114.53 406.25 116.77 C 408.89 119.64 407.76 124.58 404.55 126.57 C 401.49 128.48 397.07 128.38 393.74 127.25 C 391.11 126.41 391.42 124.10 390.47 121.90 C 393.80 122.88 398.36 125.51 401.71 123.74 C 403.08 123.38 403.21 121.13 403.32 119.98 C 400.38 117.30 396.02 116.44 393.10 113.90 C 390.32 110.93 391.48 105.82 395.07 104.05 C 398.85 102.02 402.75 103.36 406.59 104.38 Z"
     fill="#abacab"
     id="path50" />
  <path
     d="M 414.16 122.53 C 415.76 122.15 417.37 121.95 418.99 121.71 C 419.18 123.80 419.19 125.80 419.02 127.88 C 417.19 127.88 415.37 127.88 413.54 127.87 C 413.71 126.09 413.79 124.27 414.16 122.53 Z"
     fill="#abacab"
     id="path58" />
  <path
     style="fill:#05dfd8;stroke-width:1.33333337"
     d="M 270.06641 229.01367 C 268.11974 229.25367 266.22664 229.45318 264.30664 229.83984 C 263.62664 235.69318 264.05273 241.73362 264.05273 247.62695 C 260.17273 245.29362 256.75966 243.20042 251.98633 244.09375 C 245.89299 244.94708 242.46628 250.29333 241.59961 256 C 240.86628 262.46667 240.83904 270.50573 246.3457 275.03906 C 252.51904 279.66573 259.22635 277.02609 264.67969 272.74609 C 264.62635 274.23943 264.58654 275.7469 264.5332 277.24023 C 266.39987 277.25357 268.26615 277.26758 270.13281 277.26758 C 270.21281 261.18758 270.33307 245.09367 270.06641 229.01367 z M 254.69922 249.08594 C 258.01859 248.95781 261.39672 251.36359 263.38672 253.93359 C 264.49339 258.00026 263.92008 262.69258 264.08008 266.89258 C 261.49341 268.91924 258.17268 272.45263 254.66602 272.2793 C 250.22602 271.9993 248.09396 268.09375 247.64062 264.09375 C 247.16062 259.49375 247.21312 253.09315 251.45312 250.14648 C 252.49313 249.45315 253.59276 249.12865 254.69922 249.08594 z "
     transform="scale(0.74999997)"
     id="path60" />
  <path
     d="M 389.46 172.42 C 390.81 172.11 392.20 171.92 393.57 171.70 C 393.69 183.77 393.65 195.84 393.59 207.90 C 392.14 207.93 390.69 207.96 389.24 207.99 C 389.11 198.66 389.26 189.33 389.13 180.00 C 389.13 177.49 389.08 174.90 389.46 172.42 Z"
     fill="#abacab"
     id="path62" />
  <path
     d="M 253.14 174.43 C 254.69 174.11 256.24 173.97 257.80 173.79 C 257.83 175.62 257.82 177.45 257.79 179.28 C 255.96 178.99 254.17 178.74 252.41 178.13 C 252.45 176.82 252.69 175.58 253.14 174.43 Z"
     fill="#05dfd8"
     id="path64" />
  <path
     d="M 28.83 176.17 C 30.85 176.76 30.47 179.54 31.06 181.20 C 27.83 180.27 23.49 177.96 20.20 179.21 C 17.46 180.17 16.46 183.38 18.27 185.66 C 21.81 189.21 28.85 190.07 31.51 194.49 C 34.36 199.33 31.45 205.63 26.25 207.27 C 22.00 208.55 16.52 208.33 12.54 206.28 C 11.95 204.85 11.74 203.23 11.42 201.73 C 15.64 202.89 20.99 205.62 25.19 203.24 C 27.91 202.05 28.50 197.62 26.22 195.78 C 22.85 193.07 17.24 191.99 14.36 188.60 C 11.03 184.64 12.37 178.24 17.08 176.04 C 20.31 174.52 25.61 174.59 28.83 176.17 Z"
     fill="#05dfd8"
     id="path66" />
  <path
     style="fill:#05dfd8;stroke-width:1.33333337"
     d="M 221.01367 233.08008 C 218.66701 233.26674 216.2676 233.33411 213.96094 233.80078 C 211.89427 237.30745 210.71964 241.45424 209.29297 245.26758 C 205.53297 255.96091 201.19943 266.46724 197.74609 277.25391 C 199.82609 277.25391 201.92034 277.25357 204.01367 277.24023 C 205.40034 273.28023 206.78615 269.30732 208.13281 265.33398 L 226.37305 265.33398 C 227.73305 269.36065 229.14687 273.35937 230.54688 277.35938 C 232.78688 277.30604 235.01357 277.22648 237.24023 277.14648 C 231.97357 262.41315 226.48034 247.74675 221.01367 233.08008 z M 217.11914 238.90625 C 219.55914 246.14625 222.17344 253.29346 224.77344 260.4668 C 219.73344 260.4668 214.6943 260.46747 209.6543 260.49414 C 212.14763 253.29414 214.73247 246.13292 217.11914 238.90625 z "
     transform="scale(0.74999997)"
     id="path68" />
  <path
     d="M 348.47 175.44 C 349.87 175.10 351.31 174.89 352.73 174.65 C 352.84 182.43 352.83 190.22 352.86 198.00 C 352.73 201.12 352.89 204.98 349.96 206.95 C 347.39 208.76 343.26 207.60 340.34 207.21 C 340.36 205.93 340.37 204.65 340.39 203.37 C 342.60 203.63 345.36 204.39 347.46 203.50 C 349.35 194.45 347.30 184.63 348.47 175.44 Z"
     fill="#abacab"
     id="path70" />
  <path
     d="M 452.47 176.54 C 456.77 179.24 456.64 185.52 454.61 189.58 C 451.77 195.10 446.25 199.52 442.13 204.15 C 447.19 204.19 452.24 204.19 457.30 204.20 C 457.33 205.46 457.36 206.71 457.39 207.97 C 450.18 208.00 442.93 208.13 435.73 207.80 C 437.69 199.36 447.57 195.77 450.35 187.08 C 451.23 184.16 450.91 180.60 447.75 179.26 C 444.57 178.03 440.22 180.12 437.08 181.02 C 437.11 179.74 437.14 178.46 437.17 177.19 C 442.09 175.35 447.59 173.54 452.47 176.54 Z"
     fill="#abacab"
     id="path72" />
  <path
     d="M 463.81 175.32 C 470.96 174.51 478.37 175.16 485.58 175.10 C 484.84 178.61 483.84 182.01 482.30 185.26 C 478.79 192.79 475.60 200.46 472.09 208.00 C 470.46 207.98 468.82 207.96 467.19 207.94 C 471.25 198.12 475.93 188.57 480.17 178.83 C 474.34 178.81 468.54 178.86 462.71 178.70 C 463.04 177.56 463.40 176.43 463.81 175.32 Z"
     fill="#abacab"
     id="path74" />
  <path
     d="M 532.25 176.74 C 536.46 179.76 536.15 185.77 533.93 189.93 C 530.96 195.28 525.72 199.54 521.69 204.15 C 526.73 204.18 531.78 204.19 536.83 204.25 C 536.85 205.47 536.86 206.69 536.87 207.92 C 529.73 208.03 522.57 208.10 515.43 207.86 C 516.14 205.77 516.52 203.73 517.99 202.03 C 521.81 197.60 527.55 193.34 529.68 187.71 C 530.88 184.40 530.57 180.48 526.85 179.11 C 523.48 178.17 519.23 180.36 515.95 181.15 C 516.74 179.48 516.72 177.33 518.57 176.55 C 522.54 174.56 528.46 174.14 532.25 176.74 Z"
     fill="#abacab"
     id="path76" />
  <path
     style="fill:#abacab;stroke-width:1.33333337"
     d="M 738.80469 233.24414 C 736.61344 233.21648 734.43922 233.52773 732.57422 234.05273 C 727.49422 235.77273 724.50638 240.57294 723.37305 245.59961 C 721.99971 252.15961 722.02706 259.53341 723.40039 266.08008 C 724.46706 270.66674 726.66732 274.8138 731.33398 276.48047 C 737.06732 278.26714 744.75984 277.8125 748.83984 272.8125 C 753.26651 267.55917 753.49245 259.85365 753.42578 253.32031 C 753.23911 247.74698 752.65354 241.01378 748.54688 236.78711 C 746.15521 234.27878 742.45677 233.29023 738.80469 233.24414 z M 738.35742 238.33789 C 740.93046 238.42497 743.4306 239.57776 744.75977 241.93359 C 747.0131 246.01359 747.21391 251.45333 747.25391 256 C 747.13391 260.29333 746.85341 265.90578 744.08008 269.42578 C 740.61341 273.75911 732.96063 273.18693 730.64062 267.93359 C 728.38729 262.72026 728.58719 256.21362 728.86719 250.62695 C 729.26719 246.02695 730.23958 240.96052 734.90625 238.86719 C 736.00208 238.47969 737.18786 238.29831 738.35742 238.33789 z "
     transform="scale(0.74999997)"
     id="path78" />
  <path
     d="M 583.91 174.43 C 584.10 184.33 583.95 194.24 584.01 204.14 C 586.32 204.18 588.64 204.23 590.95 204.27 C 590.96 205.50 590.96 206.72 590.96 207.94 C 584.52 208.03 578.09 208.03 571.66 207.97 C 571.69 206.72 571.72 205.47 571.76 204.22 C 574.29 204.20 576.82 204.18 579.36 204.17 C 579.38 196.21 579.34 188.26 579.39 180.31 C 576.67 181.93 573.92 183.50 571.09 184.92 C 571.37 183.63 571.54 182.26 572.02 181.02 C 575.07 177.46 579.47 175.60 583.91 174.43 Z"
     fill="#abacab"
     id="path80" />
  <path
     d="M 597.15 175.25 C 604.44 174.59 611.88 175.08 619.20 175.16 C 617.49 183.01 613.68 189.25 610.68 196.68 C 609.02 200.22 607.82 204.32 605.49 207.47 C 603.91 207.91 602.23 208.07 600.61 208.32 C 604.54 198.31 609.43 188.69 613.69 178.82 C 607.99 178.77 602.27 178.97 596.57 178.70 C 596.72 177.54 596.91 176.39 597.15 175.25 Z"
     fill="#abacab"
     id="path82" />
  <path
     d="M 38.40 183.34 C 39.82 183.06 41.29 182.92 42.72 182.75 C 43.02 188.49 42.50 194.30 43.03 200.02 C 43.35 202.49 45.38 204.55 47.99 204.18 C 50.14 203.74 52.91 202.02 53.75 199.94 C 54.37 194.38 53.81 188.67 54.05 183.07 C 55.57 183.06 57.08 183.05 58.60 183.04 C 58.69 191.33 58.67 199.62 58.61 207.91 C 57.22 207.95 55.83 207.99 54.44 208.03 C 54.44 206.94 54.44 205.85 54.45 204.76 C 51.44 206.74 48.85 208.58 45.01 207.96 C 40.74 207.57 38.57 203.97 38.32 200.00 C 38.05 194.50 37.93 188.82 38.40 183.34 Z"
     fill="#05dfd8"
     id="path88" />
  <path
     style="fill:#05dfd8;stroke-width:1.33333337"
     d="M 105.41211 243.89258 C 101.12523 243.7532 97.492422 245.93344 93.732422 248.77344 C 93.759089 247.2001 93.787448 245.61401 93.800781 244.02734 C 92.040781 244.02734 90.279531 244.02701 88.519531 244.01367 C 88.426198 259.10701 88.439193 274.19963 88.505859 289.29297 C 90.452526 289.29297 92.412708 289.28091 94.359375 289.26758 C 94.452708 284.09424 94.453385 278.90737 94.386719 273.7207 C 98.360052 276.10737 101.79969 278.21383 106.67969 277.17383 C 113.71969 275.90716 116.87956 269.28036 117.21289 262.70703 C 117.62622 256.04036 116.70727 248.10719 109.94727 244.86719 C 108.34393 244.24385 106.84107 243.93904 105.41211 243.89258 z M 103.66602 249.04688 C 104.17797 249.03956 104.7019 249.0949 105.24023 249.22656 C 109.8669 250.50656 110.96008 255.84 111.08008 260 C 111.17341 264.32 109.97255 270.51966 105.19922 271.98633 C 100.87922 273.37299 97.466719 269.37367 94.386719 267.01367 C 94.440052 262.77367 94.440052 258.53331 94.386719 254.30664 C 97.116719 252.25331 100.08234 249.0981 103.66602 249.04688 z "
     transform="scale(0.74999997)"
     id="path90" />
  <path
     style="fill:#05dfd8;stroke-width:1.33333337"
     d="M 138.2832 243.89844 C 134.17396 244.01445 130.12813 245.53177 127.45312 248.77344 C 123.55979 253.29344 123.65281 259.67964 124.13281 265.29297 C 124.65281 270.03964 127.46633 274.40083 131.98633 276.1875 C 138.39966 278.65417 144.93349 276.99924 151.16016 274.89258 L 151.08008 269.69336 C 145.72008 271.49336 139.54581 274.19948 134.11914 271.13281 C 130.83914 269.37281 130.57328 264.66646 129.61328 261.45312 C 137.10661 261.09312 144.70682 261.79966 152.16016 260.98633 C 153.50682 255.01299 151.49346 247.73281 145.4668 245.13281 C 143.2368 244.26281 140.74875 243.82883 138.2832 243.89844 z M 138.6582 248.5293 C 140.46654 248.52596 142.27253 248.92576 143.50586 249.73242 C 145.35919 251.51909 146.29372 254.36062 147.40039 256.64062 C 141.37372 256.81396 135.34732 256.81328 129.33398 256.61328 C 130.58732 254.33328 131.74745 251.39943 133.80078 249.74609 C 135.04078 248.93943 136.84987 248.53263 138.6582 248.5293 z "
     transform="scale(0.74999997)"
     id="path92" />
  <path
     d="M 121.02 183.03 C 122.29 183.02 123.56 183.01 124.83 183.01 C 124.78 184.16 124.72 185.31 124.67 186.46 C 126.11 185.39 127.57 184.07 129.23 183.33 C 130.99 183.00 132.86 183.11 134.65 183.09 C 134.61 184.65 134.57 186.21 134.52 187.76 C 133.18 187.31 131.83 186.86 130.49 186.40 C 128.56 188.07 125.49 190.12 125.51 192.96 C 125.23 197.94 125.52 202.95 125.37 207.94 C 123.93 207.95 122.48 207.96 121.04 207.97 C 120.97 199.66 120.99 191.34 121.02 183.03 Z"
     fill="#05dfd8"
     id="path94" />
  <path
     d="M 210.39 183.01 C 211.73 183.01 213.08 183.02 214.43 183.02 C 214.39 184.14 214.34 185.25 214.29 186.36 C 217.09 184.45 219.39 182.56 223.03 182.98 C 225.72 183.03 227.33 184.95 229.30 186.51 C 232.12 184.63 234.38 182.63 238.03 182.98 C 241.84 183.06 244.56 186.34 244.84 189.98 C 245.27 195.94 244.93 201.98 244.95 207.95 C 243.51 207.95 242.07 207.95 240.63 207.95 C 240.43 202.37 240.87 196.73 240.37 191.17 C 240.16 188.76 238.53 186.72 235.96 186.75 C 233.70 187.32 231.72 189.38 229.96 190.84 C 230.02 196.54 230.04 202.24 229.94 207.93 C 228.42 207.95 226.91 207.95 225.39 207.96 C 225.21 202.30 225.65 196.59 225.17 190.96 C 224.88 188.41 223.53 187.09 221.00 186.72 C 218.62 187.09 216.54 189.42 214.77 190.93 C 214.86 196.60 214.87 202.28 214.76 207.96 C 213.30 207.96 211.84 207.97 210.38 207.97 C 210.33 199.65 210.32 191.33 210.39 183.01 Z"
     fill="#05dfd8"
     id="path96" />
  <path
     d="M 253.38 183.34 C 254.75 183.06 256.18 182.91 257.57 182.73 C 257.72 191.13 257.67 199.53 257.60 207.93 C 256.14 207.95 254.68 207.97 253.22 207.99 C 253.28 199.80 252.85 191.51 253.38 183.34 Z"
     fill="#05dfd8"
     id="path98" />
  <path
     d="M 265.39 183.02 C 266.73 183.01 268.07 183.01 269.42 183.01 C 269.38 184.11 269.35 185.20 269.31 186.30 C 272.41 184.29 275.03 182.37 278.98 183.06 C 282.79 183.53 285.01 186.55 285.45 190.19 C 285.96 196.07 285.57 202.05 285.60 207.94 C 284.14 207.95 282.68 207.96 281.22 207.96 C 281.00 202.36 281.56 196.63 280.87 191.07 C 280.46 188.39 278.78 186.78 276.01 186.79 C 273.67 187.22 271.58 189.43 269.77 190.90 C 269.86 196.58 269.87 202.27 269.76 207.96 C 268.30 207.96 266.84 207.97 265.38 207.97 C 265.33 199.65 265.32 191.33 265.39 183.02 Z"
     fill="#05dfd8"
     id="path100" />
  <path
     d="M 361.29 183.41 C 362.69 183.12 364.15 182.94 365.57 182.75 C 365.78 188.50 365.26 194.33 365.84 200.05 C 366.01 202.68 368.34 204.69 370.98 204.12 C 372.99 203.42 374.86 202.03 376.64 200.86 C 376.53 194.92 376.57 188.98 376.72 183.04 C 378.26 183.05 379.80 183.05 381.33 183.06 C 381.45 191.34 381.45 199.63 381.33 207.91 C 380.03 207.95 378.72 207.99 377.41 208.03 C 377.32 207.04 377.23 206.04 377.14 205.05 C 373.79 206.82 371.01 208.72 367.00 207.84 C 363.17 207.09 361.36 203.69 361.16 200.05 C 360.84 194.56 360.68 188.88 361.29 183.41 Z"
     fill="#abacab"
     id="path102" />
  <path
     d="M 398.32 183.43 C 399.76 183.14 401.23 182.94 402.68 182.73 C 405.03 189.32 407.28 195.94 409.68 202.51 C 412.09 196.12 414.14 189.61 416.32 183.14 C 417.83 183.07 419.34 183.00 420.85 182.93 C 417.29 194.38 413.06 205.70 408.76 216.90 C 407.15 216.90 405.54 216.90 403.93 216.90 C 405.05 214.02 406.18 211.14 407.30 208.26 C 404.29 200.03 400.71 191.86 398.32 183.43 Z"
     fill="#abacab"
     id="path104" />
  <path
     d="M 302.99 191.31 C 311.29 190.91 319.65 191.30 327.96 191.23 C 327.97 192.47 327.97 193.71 327.98 194.95 C 318.86 195.00 309.74 195.12 300.63 194.86 C 301.33 193.66 301.07 190.98 302.99 191.31 Z"
     fill="#abacab"
     id="path112" />
  <path
     d="M 497.47 201.95 C 497.74 207.37 494.91 210.83 491.94 214.95 C 490.84 214.98 489.75 215.00 488.65 215.03 C 490.73 210.91 491.94 206.79 492.88 202.29 C 494.41 202.12 495.94 202.02 497.47 201.95 Z"
     fill="#abacab"
     id="path114" />
  <path
     d="M 66.60 237.29 C 67.93 237.05 69.30 236.94 70.65 236.80 C 70.90 248.82 70.80 260.89 70.70 272.92 C 69.30 272.95 67.90 272.97 66.50 272.99 C 66.49 261.11 66.24 249.16 66.60 237.29 Z"
     fill="#048204"
     id="path116" />
  <path
     style="fill:#048204;stroke-width:1.33333337"
     d="M 285.09375 316.03906 C 283.20042 316.03906 281.31945 316.07922 279.43945 316.19922 C 279.07945 322.23922 279.23971 328.31937 279.37305 334.35938 C 276.06638 332.57271 273.31938 330.37328 269.35938 330.61328 C 265.06604 330.70661 261.17247 332.74755 259.11914 336.57422 C 255.99914 342.24089 255.86677 349.69344 257.77344 355.77344 C 259.42677 360.85344 263.85365 364.34573 269.32031 364.03906 C 273.84031 364.10573 276.63966 361.57333 279.98633 359 C 280.03966 360.64 280.10716 362.26625 280.17383 363.90625 L 285.24023 363.90625 C 285.29357 347.97292 285.60042 331.9724 285.09375 316.03906 z M 270.55664 335.66992 C 273.8859 335.75333 276.53474 338.50312 279.25391 340.45312 C 279.25391 344.90646 279.25424 349.37318 279.26758 353.83984 C 276.04091 356.35984 272.69281 360.19935 268.13281 358.66602 C 263.71948 357.03935 262.80029 352.28042 262.62695 348.09375 C 262.46695 343.70708 263.45281 337.84008 268.13281 336.08008 C 268.98281 335.77258 269.78835 335.65067 270.55664 335.66992 z "
     transform="scale(0.74999997)"
     id="path118" />
  <path
     style="fill:#abacab;stroke-width:1.33333337"
     d="M 675.50586 316.06641 C 675.42586 332.01307 675.42586 347.97359 675.50586 363.93359 C 677.22586 363.96026 678.9343 363.98701 680.6543 364.01367 C 680.68096 362.57367 680.70576 361.11969 680.73242 359.67969 C 684.41242 362.01302 687.35906 364.52068 692.03906 364.02734 C 697.8124 363.78734 701.98672 359.56016 703.38672 354.16016 C 704.74672 348.56016 704.78615 341.78688 702.13281 336.54688 C 699.54615 331.53354 693.54758 329.46716 688.26758 331.17383 C 685.84091 332.04049 683.52091 333.46576 681.26758 334.73242 C 681.37424 328.50575 681.36091 322.29307 681.26758 316.06641 L 675.50586 316.06641 z M 690.48438 335.69922 C 690.97268 335.67531 691.46594 335.71284 691.96094 335.82617 C 696.7876 337.05284 697.91906 342.35935 698.03906 346.66602 C 698.0924 351.23935 697.03992 357.34711 691.91992 358.78711 C 687.98659 359.93378 684.16057 355.82635 681.25391 353.67969 C 681.32057 349.43969 681.32057 345.21266 681.25391 340.97266 C 683.84391 339.08266 687.06622 335.86656 690.48438 335.69922 z "
     transform="scale(0.74999997)"
     id="path120" />
  <path
     d="M 264.47 239.40 C 266.10 239.08 267.71 239.10 269.36 239.08 C 269.38 240.68 269.39 242.27 269.38 243.87 C 267.78 243.69 265.04 244.59 264.22 242.84 C 264.17 241.71 264.25 240.56 264.47 239.40 Z"
     fill="#048204"
     id="path122" />
  <path
     d="M 10.78 240.15 C 18.94 239.76 27.17 240.11 35.34 240.01 C 35.40 241.24 35.45 242.48 35.50 243.71 C 32.11 243.79 28.72 243.79 25.33 243.79 C 25.28 253.49 25.44 263.20 25.23 272.89 C 23.72 272.93 22.21 272.95 20.69 272.97 C 20.64 263.24 20.68 253.51 20.67 243.78 C 17.17 243.79 13.67 243.81 10.18 243.67 C 10.34 242.49 10.55 241.32 10.78 240.15 Z"
     fill="#048204"
     id="path124" />
  <path
     style="fill:#048204;stroke-width:1.33333337"
     d="M 236.29297 319.86719 C 233.9863 319.96052 231.63971 319.98698 229.37305 320.32031 C 227.54638 323.52031 226.50589 327.22602 225.19922 330.66602 C 221.26589 341.71935 216.88049 352.62643 213.17383 363.75977 C 215.16049 363.8531 217.14615 363.93299 219.13281 363.98633 C 220.62615 360.02633 222.02638 356.04068 223.37305 352.02734 C 229.49305 351.98734 235.62643 352.00034 241.75977 352.01367 C 243.15977 356.02701 244.57341 360.02667 246.08008 364 C 248.17341 363.97333 250.28005 363.93258 252.38672 363.89258 C 247.37339 349.10591 241.7063 334.52052 236.29297 319.86719 z M 232.43945 325.32031 C 234.95945 332.65365 237.58622 339.96057 240.21289 347.25391 C 235.07956 347.25391 229.95984 347.25424 224.83984 347.26758 C 226.90651 341.40091 228.96 335.53268 231 329.66602 C 231.48 328.21268 231.95945 326.77365 232.43945 325.32031 z "
     transform="scale(0.74999997)"
     id="path126" />
  <path
     style="fill:#abacab;stroke-width:1.33333337"
     d="M 483.66992 319.82422 C 480.85992 319.82922 478.05331 320.01312 475.30664 320.45312 C 474.73331 324.22646 474.84018 328.18667 474.85352 332 C 475.00018 342.62667 474.82701 353.24052 475.01367 363.86719 C 481.85367 363.94719 489.49281 364.70651 496.13281 362.83984 C 502.74615 360.91984 507.32096 355.42609 508.6543 348.74609 C 509.92096 342.27943 509.78682 334.2662 506.16016 328.51953 C 503.08016 323.55953 497.7594 320.82758 492.05273 320.26758 C 489.29273 319.99424 486.47992 319.81922 483.66992 319.82422 z M 481.09375 324.86719 C 485.96042 325.17385 492.3462 324.67919 496.51953 327.50586 C 501.17286 330.61253 502.90633 335.93365 502.98633 341.32031 C 503.02633 346.96031 501.74661 353.42602 496.61328 356.66602 C 492.37328 359.33268 485.94708 358.82581 481.09375 359.11914 C 481.08042 347.70581 481.06708 336.28052 481.09375 324.86719 z "
     transform="scale(0.74999997)"
     id="path128" />
  <path
     d="M 604.91 239.43 C 605.10 249.33 604.95 259.24 605.01 269.14 C 607.32 269.18 609.64 269.23 611.95 269.27 C 611.96 270.50 611.96 271.72 611.96 272.94 C 605.52 273.03 599.09 273.03 592.66 272.97 C 592.69 271.72 592.72 270.47 592.76 269.22 C 595.29 269.20 597.82 269.18 600.36 269.17 C 600.38 261.21 600.34 253.26 600.39 245.31 C 597.67 246.93 594.93 248.50 592.09 249.92 C 592.37 248.63 592.54 247.26 593.02 246.02 C 596.07 242.46 600.47 240.59 604.91 239.43 Z"
     fill="#abacab"
     id="path130" />
  <path
     d="M 659.95 242.06 C 663.69 245.19 663.31 251.18 661.09 255.09 C 658.14 260.37 652.95 264.63 648.93 269.14 C 653.98 269.19 659.03 269.19 664.08 269.23 C 664.10 270.47 664.12 271.71 664.14 272.94 C 656.96 273.02 649.77 273.11 642.60 272.84 C 643.90 266.52 648.56 264.05 652.47 259.48 C 655.36 256.24 658.04 252.56 657.40 247.95 C 657.02 245.33 654.59 243.66 652.02 243.86 C 649.05 244.13 646.08 245.32 643.22 246.14 C 644.10 244.11 644.00 242.15 646.33 241.28 C 650.36 239.53 656.34 239.19 659.95 242.06 Z"
     fill="#abacab"
     id="path132" />
  <path
     style="fill:#abacab;stroke-width:1.33333337"
     d="M 908.16797 319.91797 C 906.37088 319.92817 904.58932 320.15703 902.97266 320.51953 C 898.07932 321.79953 894.82714 326.00036 893.48047 330.70703 C 891.64047 337.00036 891.7726 343.96073 892.58594 350.41406 C 893.4526 355.80073 895.42659 361.00042 900.91992 363.09375 C 906.89326 365.05375 914.93359 364.42659 918.93359 358.91992 C 922.78693 353.83992 923.33323 346.133 923.22656 339.98633 C 922.97323 334.71966 922.29336 328.13427 918.69336 323.96094 C 916.15419 320.93594 912.12156 319.89552 908.16797 319.91797 z M 908.02148 325.0293 C 910.81059 325.13009 913.5131 326.47432 914.75977 329.16016 C 916.75977 333.64016 916.91984 339.16034 916.83984 344.01367 C 916.62651 347.97367 916.26628 353.11964 913.59961 356.29297 C 910.34628 360.17297 903.22703 359.83964 900.70703 355.29297 C 897.9337 350.07964 898.1468 343.01425 898.4668 337.26758 C 898.85346 332.98758 899.97297 327.66763 904.29297 325.6543 C 905.46797 325.19596 906.75371 324.98348 908.02148 325.0293 z "
     transform="scale(0.74999997)"
     id="path134" />
  <path
     d="M 711.56 239.50 C 711.72 249.36 711.59 259.23 711.64 269.10 C 713.97 269.18 716.30 269.27 718.62 269.37 C 718.60 270.55 718.59 271.73 718.57 272.92 C 712.12 273.05 705.67 273.04 699.22 272.95 C 699.22 271.71 699.23 270.48 699.23 269.25 C 701.82 269.21 704.40 269.18 706.99 269.15 C 707.01 261.18 706.99 253.21 707.00 245.24 C 704.38 246.76 701.75 248.27 699.11 249.75 C 699.07 248.48 699.03 247.22 698.99 245.96 C 702.89 243.02 706.63 240.37 711.56 239.50 Z"
     fill="#abacab"
     id="path136" />
  <path
     d="M 724.61 240.32 C 731.76 239.51 739.16 240.13 746.37 240.13 C 745.60 243.57 744.60 246.91 743.11 250.11 C 739.60 257.68 736.36 265.38 732.90 272.98 C 731.24 272.93 729.57 272.89 727.91 272.84 C 732.09 263.09 736.67 253.54 740.92 243.82 C 735.11 243.81 729.32 243.86 723.52 243.71 C 723.84 242.57 724.21 241.43 724.61 240.32 Z"
     fill="#abacab"
     id="path138" />
  <path
     d="M 134.42 242.28 C 135.74 242.04 137.10 241.92 138.44 241.78 C 138.51 243.86 138.56 245.93 138.60 248.00 C 140.83 248.00 143.06 248.00 145.29 248.00 C 145.27 249.17 145.24 250.34 145.22 251.51 C 143.00 251.54 140.78 251.56 138.56 251.57 C 138.59 255.72 138.48 259.88 138.56 264.04 C 138.68 265.94 138.56 267.68 140.13 269.03 C 141.85 269.11 143.64 268.84 145.35 268.68 C 145.32 269.94 145.28 271.21 145.23 272.47 C 142.76 272.78 139.80 273.44 137.45 272.43 C 135.34 271.41 134.43 269.18 134.30 266.96 C 134.05 261.85 134.29 256.71 134.23 251.59 C 132.87 251.56 131.51 251.52 130.15 251.49 C 130.14 250.36 130.13 249.24 130.12 248.12 C 131.45 248.06 132.78 248.00 134.12 247.95 C 134.18 246.07 134.19 244.15 134.42 242.28 Z"
     fill="#048204"
     id="path140" />
  <path
     style="fill:#048204;stroke-width:1.33333337"
     d="M 66.802734 330.56641 C 61.796396 330.41444 56.6325 332.51719 54 336.67969 C 51.04 340.98635 50.813802 347.01401 51.480469 352.02734 C 52.187135 356.54734 54.586849 360.62721 58.853516 362.56055 C 65.426849 365.33388 71.960312 363.88005 78.320312 361.38672 C 78.320313 359.73339 78.319974 358.07911 78.306641 356.42578 C 72.959974 358.29245 67.479245 360.82615 61.892578 358.13281 C 57.932578 356.14615 57.813255 351.87974 56.919922 348.06641 C 64.533255 347.87974 72.145755 348.22643 79.732422 347.75977 C 79.639089 343.10643 80.053594 338.94742 76.933594 335.10742 C 74.49526 332.16742 70.696553 330.6846 66.802734 330.56641 z M 66.011719 335.04688 C 67.970052 335.04688 69.926042 335.58096 71.359375 336.6543 C 73.052708 338.36096 73.73362 341.18672 74.626953 343.38672 C 68.640286 343.64005 62.666354 343.62612 56.679688 343.43945 C 57.759688 341.19945 58.720963 338.26729 60.654297 336.64062 C 62.094297 335.58062 64.053385 335.04688 66.011719 335.04688 z "
     transform="scale(0.74999997)"
     id="path148" />
  <path
     d="M 78.70 248.04 C 79.97 248.02 81.24 248.00 82.51 247.98 C 82.50 249.14 82.49 250.30 82.48 251.46 C 84.27 250.32 86.17 248.84 88.22 248.27 C 91.17 247.52 94.50 248.07 96.60 250.40 C 98.48 252.54 98.75 255.22 98.79 257.95 C 98.82 262.94 98.81 267.94 98.69 272.93 C 97.30 272.95 95.91 272.96 94.52 272.97 C 94.34 267.96 94.57 262.94 94.41 257.93 C 94.26 255.40 93.73 252.74 90.95 251.95 C 87.79 250.95 85.10 254.03 82.99 255.91 C 82.99 261.58 83.06 267.25 82.93 272.92 C 81.52 272.94 80.11 272.95 78.69 272.96 C 78.66 264.66 78.65 256.35 78.70 248.04 Z"
     fill="#048204"
     id="path150" />
  <path
     style="fill:#048204;stroke-width:1.33333337"
     d="M 155.45508 330.56055 C 150.62203 330.50491 145.70242 332.53703 143.10742 336.51953 C 139.97409 340.99953 139.9338 346.73427 140.48047 351.96094 C 141.1338 356.5876 143.73383 360.86669 148.17383 362.69336 C 154.7605 365.33336 160.91997 363.76047 167.30664 361.48047 C 167.34664 359.80047 167.36005 358.13313 167.38672 356.45312 C 161.85339 358.30646 155.96031 361.02617 150.32031 357.82617 C 146.93365 355.87951 146.77292 351.50581 145.90625 348.11914 C 153.53292 347.85247 161.13276 348.18617 168.74609 347.82617 C 168.73276 342.89284 168.99945 338.44021 165.43945 334.54688 C 162.91945 331.91021 159.21411 330.60382 155.45508 330.56055 z M 155.69336 335.07422 C 157.46669 335.18255 159.20055 335.74078 160.56055 336.80078 C 162.12055 338.57411 162.74628 341.25406 163.59961 343.41406 C 157.63961 343.6274 151.65336 343.64073 145.69336 343.41406 C 146.89336 340.8674 147.9726 337.42573 150.58594 336.03906 C 152.10594 335.30573 153.92003 334.96589 155.69336 335.07422 z "
     transform="scale(0.74999997)"
     id="path152" />
  <path
     d="M 222.27 248.03 C 223.49 248.02 224.72 248.02 225.95 248.02 C 225.97 249.18 225.99 250.34 226.00 251.49 C 228.86 249.48 231.22 247.50 234.98 248.03 C 237.76 248.20 239.14 249.99 241.00 251.75 C 243.83 249.66 246.15 247.57 249.95 248.01 C 253.94 248.29 256.38 251.71 256.66 255.49 C 256.97 261.28 256.76 267.13 256.69 272.93 C 255.30 272.95 253.91 272.96 252.52 272.97 C 252.25 267.31 252.78 261.57 252.21 255.94 C 251.77 253.43 250.54 252.12 248.02 251.65 C 245.44 252.07 243.65 254.13 241.76 255.75 C 241.77 261.47 241.86 267.20 241.67 272.92 C 240.22 272.95 238.77 272.96 237.32 272.97 C 237.08 267.63 237.39 262.28 237.16 256.93 C 236.96 254.77 236.32 252.59 233.97 251.96 C 231.13 250.87 228.45 254.23 226.53 255.87 C 226.56 261.56 226.61 267.25 226.49 272.94 C 225.09 272.96 223.70 272.97 222.30 272.98 C 222.15 264.66 222.20 256.34 222.27 248.03 Z"
     fill="#048204"
     id="path154" />
  <path
     d="M 264.69 248.04 C 266.11 248.05 267.52 248.06 268.93 248.08 C 269.04 256.35 269.04 264.65 268.93 272.92 C 267.52 272.94 266.11 272.95 264.69 272.96 C 264.65 264.66 264.65 256.34 264.69 248.04 Z"
     fill="#048204"
     id="path156" />
  <path
     d="M 277.11 248.33 C 278.29 248.09 279.47 247.87 280.66 247.68 C 280.70 248.93 280.73 250.18 280.77 251.43 C 283.74 249.47 286.22 247.52 290.02 248.03 C 293.75 248.33 296.44 251.31 296.81 254.95 C 297.26 260.91 296.95 266.95 296.93 272.92 C 295.53 272.94 294.13 272.95 292.73 272.95 C 292.55 267.68 292.85 262.40 292.58 257.13 C 292.38 254.73 291.59 252.53 289.01 251.90 C 286.08 251.00 283.27 254.12 281.29 255.88 C 281.35 261.56 281.37 267.25 281.27 272.94 C 279.86 272.95 278.46 272.96 277.05 272.96 C 277.04 264.76 276.84 256.52 277.11 248.33 Z"
     fill="#048204"
     id="path158" />
  <path
     style="fill:#abacab;stroke-width:1.33333337"
     d="M 530.44727 330.53906 C 525.59913 330.68285 520.77766 332.88734 518.34766 337.02734 C 515.65432 341.24068 515.60016 347.22701 516.16016 352.01367 C 516.74682 356.74701 519.46667 361.02583 524 362.8125 C 530.36 365.38583 536.86742 363.48096 543.10742 361.6543 C 543.10742 359.9343 543.09341 358.20047 543.08008 356.48047 C 538.18674 357.96047 531.97367 360.55964 527.01367 358.29297 C 522.92034 356.73297 522.72047 351.68076 521.48047 348.10742 C 529.22714 347.94742 536.97404 348.05258 544.7207 347.89258 C 544.21404 343.07924 544.60003 337.52 540.69336 334 C 538.00419 331.56167 534.21804 330.42723 530.44727 330.53906 z M 530.67578 335.1543 C 532.47411 335.15596 534.27388 335.58073 535.56055 336.41406 C 537.32055 338.33406 538.37253 341.03937 539.50586 343.35938 C 533.33253 343.51938 527.17367 343.50716 521.01367 343.17383 C 522.46701 340.93383 523.81411 338.26578 525.80078 336.42578 C 527.08078 335.57245 528.87745 335.15263 530.67578 335.1543 z "
     transform="scale(0.74999997)"
     id="path160" />
  <path
     d="M 429.58 249.36 C 431.66 250.38 431.46 253.18 432.03 255.12 C 429.50 253.93 426.78 252.14 423.99 251.78 C 420.36 251.80 418.55 254.76 417.99 257.99 C 417.40 261.50 417.89 266.70 421.42 268.58 C 424.75 270.52 429.10 267.22 432.21 265.95 C 431.50 268.15 431.88 270.41 429.57 271.60 C 425.18 274.05 417.91 273.65 415.19 268.85 C 412.56 264.58 412.51 257.31 414.96 252.96 C 417.76 247.79 424.69 246.61 429.58 249.36 Z"
     fill="#abacab"
     id="path162" />
  <path
     style="fill:#abacab;stroke-width:1.33333337"
     d="M 595.7793 330.53906 C 590.93116 330.68285 586.10969 332.88734 583.67969 337.02734 C 580.99969 341.21401 580.9338 347.1876 581.48047 351.96094 C 582.08047 356.72094 584.77398 361.0125 589.33398 362.8125 C 595.64065 365.3725 602.16005 363.48036 608.38672 361.70703 C 608.41339 359.98703 608.4538 358.26688 608.48047 356.54688 C 603.60047 357.93354 597.26766 360.5463 592.34766 358.29297 C 588.25432 356.73297 588.0525 351.68076 586.8125 348.10742 C 594.55917 347.94742 602.30607 348.05258 610.05273 347.89258 C 609.54607 343.07924 609.93401 337.52 606.02734 334 C 603.33818 331.56167 599.55007 330.42723 595.7793 330.53906 z M 596.00781 335.1543 C 597.80615 335.15596 599.60591 335.58073 600.89258 336.41406 C 602.65258 338.33406 603.70651 341.03937 604.83984 343.35938 C 598.66651 343.51938 592.50766 343.50716 586.34766 343.17383 C 587.80099 340.93383 589.14615 338.26578 591.13281 336.42578 C 592.41281 335.57245 594.20948 335.15263 596.00781 335.1543 z "
     transform="scale(0.74999997)"
     id="path164" />
  <path
     d="M 464.03 248.04 C 465.25 248.02 466.47 248.00 467.68 247.98 C 467.73 248.99 467.77 250.00 467.82 251.01 C 470.32 249.69 473.08 247.81 476.01 247.94 C 478.87 247.91 480.66 249.86 482.79 251.47 C 484.71 250.26 486.79 248.70 489.01 248.13 C 491.50 247.67 494.23 248.07 496.07 249.93 C 498.19 252.09 498.51 255.08 498.64 257.96 C 498.79 262.94 498.60 267.93 498.58 272.91 C 497.13 272.93 495.68 272.95 494.23 272.97 C 494.07 267.35 494.59 261.60 493.89 256.02 C 493.57 253.50 491.74 251.42 489.02 251.84 C 487.04 252.68 485.23 254.25 483.53 255.57 C 483.69 261.34 483.65 267.11 483.58 272.88 C 482.07 272.92 480.55 272.95 479.04 272.98 C 478.91 267.67 479.27 262.30 478.86 257.00 C 478.60 254.52 477.77 252.24 474.98 251.83 C 471.92 251.80 468.28 254.68 468.45 257.97 C 468.19 262.95 468.47 267.95 468.35 272.93 C 466.92 272.95 465.48 272.97 464.04 272.98 C 463.97 264.67 463.98 256.35 464.03 248.04 Z"
     fill="#abacab"
     id="path166" />
  <path
     style="fill:#abacab;stroke-width:1.33333337"
     d="M 725.60938 330.53125 C 720.93884 330.61905 716.26477 332.6193 713.75977 336.4668 C 710.63977 340.85346 710.45375 346.82633 711.09375 351.98633 C 711.74708 356.59966 714.30669 360.8137 718.69336 362.70703 C 725.08003 365.40036 731.70734 363.51977 738.02734 361.75977 C 738.06734 360.02643 738.12016 358.29388 738.16016 356.56055 C 733.18682 357.94721 726.80078 360.58622 721.80078 358.21289 C 718.02745 356.71956 717.56005 351.45375 716.38672 348.09375 C 724.20005 347.98708 731.99917 348.06711 739.8125 347.78711 C 739.26583 342.80044 739.58714 337.45284 735.48047 333.82617 C 732.87297 331.55117 729.24202 330.46296 725.60938 330.53125 z M 725.92188 335.14062 C 727.88354 335.17729 729.81914 335.74625 731.11914 336.90625 C 732.50581 338.83958 733.41406 341.1857 734.41406 343.3457 C 728.3474 343.5057 722.27922 343.50664 716.19922 343.30664 C 717.49255 341.05331 718.70755 338.41422 720.57422 336.57422 C 721.97422 335.60089 723.96021 335.10396 725.92188 335.14062 z "
     transform="scale(0.74999997)"
     id="path168" />
  <path
     d="M 561.22 248.04 C 562.46 248.02 563.71 247.99 564.95 247.97 C 564.92 249.14 564.89 250.30 564.86 251.47 C 568.34 248.56 570.13 247.98 574.72 247.91 C 574.76 249.49 574.79 251.07 574.83 252.65 C 573.40 252.23 571.97 251.81 570.54 251.38 C 568.80 253.13 565.82 255.20 565.78 257.88 C 565.33 262.85 565.69 267.91 565.62 272.90 C 564.16 272.93 562.70 272.96 561.24 272.99 C 561.15 264.67 561.18 256.36 561.22 248.04 Z"
     fill="#abacab"
     id="path170" />
  <path
     d="M 313.37 256.47 C 317.49 255.84 321.83 256.25 326.00 256.18 C 330.24 256.25 334.63 255.83 338.83 256.45 C 339.32 257.58 339.77 258.74 340.17 259.91 C 330.85 260.06 321.49 260.06 312.18 259.90 C 312.54 258.74 312.93 257.60 313.37 256.47 Z"
     fill="#abacab"
     id="path186" />
  <path
     d="M 620.32 267.45 C 621.86 267.13 623.45 267.00 625.01 266.83 C 624.34 272.83 622.19 278.88 615.82 280.74 C 617.73 276.41 618.84 271.90 620.32 267.45 Z"
     fill="#abacab"
     id="path188" />
  <path
     d="M 66.57 302.32 C 67.91 302.06 69.30 301.94 70.66 301.78 C 70.90 313.82 70.81 325.89 70.71 337.93 C 69.29 337.95 67.88 337.96 66.46 337.96 C 66.48 326.10 66.22 314.17 66.57 302.32 Z"
     fill="#02ac02"
     id="path190" />
  <path
     d="M 191.67 302.06 C 193.09 302.06 194.51 302.07 195.93 302.08 C 196.05 314.01 196.05 325.99 195.93 337.92 C 194.51 337.93 193.09 337.94 191.67 337.94 C 191.63 325.98 191.63 314.02 191.67 302.06 Z"
     fill="#02ac02"
     id="path192" />
  <path
     style="fill:#02ac02;stroke-width:1.33333337"
     d="M 427.26758 402.41406 C 425.37424 402.61406 423.50661 402.77409 421.61328 403.10742 C 420.99995 409.06742 421.42604 415.15982 421.35938 421.14648 C 416.06604 417.09315 409.59958 415.52052 403.90625 419.86719 C 398.31958 424.54719 398.05375 433.33427 399.09375 439.96094 C 400.10708 445.80094 404.36096 450.82703 410.6543 450.70703 C 415.4543 451.0137 418.48 448.4807 422 445.7207 C 422.01333 447.37404 422.04008 449.02635 422.08008 450.67969 C 423.84008 450.62635 425.61305 450.57286 427.37305 450.51953 C 427.42638 434.49286 427.61424 418.44073 427.26758 402.41406 z M 411.99609 422.36328 C 415.42002 422.1905 418.69253 424.71039 420.88086 427.21289 C 421.76086 431.42622 421.23971 435.99964 421.37305 440.29297 C 418.35971 442.7863 415.05336 446.60047 410.69336 445.48047 C 405.84003 444.1738 404.78703 439.08003 404.70703 434.69336 C 404.5737 430.42669 405.31995 425.02727 409.61328 422.94727 C 410.40828 422.58727 411.20596 422.40315 411.99609 422.36328 z "
     transform="scale(0.74999997)"
     id="path194" />
  <path
     d="M 551.63 302.05 C 553.07 302.05 554.51 302.05 555.95 302.05 C 556.04 314.01 556.04 325.99 555.95 337.95 C 554.51 337.95 553.07 337.95 551.63 337.95 C 551.57 325.99 551.57 314.01 551.63 302.05 Z"
     fill="#abacab"
     id="path196" />
  <path
     d="M 375.55 303.97 C 375.59 305.65 375.60 307.32 375.56 308.99 C 374.04 308.82 371.87 309.19 370.61 308.26 C 370.34 307.04 370.38 305.81 370.53 304.57 C 372.20 304.12 373.83 304.08 375.55 303.97 Z"
     fill="#02ac02"
     id="path198" />
  <path
     d="M 539.55 304.54 C 541.03 304.14 542.57 303.93 544.08 303.67 C 544.11 305.42 544.12 307.17 544.12 308.92 C 542.31 308.88 540.50 308.83 538.69 308.78 C 538.95 307.37 539.17 305.93 539.55 304.54 Z"
     fill="#abacab"
     id="path200" />
  <path
     d="M 10.76 305.17 C 18.93 304.75 27.18 305.11 35.36 305.01 C 35.42 306.25 35.48 307.48 35.53 308.72 C 32.13 308.80 28.74 308.79 25.35 308.79 C 25.31 318.49 25.47 328.19 25.26 337.89 C 23.73 337.92 22.20 337.94 20.67 337.96 C 20.62 328.23 20.65 318.51 20.65 308.78 C 17.14 308.80 13.64 308.81 10.14 308.67 C 10.31 307.50 10.52 306.33 10.76 305.17 Z"
     fill="#02ac02"
     id="path202" />
  <path
     d="M 184.13 306.88 C 186.24 308.01 185.75 310.01 186.24 312.05 C 182.96 310.76 179.57 308.47 175.97 308.76 C 172.22 308.97 169.21 311.30 167.85 314.77 C 166.08 319.40 166.09 325.15 168.36 329.61 C 170.00 332.86 173.49 334.37 177.02 334.24 C 180.20 334.13 183.40 332.19 186.26 330.91 C 186.11 332.28 185.91 333.63 185.65 334.98 C 182.48 337.89 177.04 338.39 172.97 337.81 C 168.22 337.18 164.27 333.72 162.78 329.20 C 160.90 323.33 161.25 315.98 164.75 310.76 C 168.82 304.56 177.96 303.40 184.13 306.88 Z"
     fill="#02ac02"
     id="path204" />
  <path
     style="fill:#02ac02;stroke-width:1.33333337"
     d="M 377.90625 406.51953 C 375.61292 406.6262 373.26701 406.66573 371.01367 407.03906 C 367.05367 415.3724 364.50607 424.46573 361.05273 433.03906 C 358.85273 439.0524 356.49318 444.83906 354.83984 451.03906 C 356.83984 450.83906 358.81344 450.54648 360.77344 450.14648 C 362.66677 446.55982 363.76008 442.49268 365.08008 438.66602 C 371.18675 438.66602 377.29372 438.65302 383.40039 438.67969 C 384.80039 442.67969 386.21268 446.68096 387.66602 450.6543 C 389.81268 450.62763 391.95914 450.58654 394.11914 450.5332 C 388.97247 435.78654 383.46625 421.11953 377.90625 406.51953 z M 374.11914 412.01367 C 376.58581 419.33367 379.22753 426.62591 381.88086 433.89258 L 366.5332 433.89258 C 368.54654 428.19924 370.55987 422.49344 372.5332 416.77344 C 373.06654 415.18677 373.58581 413.60034 374.11914 412.01367 z "
     transform="scale(0.74999997)"
     id="path206" />
  <path
     style="fill:#abacab;stroke-width:1.33333337"
     d="M 634.64062 406.25391 C 632.32062 406.56057 629.90729 406.72031 627.64062 407.32031 C 625.80062 410.21365 624.70688 413.70659 623.54688 416.91992 C 619.73354 428.18659 615.06688 439.10747 611.54688 450.49414 C 613.53354 450.57414 615.51953 450.65242 617.51953 450.73242 C 618.9462 446.73242 620.37344 442.72003 621.77344 438.69336 C 627.8401 438.66669 633.90633 438.66635 639.98633 438.67969 C 641.41299 442.67969 642.85365 446.66602 644.32031 450.66602 C 646.49365 450.59935 648.66685 450.54714 650.85352 450.48047 C 645.65352 435.66713 640.02729 421.00057 634.64062 406.25391 z M 630.78711 412.54688 C 633.40044 419.61354 635.93406 426.7195 638.41406 433.82617 C 633.37406 433.82617 628.3193 433.82583 623.2793 433.8125 C 625.21263 428.27917 627.13409 422.74656 629.10742 417.22656 L 630.78711 412.54688 z "
     transform="scale(0.74999997)"
     id="path208" />
  <path
     d="M 591.25 306.74 C 595.46 309.77 595.16 315.77 592.93 319.93 C 589.96 325.28 584.72 329.54 580.69 334.15 C 585.73 334.18 590.78 334.19 595.83 334.25 C 595.85 335.47 595.86 336.69 595.87 337.92 C 588.73 338.03 581.57 338.10 574.43 337.86 C 575.19 335.51 575.67 333.30 577.45 331.49 C 581.45 327.04 587.91 322.13 589.14 316.02 C 589.85 312.77 588.47 309.54 585.01 308.88 C 581.69 308.65 578.12 310.32 574.95 311.15 C 575.74 309.48 575.72 307.33 577.57 306.55 C 581.54 304.56 587.47 304.14 591.25 306.74 Z"
     fill="#abacab"
     id="path210" />
  <path
     style="fill:#abacab;stroke-width:1.33333337"
     d="M 815.63086 406.5918 C 810.11398 406.72117 804.7932 408.99422 802.5332 414.57422 C 800.62654 419.72089 800.82701 428.0263 806.01367 431.29297 C 811.62701 435.03964 819.4138 432.78654 825.48047 431.5332 C 823.8538 436.02654 823.09388 441.37393 818.56055 443.94727 C 814.10721 446.85393 807.58602 444.82615 802.66602 444.13281 C 802.77268 445.87948 802.87966 447.64005 802.98633 449.38672 C 809.03966 450.44005 815.09419 451.82591 820.88086 448.89258 C 825.85419 446.47924 828.55958 441.80029 829.90625 436.62695 C 831.45292 430.12029 831.4925 423.12063 829.8125 416.64062 C 828.54583 412.18729 825.78742 408.31948 821.10742 407.13281 C 819.33076 406.74281 817.46982 406.54867 815.63086 406.5918 z M 816.12109 411.44336 C 818.37839 411.47031 820.61966 412.24974 821.98633 414.06641 C 824.59966 417.42641 824.98758 422.46586 824.26758 426.50586 C 820.21424 428.47919 813.09253 429.93346 809.50586 426.4668 C 806.30586 422.5068 807.09323 414.30648 812.22656 412.14648 C 813.40656 411.68148 814.76672 411.42719 816.12109 411.44336 z "
     transform="scale(0.74999997)"
     id="path212" />
  <path
     d="M 670.47 306.54 C 674.77 309.24 674.64 315.52 672.61 319.58 C 669.77 325.10 664.25 329.52 660.13 334.15 C 665.19 334.19 670.24 334.19 675.30 334.20 C 675.33 335.46 675.36 336.71 675.39 337.97 C 668.18 338.00 660.93 338.13 653.73 337.80 C 655.69 329.36 665.57 325.77 668.35 317.08 C 669.23 314.16 668.91 310.60 665.75 309.26 C 662.57 308.03 658.21 310.12 655.08 311.02 C 655.11 309.74 655.14 308.46 655.17 307.19 C 660.09 305.35 665.59 303.54 670.47 306.54 Z"
     fill="#abacab"
     id="path214" />
  <path
     style="fill:#abacab;stroke-width:1.33333337"
     d="M 923.29297 406.57617 C 921.36992 406.57578 919.46711 406.83023 917.78711 407.24023 C 911.45378 409.09357 908.63961 414.91966 907.59961 420.98633 C 906.54628 428.11966 906.56016 436.07958 909.16016 442.90625 C 912.89349 453.55958 930.94604 453.26604 935.35938 443.35938 C 938.41271 437.23937 938.55932 429.38703 937.97266 422.70703 C 937.42599 417.8937 936.14615 412.32016 932.13281 409.16016 C 929.75781 407.28516 926.49805 406.57682 923.29297 406.57617 z M 922.47461 411.68945 C 925.0817 411.62901 927.74849 412.63052 929.16016 414.86719 C 931.44016 418.60052 931.82633 423.73333 931.98633 428 C 931.97299 432.64 931.65273 438.35971 929.05273 442.37305 C 926.14607 446.86638 918.03961 446.70617 915.59961 441.82617 C 912.94628 436.18617 913.00021 429.05266 913.54688 422.97266 C 914.09354 419.10599 915.18674 414.25406 919.08008 412.41406 C 920.11758 411.96406 921.28957 411.71693 922.47461 411.68945 z "
     transform="scale(0.74999997)"
     id="path216" />
  <path
     d="M 722.56 304.50 C 722.72 314.36 722.59 324.23 722.64 334.10 C 724.97 334.18 727.30 334.27 729.62 334.37 C 729.61 335.55 729.59 336.73 729.57 337.92 C 723.12 338.05 716.67 338.04 710.22 337.95 C 710.22 336.71 710.23 335.48 710.23 334.25 C 712.82 334.21 715.40 334.18 717.99 334.15 C 718.01 326.18 717.99 318.21 718.00 310.24 C 715.38 311.76 712.75 313.27 710.11 314.75 C 710.07 313.48 710.03 312.22 709.99 310.96 C 713.89 308.02 717.63 305.37 722.56 304.50 Z"
     fill="#abacab"
     id="path218" />
  <path
     style="fill:#abacab;stroke-width:1.33333337"
     d="M 994.9043 406.58203 C 989.06185 406.55943 983.08357 408.32897 981.24023 414.64062 C 979.44023 421.36063 983.98698 424.3593 988.32031 428.2793 C 985.86698 430.14596 983.07982 432.05346 981.14648 434.4668 C 977.77315 438.9868 979.32021 446.3725 984.54688 448.8125 C 989.6802 451.2925 996.31911 451.19977 1001.7324 449.75977 C 1007.9191 448.1731 1011.6528 440.97281 1008.8262 435.13281 C 1007.0795 431.98615 1003.3325 429.76063 1000.5059 427.64062 C 1004.0792 424.2673 1008.4924 421.573 1008.0391 415.98633 C 1007.8657 409.98633 1002.8401 407.06669 997.38672 406.69336 C 996.57005 406.62503 995.73893 406.58526 994.9043 406.58203 z M 994.49023 411.41016 C 997.31784 411.39036 1000.1945 412.35443 1001.5195 414.74609 C 1003.1595 419.70609 999.41292 423.81281 994.90625 425.13281 C 992.39958 424.41281 989.98766 422.95924 988.34766 420.89258 C 986.42766 418.31924 986.72078 414.01406 989.80078 412.41406 C 991.11578 411.78906 992.79367 411.42203 994.49023 411.41016 z M 993.58594 431 C 998.46594 431.09333 1006.053 437.02586 1002.6797 442.50586 C 1000.133 447.07919 989.06578 447.10661 986.42578 442.61328 C 983.94578 436.82661 988.5326 432.64 993.58594 431 z "
     transform="scale(0.74999997)"
     id="path220" />
  <path
     d="M 134.41 307.28 C 135.74 307.05 137.12 306.93 138.47 306.80 C 138.53 308.86 138.58 310.93 138.62 313.00 C 140.85 313.00 143.09 313.01 145.33 313.02 C 145.29 314.20 145.26 315.37 145.22 316.54 C 143.00 316.57 140.79 316.58 138.58 316.58 C 138.61 320.74 138.50 324.89 138.58 329.04 C 138.70 330.96 138.56 332.69 140.16 334.05 C 141.87 334.10 143.65 333.82 145.35 333.62 C 145.33 334.91 145.30 336.20 145.27 337.48 C 142.83 337.77 139.79 338.40 137.46 337.45 C 135.34 336.42 134.41 334.23 134.29 331.97 C 134.05 326.85 134.28 321.71 134.22 316.60 C 132.88 316.58 131.54 316.56 130.19 316.54 C 130.15 315.41 130.11 314.28 130.08 313.15 C 131.42 313.08 132.76 313.01 134.11 312.94 C 134.17 311.06 134.18 309.15 134.41 307.28 Z"
     fill="#02ac02"
     id="path222" />
  <path
     style="fill:#02ac02;stroke-width:1.33333337"
     d="M 66.798828 417.22461 C 61.785224 417.07452 56.611328 419.17281 53.986328 423.32031 C 51.026328 427.65365 50.759792 433.66669 51.453125 438.69336 C 52.186458 443.22669 54.560182 447.29391 58.853516 449.25391 C 65.346849 451.97391 72.039036 450.55974 78.345703 448.06641 C 78.33237 446.39974 78.320312 444.7194 78.320312 443.05273 C 73.026979 444.93273 67.439584 447.46711 61.90625 444.78711 C 57.999583 442.88044 57.814193 438.45242 56.880859 434.73242 C 64.547526 434.55909 72.133437 434.88073 79.773438 434.41406 C 79.626771 429.7474 80.093594 425.59943 76.933594 421.74609 C 74.501094 418.81776 70.698298 417.34134 66.798828 417.22461 z M 66.484375 421.74609 C 68.242708 421.81943 69.973984 422.33398 71.333984 423.33398 C 73.013984 425.05398 73.719948 427.84068 74.613281 430.02734 C 68.626614 430.26734 62.640964 430.25341 56.654297 430.08008 C 57.86763 427.69341 59.026797 424.16078 61.466797 422.80078 C 62.94013 422.04078 64.726042 421.67276 66.484375 421.74609 z "
     transform="scale(0.74999997)"
     id="path234" />
  <path
     d="M 78.66 313.07 C 79.95 313.04 81.24 313.00 82.53 312.97 C 82.53 314.15 82.52 315.33 82.51 316.51 C 85.47 314.39 88.05 312.47 91.95 313.04 C 95.71 313.41 98.25 316.49 98.62 320.13 C 99.02 326.04 98.74 332.02 98.70 337.94 C 97.30 337.95 95.89 337.95 94.48 337.94 C 94.29 332.61 94.63 327.25 94.31 321.93 C 94.07 319.66 93.28 317.58 90.87 316.94 C 87.81 315.97 85.03 319.12 82.97 320.95 C 83.00 326.60 83.05 332.26 82.93 337.92 C 81.51 337.93 80.09 337.94 78.67 337.94 C 78.63 329.65 78.63 321.36 78.66 313.07 Z"
     fill="#02ac02"
     id="path236" />
  <path
     style="fill:#02ac02;stroke-width:1.33333337"
     d="M 155.39844 417.28125 C 153.54129 417.28341 151.66875 417.55651 149.90625 418.02734 C 143.97292 420.05401 140.46596 425.79992 140.2793 431.91992 C 139.8793 438.22659 140.63964 444.60039 146.29297 448.40039 C 152.83964 452.30706 160.62604 450.65315 167.35938 448.14648 C 167.37271 446.46648 167.38706 444.77341 167.40039 443.08008 C 162.12039 444.85341 156.65409 447.39958 151.10742 444.90625 C 146.96076 443.05292 146.90625 438.62711 145.90625 434.78711 C 153.54625 434.52044 161.16044 434.85346 168.78711 434.4668 C 168.72044 429.92013 169.03914 425.79932 166.11914 421.97266 C 163.49747 418.58099 159.48416 417.27649 155.39844 417.28125 z M 154.46484 421.76562 C 156.63815 421.64974 158.87487 422.17513 160.5332 423.4668 C 162.0532 425.28013 162.75995 427.86641 163.61328 430.06641 C 157.62661 430.26641 151.62729 430.26734 145.64062 430.02734 C 146.94729 427.49401 148.03977 423.97396 150.75977 422.64062 C 151.87977 422.13562 153.16086 421.83516 154.46484 421.76562 z "
     transform="scale(0.74999997)"
     id="path238" />
  <path
     style="fill:#02ac02;stroke-width:1.33333337"
     d="M 282.79688 417.29297 C 279.42135 417.3487 276.02656 418.14219 273.22656 419.86719 C 270.8799 421.14719 271.5876 423.43943 270.96094 425.74609 C 275.8276 424.09276 281.28013 420.58609 286.4668 422.74609 C 289.57346 424.14609 289.33281 428.46664 290.13281 431.30664 C 284.90615 431.61331 277.6669 431.26654 273.24023 434.5332 C 268.12023 437.9732 268.73414 447.05253 274.49414 449.50586 C 280.14747 451.93253 285.5468 450.52057 290.4668 447.25391 C 290.3868 448.34724 290.30656 449.45354 290.22656 450.54688 L 295.3457 450.62695 C 295.41237 442.80029 295.63904 434.93409 295.3457 427.10742 C 295.17237 422.89409 292.89404 419.17393 288.7207 417.94727 C 286.8407 417.49227 284.82219 417.25953 282.79688 417.29297 z M 289.61328 435.82617 C 289.61328 438.13284 289.61294 440.43977 289.59961 442.75977 C 285.91961 444.8531 282.83938 447.44096 278.35938 445.6543 C 275.02604 444.0543 274.74576 439.77294 277.73242 437.59961 C 281.10576 435.74628 285.87995 436.07951 289.61328 435.82617 z "
     transform="scale(0.74999997)"
     id="path240" />
  <path
     d="M 229.47 313.01 C 230.77 313.02 232.07 313.04 233.36 313.05 C 233.33 314.21 233.29 315.37 233.25 316.53 C 236.28 314.32 238.93 312.40 242.94 313.08 C 246.70 313.58 248.99 316.57 249.41 320.21 C 249.83 326.09 249.52 332.05 249.51 337.94 C 248.11 337.95 246.70 337.95 245.29 337.94 C 245.00 332.32 245.61 326.57 244.92 321.00 C 244.48 318.31 242.75 316.69 239.96 316.75 C 237.57 317.15 235.52 319.38 233.75 320.91 C 233.79 326.58 233.84 332.26 233.71 337.93 C 232.29 337.95 230.88 337.96 229.46 337.96 C 229.40 329.65 229.39 321.33 229.47 313.01 Z"
     fill="#02ac02"
     id="path242" />
  <path
     d="M 328.57 313.35 C 329.82 313.08 331.07 312.86 332.34 312.68 C 332.31 313.95 332.28 315.23 332.24 316.51 C 335.02 314.50 337.33 312.57 341.02 313.02 C 343.90 313.08 345.31 314.93 347.28 316.69 C 350.06 314.66 352.33 312.64 356.04 313.00 C 359.80 313.13 362.51 316.35 362.82 319.95 C 363.25 325.91 362.95 331.95 362.92 337.93 C 361.52 337.93 360.11 337.94 358.70 337.93 C 358.50 332.47 358.88 326.96 358.51 321.51 C 358.30 318.83 356.71 316.73 353.86 316.68 C 351.50 317.38 349.77 319.22 347.98 320.80 C 348.00 326.50 348.07 332.21 347.91 337.90 C 346.43 337.93 344.96 337.95 343.48 337.96 C 343.26 332.31 343.69 326.61 343.27 320.98 C 343.06 318.20 341.03 317.59 339.04 316.20 C 336.69 317.54 334.71 319.04 332.75 320.90 C 332.80 326.58 332.84 332.25 332.71 337.93 C 331.29 337.95 329.88 337.96 328.46 337.96 C 328.50 329.77 328.20 321.52 328.57 313.35 Z"
     fill="#02ac02"
     id="path244" />
  <path
     d="M 371.06 313.04 C 372.47 313.05 373.89 313.06 375.30 313.08 C 375.39 321.35 375.39 329.65 375.30 337.92 C 373.89 337.94 372.47 337.95 371.06 337.96 C 370.96 329.66 370.96 321.34 371.06 313.04 Z"
     fill="#02ac02"
     id="path246" />
  <path
     d="M 383.25 313.04 C 384.48 313.03 385.70 313.02 386.93 313.01 C 386.96 314.17 386.98 315.32 387.00 316.48 C 389.88 314.49 392.31 312.58 396.05 313.00 C 400.04 313.26 402.62 316.12 403.10 319.98 C 403.69 325.91 403.26 331.98 403.30 337.93 C 401.89 337.94 400.48 337.93 399.07 337.92 C 398.78 332.33 399.41 326.60 398.69 321.06 C 398.33 318.54 396.56 316.74 393.94 316.72 C 391.51 317.03 389.35 319.30 387.55 320.82 C 387.59 326.52 387.62 332.22 387.52 337.92 C 386.11 337.95 384.70 337.96 383.28 337.97 C 383.15 329.67 383.20 321.35 383.25 313.04 Z"
     fill="#02ac02"
     id="path248" />
  <path
     style="fill:#abacab;stroke-width:1.33333337"
     d="M 672.9043 417.25586 C 668.83992 417.40516 665.68508 419.73336 662.08008 421.69336 C 662.06674 420.25336 662.0524 418.82706 662.03906 417.40039 C 660.30573 417.36039 658.58685 417.33297 656.85352 417.29297 C 656.73352 432.39964 656.75984 447.50628 656.83984 462.59961 L 662.59961 462.59961 C 662.66628 457.38628 662.67995 452.18599 662.61328 446.97266 C 666.07995 448.83932 669.22638 451.10703 673.37305 450.70703 C 678.29305 450.4537 682.33307 447.26703 684.06641 442.70703 C 686.03974 437.4537 686.06628 431.30659 684.59961 425.91992 C 683.25294 421.27992 679.6537 417.69398 674.70703 417.33398 C 674.08536 417.25898 673.48492 417.23453 672.9043 417.25586 z M 671.82227 422.35938 C 672.31276 422.33362 672.80831 422.37047 673.30664 422.48047 C 678.23997 423.70714 679.22672 428.96065 679.38672 433.33398 C 679.44005 437.88065 678.36091 443.9874 673.26758 445.41406 C 669.24091 446.60073 665.54594 442.53398 662.58594 440.33398 C 662.6526 436.10732 662.6526 431.88063 662.58594 427.64062 C 665.17594 425.73896 668.3888 422.53966 671.82227 422.35938 z "
     transform="scale(0.74999997)"
     id="path250" />
  <path
     d="M 520.63 313.05 C 521.95 313.03 523.26 313.00 524.58 312.98 C 524.54 314.15 524.50 315.31 524.46 316.48 C 527.41 314.16 529.61 312.16 533.67 313.25 C 534.08 314.52 534.41 315.81 534.72 317.11 C 533.46 317.10 532.20 317.12 530.95 317.16 C 528.23 316.83 525.91 319.74 525.31 322.11 C 524.58 327.30 525.12 332.70 524.97 337.95 C 523.52 337.95 522.08 337.95 520.63 337.95 C 520.57 329.65 520.57 321.35 520.63 313.05 Z"
     fill="#abacab"
     id="path252" />
  <path
     d="M 539.62 313.48 C 540.97 313.11 542.36 312.88 543.73 312.62 C 543.87 321.07 543.84 329.52 543.75 337.96 C 542.30 337.96 540.84 337.95 539.39 337.94 C 539.57 329.81 538.93 321.56 539.62 313.48 Z"
     fill="#abacab"
     id="path254" />
  <path
     d="M 419.59 321.49 C 428.22 320.70 437.09 321.40 445.77 321.23 C 445.77 322.47 445.78 323.71 445.78 324.95 C 436.67 325.00 427.56 325.11 418.45 324.88 C 418.79 323.73 419.17 322.61 419.59 321.49 Z"
     fill="#abacab"
     id="path264" />
  <path
     d="M 631.32 332.45 C 632.86 332.13 634.45 332.00 636.01 331.83 C 635.34 337.83 633.19 343.88 626.82 345.74 C 628.73 341.41 629.84 336.90 631.32 332.45 Z"
     fill="#abacab"
     id="path270" />
  <path
     style="fill:#ff8205;stroke-width:1.33333337"
     d="M 286.48047 490.24023 C 284.60047 490.5469 282.66583 490.7993 280.8125 491.2793 C 280.14583 497.05263 280.55969 502.99917 280.67969 508.8125 C 276.90635 506.8525 273.79997 504.70638 269.30664 505.37305 C 263.91997 505.82638 260.32052 509.83917 258.86719 514.8125 C 257.12052 520.8525 257.32044 528.49326 260.78711 533.91992 C 263.93378 538.70659 270.13391 539.79917 275.25391 537.8125 C 277.38724 536.79917 279.40065 535.25419 281.33398 533.88086 C 281.38732 535.46753 281.45286 537.04029 281.51953 538.62695 C 283.21286 538.60029 284.90628 538.58721 286.59961 538.56055 C 286.65294 522.46721 286.8538 506.33357 286.48047 490.24023 z M 272.00391 510.36328 C 272.41786 510.37289 272.84091 510.41919 273.26758 510.50586 C 275.92091 511.39919 278.33422 513.46581 280.57422 515.11914 C 280.53422 519.61247 280.52055 524.10628 280.56055 528.59961 C 278.33388 530.30628 275.93424 532.47911 273.26758 533.42578 C 269.89424 534.33245 266.54758 532.35922 265.26758 529.19922 C 263.49424 524.79922 263.42638 519.13344 265.37305 514.77344 C 266.58638 512.0551 269.1062 510.29602 272.00391 510.36328 z "
     transform="scale(0.74999997)"
     id="path272" />
  <path
     d="M 97.58 369.83 C 97.61 371.57 97.62 373.32 97.59 375.06 C 96.09 374.97 94.62 374.90 93.13 374.67 C 91.97 373.51 92.43 372.08 92.53 370.61 C 94.17 370.21 95.91 370.05 97.58 369.83 Z"
     fill="#ff8205"
     id="path274" />
  <path
     d="M 269.98 370.05 C 270.13 371.77 270.21 373.50 270.27 375.23 C 268.57 375.04 266.89 374.90 265.21 374.55 C 265.00 373.15 265.01 371.73 265.20 370.33 C 266.78 370.08 268.38 370.05 269.98 370.05 Z"
     fill="#ff8205"
     id="path276" />
  <path
     d="M 28.86 372.21 C 30.80 372.82 30.45 375.55 30.99 377.17 C 28.14 376.28 24.97 374.74 21.96 374.81 C 19.63 374.98 17.30 376.42 17.33 379.00 C 17.22 381.79 19.73 382.96 21.81 384.13 C 25.02 385.86 29.54 387.23 31.48 390.50 C 34.17 395.10 31.70 401.16 26.83 403.01 C 22.82 404.66 16.41 404.31 12.57 402.27 C 11.94 400.87 11.77 399.23 11.45 397.74 C 15.75 398.97 20.91 401.64 25.23 399.25 C 27.93 398.00 28.56 393.68 26.25 391.78 C 22.92 389.04 17.26 387.99 14.39 384.58 C 11.08 380.65 12.40 374.23 17.10 372.06 C 20.39 370.51 25.60 370.62 28.86 372.21 Z"
     fill="#ff8205"
     id="path278" />
  <path
     style="fill:#ff8205;stroke-width:1.33333337"
     d="M 233.74023 494.69336 C 232.56023 494.70003 231.37922 494.73411 230.19922 494.80078 C 224.66589 509.22745 219.06622 523.86654 214.21289 538.5332 C 216.22622 538.5732 218.2269 538.61396 220.24023 538.64062 C 221.6669 534.66729 223.05372 530.67969 224.40039 526.67969 C 230.49372 526.66635 236.60003 526.66602 242.69336 526.66602 C 244.09336 530.69268 245.53401 534.70669 247.02734 538.69336 C 249.18734 538.62669 251.33414 538.56013 253.49414 538.4668 C 248.22747 523.85346 243.01263 509.17276 237.2793 494.74609 C 236.0993 494.70609 234.92023 494.68669 233.74023 494.69336 z M 233.43945 500.14648 C 235.94612 507.41315 238.55948 514.62719 241.13281 521.86719 C 236.05281 521.85385 230.97419 521.85385 225.88086 521.86719 C 228.45419 514.64052 231.02612 507.42648 233.43945 500.14648 z "
     transform="scale(0.74999997)"
     id="path280" />
  <path
     d="M 373.03 372.73 C 373.01 374.18 372.99 375.62 372.98 377.06 C 369.83 376.02 365.61 373.89 362.35 375.36 C 359.67 376.36 358.83 380.07 361.08 381.95 C 364.44 384.90 369.71 385.92 372.95 389.04 C 376.63 393.03 375.27 399.96 370.49 402.49 C 366.39 404.66 360.40 404.49 356.15 402.79 C 354.17 402.30 354.39 399.39 353.69 397.82 C 357.63 398.76 362.86 401.17 366.81 399.64 C 369.92 398.58 371.54 394.44 368.93 392.02 C 365.66 389.26 360.86 388.27 357.59 385.37 C 353.64 381.92 354.41 374.57 359.20 372.22 C 363.84 369.92 368.42 371.13 373.03 372.73 Z"
     fill="#738bdb"
     id="path282" />
  <path
     d="M 463.01 371.00 C 466.88 371.00 470.74 371.00 474.61 371.02 C 474.62 371.98 474.64 372.94 474.65 373.90 C 473.24 373.96 471.84 374.02 470.43 374.08 C 470.44 378.06 470.43 382.04 470.40 386.01 C 469.27 386.00 468.14 385.98 467.02 385.96 C 467.00 381.98 467.00 378.01 467.00 374.04 C 465.66 374.01 464.33 373.98 462.99 373.95 C 463.00 372.97 463.01 371.99 463.01 371.00 Z"
     fill="#738bdb"
     id="path284" />
  <path
     d="M 477.42 371.01 C 478.86 370.93 480.34 370.96 481.76 371.23 C 483.72 374.21 484.66 377.95 485.90 381.26 C 487.26 377.84 488.62 374.42 490.02 371.01 C 491.60 371.05 493.18 371.09 494.76 371.14 C 494.86 376.06 494.86 380.99 494.81 385.92 C 493.74 385.96 492.67 386.00 491.60 386.04 C 491.57 382.14 491.57 378.25 491.58 374.35 C 490.23 378.21 488.82 382.06 487.42 385.90 C 486.41 385.93 485.39 385.95 484.38 385.97 C 482.92 381.96 481.48 377.93 480.06 373.90 C 480.01 377.94 480.00 381.97 479.98 386.01 C 479.05 386.00 478.12 385.99 477.19 385.99 C 477.20 381.02 476.85 375.95 477.42 371.01 Z"
     fill="#738bdb"
     id="path286" />
  <path
     style="fill:#ff8205;stroke-width:1.33333337"
     d="M 64.201172 505.18945 C 58.289323 505.2168 52.376042 508.41471 50.359375 514.37305 C 48.412708 521.02638 48.293021 531.50667 54.679688 536 C 61.133021 540.49333 69.534062 538.62622 76.414062 536.21289 C 76.427396 534.50622 76.425781 532.80042 76.425781 531.09375 C 70.985781 532.86708 64.934063 535.60081 59.414062 532.49414 C 56.120729 530.72081 55.852917 526.04078 54.90625 522.80078 C 62.332917 522.40078 69.866901 523.16065 77.240234 522.33398 C 78.906901 518.28065 77.24 511.66763 74 508.6543 C 71.295 506.2993 67.748281 505.17305 64.201172 505.18945 z M 64.574219 509.81055 C 66.117552 509.87721 67.634193 510.26607 68.880859 511.05273 C 70.814193 512.7194 71.652422 515.7724 72.732422 518.03906 C 66.692422 518.2124 60.666953 518.21299 54.626953 517.98633 C 56.000287 515.51966 57.360755 511.66586 60.107422 510.50586 C 61.460755 509.99919 63.030885 509.74388 64.574219 509.81055 z "
     transform="scale(0.74999997)"
     id="path290" />
  <path
     d="M 65.02 379.04 C 66.26 379.02 67.51 379.00 68.76 378.98 C 68.75 380.10 68.74 381.22 68.73 382.35 C 70.66 381.18 72.79 379.59 75.02 379.12 C 77.82 378.68 80.74 379.08 82.75 381.24 C 84.82 383.46 84.92 386.11 85.02 388.98 C 85.07 393.96 85.01 398.95 84.94 403.94 C 83.52 403.94 82.09 403.95 80.67 403.94 C 80.54 398.96 80.75 393.97 80.58 388.98 C 80.44 387.04 80.23 384.76 78.46 383.56 C 75.58 381.37 70.66 384.37 69.60 387.31 C 69.04 392.80 69.55 398.41 69.33 403.93 C 67.90 403.95 66.47 403.96 65.04 403.97 C 64.96 395.66 65.00 387.35 65.02 379.04 Z"
     fill="#ff8205"
     id="path292" />
  <path
     d="M 93.04 379.03 C 94.47 379.04 95.90 379.05 97.33 379.07 C 97.43 387.35 97.43 395.65 97.33 403.93 C 95.90 403.95 94.47 403.96 93.04 403.97 C 92.97 395.66 92.97 387.34 93.04 379.03 Z"
     fill="#ff8205"
     id="path294" />
  <path
     style="fill:#ff8205;stroke-width:1.33333337"
     d="M 153.99023 505.27148 C 152.0918 505.28171 150.2207 505.52526 148.5332 505.93359 C 137.47987 508.82693 135.42654 524.0937 140.5332 532.70703 C 144.2532 538.64036 150.94732 539.33305 157.33398 538.37305 C 163.36065 537.37305 167.86583 532.39911 168.8125 526.42578 C 169.55917 520.57245 169.50724 513.96099 165.25391 509.34766 C 162.47641 506.35932 158.1668 505.249 153.99023 505.27148 z M 154.19531 510.34375 C 157.46262 510.45056 160.53576 512.08672 161.91992 515.38672 C 163.47992 519.62672 163.55971 525.38578 161.37305 529.42578 C 157.75971 535.46578 147.81417 535.02596 145.1875 528.2793 C 143.12083 523.09263 143.70643 513.46615 149.75977 511.13281 C 151.18477 510.56198 152.71017 510.2952 154.19531 510.34375 z "
     transform="scale(0.74999997)"
     id="path296" />
  <path
     d="M 133.44 379.00 C 134.77 379.01 136.11 379.03 137.44 379.04 C 137.34 380.27 137.23 381.49 137.12 382.72 C 138.48 381.57 139.87 380.27 141.44 379.43 C 143.17 378.97 145.08 379.11 146.86 379.05 C 146.93 380.42 147.00 381.80 147.06 383.17 C 145.44 383.13 143.79 383.01 142.17 383.16 C 139.71 384.40 137.73 387.11 137.84 389.94 C 137.65 394.60 137.87 399.28 137.74 403.94 C 136.31 403.96 134.87 403.97 133.43 403.97 C 133.37 395.65 133.36 387.32 133.44 379.00 Z"
     fill="#ff8205"
     id="path298" />
  <path
     d="M 223.02 379.04 C 224.27 379.02 225.51 379.00 226.76 378.98 C 226.75 380.08 226.74 381.18 226.72 382.28 C 229.74 380.43 232.18 378.45 235.98 379.04 C 238.53 379.26 239.97 381.07 241.78 382.65 C 244.70 380.56 247.09 378.47 250.98 379.03 C 254.80 379.40 256.98 382.62 257.42 386.19 C 257.89 392.07 257.53 398.05 257.55 403.95 C 256.12 403.96 254.69 403.96 253.26 403.96 C 253.02 398.33 253.57 392.59 252.93 387.00 C 252.58 384.47 250.70 382.41 247.97 382.82 C 245.99 383.61 244.22 385.26 242.56 386.59 C 242.63 392.36 242.65 398.14 242.54 403.91 C 241.04 403.94 239.55 403.95 238.06 403.96 C 237.93 399.29 238.06 394.62 238.00 389.95 C 237.94 387.84 237.81 385.40 236.24 383.81 C 233.39 381.19 228.67 384.35 227.60 387.31 C 227.03 392.79 227.56 398.41 227.33 403.93 C 225.90 403.95 224.47 403.96 223.04 403.97 C 222.96 395.66 223.00 387.35 223.02 379.04 Z"
     fill="#ff8205"
     id="path300" />
  <path
     d="M 265.58 379.37 C 266.93 379.07 268.32 378.90 269.69 378.70 C 269.89 387.11 269.83 395.54 269.73 403.95 C 268.30 403.96 266.86 403.97 265.43 403.97 C 265.51 395.79 265.10 387.53 265.58 379.37 Z"
     fill="#ff8205"
     id="path302" />
  <path
     d="M 277.65 379.03 C 278.96 379.02 280.27 379.00 281.57 378.99 C 281.55 380.11 281.53 381.23 281.50 382.35 C 284.58 380.41 287.13 378.44 291.02 379.04 C 294.76 379.42 297.26 382.49 297.63 386.12 C 298.08 392.03 297.74 398.03 297.73 403.96 C 296.30 403.96 294.87 403.96 293.44 403.95 C 293.23 398.31 293.76 392.57 293.13 386.98 C 292.76 384.25 290.78 382.52 287.99 382.82 C 285.71 383.36 283.71 385.43 281.97 386.92 C 282.02 392.59 282.04 398.27 281.95 403.94 C 280.51 403.94 279.07 403.95 277.64 403.95 C 277.60 395.65 277.59 387.34 277.65 379.03 Z"
     fill="#ff8205"
     id="path304" />
  <path
     style="fill:#738bdb;stroke-width:1.33333337"
     d="M 521.96094 505.24023 C 519.62914 505.22219 517.31664 505.56148 515.30664 506.14648 C 505.09331 509.66648 503.3725 523.69289 507.8125 532.21289 C 511.4925 538.93289 519.49424 539.55948 526.26758 538.13281 C 532.00091 536.67948 535.66729 531.76008 536.64062 526.08008 C 537.53396 520.29341 536.90714 513.13284 532.48047 508.82617 C 529.7888 506.29284 525.84727 505.27031 521.96094 505.24023 z M 521.93359 510.38672 C 524.89349 510.50781 527.68789 511.92578 529.21289 514.80078 C 531.34622 519.26745 531.36063 525.72094 528.64062 529.96094 C 524.72062 535.4276 515.56026 534.69365 512.93359 528.32031 C 510.80026 523.29365 511.38602 514.51987 516.66602 511.5332 C 518.32102 510.7082 520.15766 510.31406 521.93359 510.38672 z "
     transform="scale(0.74999997)"
     id="path306" />
  <path
     style="fill:#738bdb;stroke-width:1.33333337"
     d="M 559.30469 505.24805 C 557.39336 505.26206 555.50833 505.50625 553.8125 505.90625 C 542.79917 508.74625 540.63984 524.17242 545.83984 532.73242 C 549.71984 539.02576 557.1731 539.45383 563.75977 538.17383 C 569.31977 536.81383 573.29255 532.03979 574.19922 526.45312 C 575.01255 520.67979 574.81362 513.85365 570.62695 509.32031 C 567.84945 506.30448 563.50961 505.21722 559.30469 505.24805 z M 559.51172 510.37891 C 562.73591 510.48024 565.77133 512.08448 567.17383 515.32031 C 568.82716 519.78698 568.98682 526.05409 566.16016 530.10742 C 562.13349 535.53409 552.70714 534.5876 550.48047 527.96094 C 548.4138 522.81427 549.25281 513.45349 555.13281 511.16016 C 556.54115 510.59766 558.04618 510.33285 559.51172 510.37891 z "
     transform="scale(0.74999997)"
     id="path308" />
  <path
     d="M 437.19 379.04 C 438.44 379.02 439.69 379.00 440.93 378.97 C 440.94 380.07 440.94 381.16 440.95 382.26 C 443.93 380.51 446.35 378.60 450.04 378.98 C 453.66 379.19 456.23 381.45 456.93 385.00 C 457.99 391.17 457.30 397.70 457.36 403.94 C 455.91 403.95 454.47 403.96 453.03 403.96 C 452.86 398.43 453.41 392.74 452.66 387.26 C 452.27 384.81 450.68 382.73 448.00 382.79 C 445.63 383.14 443.45 385.33 441.57 386.73 C 441.71 392.46 441.68 398.19 441.62 403.92 C 440.15 403.95 438.68 403.97 437.21 403.99 C 437.12 395.67 437.15 387.36 437.19 379.04 Z"
     fill="#738bdb"
     id="path310" />
  <path
     d="M 314.37 387.47 C 318.49 386.84 322.83 387.25 327.00 387.18 C 331.24 387.25 335.63 386.84 339.83 387.45 C 340.32 388.58 340.77 389.74 341.17 390.91 C 331.85 391.06 322.49 391.07 313.18 390.90 C 313.54 389.74 313.93 388.60 314.37 387.47 Z"
     fill="#abacab"
     id="path322" />
</svg>
