<?xml version="1.0" encoding="UTF-8" standalone="no"?>
<svg
   xmlns:dc="http://purl.org/dc/elements/1.1/"
   xmlns:cc="http://creativecommons.org/ns#"
   xmlns:rdf="http://www.w3.org/1999/02/22-rdf-syntax-ns#"
   xmlns:svg="http://www.w3.org/2000/svg"
   xmlns="http://www.w3.org/2000/svg"
   xmlns:sodipodi="http://sodipodi.sourceforge.net/DTD/sodipodi-0.dtd"
   xmlns:inkscape="http://www.inkscape.org/namespaces/inkscape"
   viewBox="0 0 1017 587"
   height="587.0pt"
   width="1017.0pt"
   version="1.1"
   id="svg5085"
   sodipodi:docname="sig2.svg"
   inkscape:version="0.92.1 r15371">
  <metadata
     id="metadata5091">
    <rdf:RDF>
      <cc:Work
         rdf:about="">
        <dc:format>image/svg+xml</dc:format>
        <dc:type
           rdf:resource="http://purl.org/dc/dcmitype/StillImage" />
        <dc:title></dc:title>
      </cc:Work>
    </rdf:RDF>
  </metadata>
  <defs
     id="defs5089" />
  <sodipodi:namedview
     pagecolor="#ffffff"
     bordercolor="#666666"
     borderopacity="1"
     objecttolerance="10"
     gridtolerance="10"
     guidetolerance="10"
     inkscape:pageopacity="0"
     inkscape:pageshadow="2"
     inkscape:window-width="1920"
     inkscape:window-height="1017"
     id="namedview5087"
     showgrid="false"
     inkscape:zoom="0.83775811"
     inkscape:cx="678"
     inkscape:cy="391.33333"
     inkscape:window-x="1912"
     inkscape:window-y="-8"
     inkscape:window-maximized="1"
     inkscape:current-layer="svg5085" />
  <path
     style="fill:#008100;stroke-width:1.33333337"
     d="M 586.88281 8.2988281 C 583.59615 8.2771615 580.31982 8.8270833 577.14648 10.09375 C 576.71982 23.227084 577.09258 36.41388 576.89258 49.560547 C 572.07924 45.920547 567.59919 42.345807 561.50586 41.119141 C 552.55919 39.692474 542.95919 41.813463 536.50586 48.466797 C 528.55919 56.16013 526.14576 68.053359 525.73242 78.693359 C 525.35909 89.01336 526.85427 101.02602 532.96094 109.66602 C 540.89427 121.42602 559.10714 123.70753 570.48047 115.88086 C 573.82714 113.70753 576.77242 111.07911 579.73242 108.42578 C 579.91909 111.55911 579.8132 114.89427 580.5332 117.96094 C 585.31987 119.57427 591.71945 119.6525 596.43945 117.8125 C 597.09279 114.63917 596.89359 111.22667 596.93359 108 C 596.70693 75.32 597.19969 42.600261 596.67969 9.9335938 C 593.46635 8.9135937 590.16948 8.3204948 586.88281 8.2988281 z M 560.19922 57.591797 C 566.85562 57.500342 573.36094 63.525781 576.58594 68.800781 C 577.2926 72.414115 576.87966 76.32 576.98633 80 C 576.46633 85.266667 578.65255 91.734141 574.19922 95.494141 C 569.77255 100.52081 564.22581 104.6799 557.11914 103.22656 C 551.29247 101.89323 548.1076 95.73237 546.96094 90.345703 C 545.5476 82.545703 545.37336 73.373333 548.69336 66 C 550.57336 61.893333 554.10719 58.026693 558.86719 57.693359 C 559.31135 57.630859 559.75546 57.597894 560.19922 57.591797 z "
     transform="scale(0.74999999)"
     id="path4787" />
  <path
     d="M 21.12 12.21 C 25.36 11.20 30.35 11.18 34.49 12.64 C 35.05 14.37 34.99 16.19 35.03 17.99 C 34.97 31.00 35.02 44.00 34.98 57.01 C 35.04 62.16 35.17 67.35 38.31 71.69 C 42.52 77.60 51.08 78.65 57.54 76.40 C 61.15 75.00 64.00 72.02 65.39 68.42 C 66.81 64.68 66.83 60.94 66.83 57.00 C 66.78 44.00 66.85 30.99 66.79 17.99 C 66.80 16.32 66.81 14.69 67.10 13.03 C 68.67 11.78 71.04 11.70 72.97 11.55 C 75.87 11.48 79.42 11.44 82.02 12.88 C 82.40 15.54 82.28 18.31 82.29 21.00 C 82.20 34.33 82.38 47.67 82.20 60.99 C 82.02 68.68 80.14 76.05 74.61 81.67 C 68.39 88.36 58.81 90.28 50.03 90.29 C 41.55 90.31 32.25 88.16 26.36 81.63 C 21.04 75.93 19.52 68.57 19.38 60.99 C 19.27 46.31 19.39 31.63 19.31 16.95 C 19.52 15.10 18.81 12.86 21.12 12.21 Z"
     fill="#008100"
     id="path4789" />
  <path
     d="M 171.97 17.42 C 174.72 17.41 177.97 17.24 180.38 18.75 C 181.22 22.96 180.74 27.50 180.90 31.79 C 185.12 31.89 189.59 31.41 193.74 32.25 C 195.02 35.74 195.05 40.17 193.65 43.62 C 189.51 44.37 185.11 43.89 180.91 43.99 C 180.90 52.34 180.69 60.69 180.80 69.03 C 180.95 71.63 181.03 74.99 183.48 76.58 C 186.75 78.65 190.68 76.81 194.11 76.15 C 194.47 79.59 195.42 84.45 193.61 87.57 C 191.14 89.66 187.11 90.04 184.01 90.14 C 179.07 90.23 173.77 89.48 170.21 85.72 C 166.51 81.92 165.90 76.05 165.83 71.00 C 165.77 62.03 165.79 53.05 165.83 44.08 C 163.33 44.01 160.71 44.15 158.25 43.67 C 156.64 40.84 156.59 34.93 158.26 32.12 C 160.72 31.62 163.35 31.75 165.85 31.67 C 165.89 27.46 165.55 23.15 166.08 18.98 C 167.41 17.51 170.13 17.56 171.97 17.42 Z"
     fill="#008100"
     id="path4791" />
  <path
     d="M 144.17 36.91 C 148.32 42.30 148.70 49.43 148.67 55.97 C 148.58 66.27 148.84 76.61 148.57 86.90 C 148.63 88.98 145.52 89.09 144.07 89.26 C 140.91 89.35 136.80 89.74 133.99 88.06 C 133.34 80.10 133.89 71.99 133.72 64.00 C 133.55 58.94 134.44 52.49 132.13 47.87 C 130.50 44.43 126.59 42.82 122.95 43.76 C 118.68 44.88 115.72 48.41 112.98 51.64 C 113.03 61.76 112.96 71.88 113.03 82.00 C 113.01 83.92 113.07 85.93 112.72 87.84 C 111.11 89.37 108.10 89.25 106.01 89.36 C 103.59 89.30 100.26 89.50 98.24 87.95 C 97.76 85.03 97.94 81.96 97.92 79.00 C 97.94 65.33 97.95 51.66 97.91 38.00 C 97.93 36.17 97.92 34.21 98.34 32.43 C 102.22 30.83 106.49 31.42 110.48 32.21 C 110.73 34.64 110.90 37.08 111.07 39.51 C 114.74 36.31 117.97 33.15 122.74 31.61 C 130.03 29.25 139.26 30.53 144.17 36.91 Z"
     fill="#008100"
     id="path4793" />
  <path
     d="M 296.30 31.36 C 303.52 29.36 312.27 30.78 317.02 37.01 C 321.11 42.55 321.44 49.37 321.43 55.99 C 321.34 66.82 321.59 77.65 321.29 88.47 C 317.09 89.34 312.34 89.81 308.15 88.78 C 306.32 88.29 306.59 86.59 306.47 85.08 C 306.42 75.39 306.54 65.68 306.47 55.99 C 306.35 52.15 306.10 48.55 303.26 45.68 C 300.85 43.25 297.38 43.12 294.30 44.22 C 290.75 45.69 288.29 48.75 285.75 51.50 C 285.73 63.00 285.82 74.53 285.71 86.03 C 285.92 88.96 283.25 88.98 281.07 89.26 C 277.89 89.37 273.80 89.71 270.96 88.05 C 270.33 82.10 270.85 75.99 270.69 70.00 C 270.83 57.65 270.41 45.20 270.89 32.88 C 274.09 30.49 279.68 31.51 283.32 32.33 C 283.51 34.75 283.64 37.18 283.73 39.61 C 287.66 36.17 291.11 32.81 296.30 31.36 Z"
     fill="#008100"
     id="path4795" />
  <path
     style="fill:#008100;stroke-width:1.33333337"
     d="M 479.43164 40.691406 C 470.51999 40.81043 461.65 43.555859 455.1875 49.880859 C 447.17417 57.440859 444.54701 68.040364 444.01367 78.707031 C 443.57367 89.267031 445.05307 100.9457 452.06641 109.3457 C 458.33307 116.87904 467.85398 119.67956 477.33398 120.21289 C 486.17398 120.59956 495.35917 119.81341 503.8125 117.08008 C 505.86583 116.26674 508.73279 115.53383 509.43945 113.17383 C 510.51945 109.22716 510.21346 104.78583 509.4668 100.8125 C 506.4668 100.3325 503.10589 101.90576 500.19922 102.73242 C 493.29255 105.07909 486.0131 105.97367 478.75977 105.01367 C 474.42643 104.30701 470.39943 102.49385 467.74609 98.867188 C 464.91943 95.107187 464.59924 90.212422 463.89258 85.732422 C 477.27924 85.519089 490.66573 85.707292 504.03906 85.640625 C 506.22573 85.520625 509.09333 85.694141 511 84.494141 C 512.82667 83.160807 513.14698 80.85276 513.32031 78.746094 C 513.66698 71.106094 512.74724 63.025807 509.25391 56.119141 C 505.61391 49.159141 499.06672 43.866406 491.38672 42.066406 C 487.54089 41.12474 483.48239 40.637305 479.43164 40.691406 z M 479.41406 54.751953 C 483.85723 54.66875 488.33 56.334922 490.8125 59.919922 C 493.5725 63.373255 493.6669 68.333542 494.24023 72.546875 C 484.16023 72.653542 474.09367 72.613542 464.01367 72.546875 C 464.97367 67.026875 465.6394 61.999063 470.05273 58.039062 C 472.52023 55.939062 475.95827 54.816667 479.41406 54.751953 z "
     transform="scale(0.74999999)"
     id="path4797" />
  <path
     d="M 219.67 32.50 C 220.51 38.56 219.85 44.88 220.05 51.00 C 220.24 57.43 219.52 64.18 220.68 70.52 C 221.58 74.55 224.74 77.46 229.00 77.25 C 234.30 77.08 237.52 72.66 240.89 69.19 C 240.88 58.79 240.92 48.40 240.85 38.00 C 240.90 36.20 240.77 34.11 241.43 32.42 C 245.85 30.82 251.17 31.30 255.66 32.42 C 256.08 45.93 255.73 59.48 255.84 73.00 C 255.72 77.90 256.15 82.91 255.61 87.78 C 252.90 90.27 246.76 89.51 243.48 88.45 C 242.86 86.11 243.02 83.52 242.88 81.11 C 239.35 84.46 235.79 87.45 231.16 89.16 C 223.74 91.57 214.21 90.28 209.38 83.57 C 204.64 77.02 205.13 68.68 205.09 61.00 C 205.25 51.49 204.80 41.93 205.32 32.44 C 209.87 31.17 215.18 30.86 219.67 32.50 Z"
     fill="#008100"
     id="path4799" />
  <path
     d="M 339.50 119.47 C 341.54 119.07 343.66 118.97 345.73 118.81 C 345.84 125.99 345.85 133.17 345.73 140.35 C 348.27 138.52 351.13 136.16 354.19 135.35 C 358.77 134.32 363.87 135.22 366.94 139.01 C 369.91 142.71 369.92 147.48 370.04 151.99 C 370.03 159.29 370.01 166.58 369.94 173.88 C 367.77 173.88 365.61 173.88 363.44 173.87 C 363.15 165.57 363.73 157.21 363.19 148.93 C 362.87 145.07 361.32 141.28 357.05 140.65 C 352.95 140.00 347.38 144.20 346.13 148.01 C 345.22 156.54 346.14 165.31 345.73 173.91 C 343.57 173.90 341.41 173.89 339.25 173.86 C 339.10 158.24 339.30 142.62 339.13 127.00 C 339.14 124.51 339.10 121.93 339.50 119.47 Z"
     fill="#aaabaa"
     id="path4805" />
  <path
     d="M 17.74 123.08 C 20.03 123.09 22.31 123.12 24.59 123.15 C 24.64 140.09 24.67 157.03 24.58 173.96 C 22.25 173.88 19.91 173.79 17.58 173.67 C 17.70 156.81 17.41 139.94 17.74 123.08 Z"
     fill="#aaabaa"
     id="path4807" />
  <path
     d="M 148.88 126.29 C 149.51 129.42 149.44 132.81 149.55 135.99 C 152.85 135.99 156.15 136.01 159.45 136.04 C 159.46 137.81 159.46 139.58 159.45 141.36 C 156.09 141.39 152.74 141.40 149.38 141.40 C 149.52 148.62 149.21 155.85 149.42 163.07 C 149.59 165.11 149.75 168.31 152.08 169.09 C 154.68 169.37 157.42 168.84 160.01 168.61 C 159.73 170.17 159.51 171.79 159.04 173.30 C 157.92 174.67 155.67 174.90 154.04 175.03 C 150.72 175.17 147.21 174.76 144.95 172.05 C 142.79 169.39 142.52 165.31 142.38 162.03 C 142.25 155.33 142.44 148.63 142.38 141.92 C 140.52 141.51 138.56 141.33 136.76 140.72 C 136.36 139.25 136.14 137.73 135.88 136.21 C 138.03 136.10 140.18 136.00 142.33 135.91 C 142.34 132.67 142.32 129.39 142.55 126.18 C 144.67 126.06 146.77 126.04 148.88 126.29 Z"
     fill="#aaabaa"
     id="path4809" />
  <path
     d="M 319.88 126.29 C 320.51 129.42 320.44 132.81 320.55 135.99 C 323.85 135.99 327.15 136.01 330.45 136.04 C 330.46 137.81 330.46 139.58 330.45 141.36 C 327.09 141.39 323.74 141.40 320.38 141.40 C 320.52 148.62 320.21 155.85 320.42 163.07 C 320.59 165.12 320.75 168.31 323.08 169.09 C 325.68 169.37 328.42 168.84 331.01 168.61 C 330.73 170.17 330.51 171.79 330.04 173.30 C 328.92 174.67 326.67 174.90 325.04 175.03 C 321.72 175.17 318.21 174.76 315.95 172.05 C 313.79 169.39 313.52 165.31 313.38 162.03 C 313.25 155.33 313.44 148.63 313.38 141.92 C 311.52 141.51 309.56 141.33 307.76 140.72 C 307.36 139.25 307.14 137.73 306.88 136.21 C 309.03 136.10 311.18 136.00 313.33 135.91 C 313.34 132.67 313.32 129.39 313.55 126.17 C 315.67 126.06 317.77 126.04 319.88 126.29 Z"
     fill="#aaabaa"
     id="path4811" />
  <path
     d="M 442.33 126.44 C 444.39 126.11 446.57 126.04 448.66 125.96 C 448.76 129.29 448.81 132.63 448.85 135.96 C 452.20 135.99 455.55 136.03 458.90 136.10 C 458.91 137.82 458.92 139.54 458.92 141.27 C 455.55 141.35 452.17 141.41 448.80 141.46 C 448.87 147.97 448.71 154.49 448.75 161.01 C 448.91 163.74 448.77 167.12 451.09 169.04 C 453.84 169.41 456.79 168.89 459.54 168.64 C 458.75 170.69 459.37 174.07 456.61 174.50 C 452.88 175.51 447.50 175.40 444.70 172.31 C 442.15 169.58 442.16 165.51 441.99 162.01 C 441.91 155.16 442.05 148.30 442.00 141.45 C 439.95 141.40 437.91 141.34 435.86 141.28 C 435.84 139.56 435.83 137.84 435.84 136.12 C 437.87 136.06 439.89 136.01 441.92 135.95 C 441.95 132.81 441.83 129.55 442.33 126.44 Z"
     fill="#aaabaa"
     id="path4813" />
  <path
     d="M 112.49 135.61 C 117.17 134.17 122.83 134.97 126.09 138.91 C 128.90 142.24 129.15 146.82 129.38 150.98 C 129.52 158.74 129.42 166.51 129.25 174.27 C 127.19 174.08 125.07 173.94 123.05 173.55 C 121.58 164.61 123.73 154.98 121.92 146.11 C 120.98 141.93 117.23 139.67 113.08 140.95 C 109.56 142.24 104.97 145.78 105.05 149.92 C 104.74 157.91 105.20 165.92 104.92 173.92 C 102.75 173.90 100.59 173.87 98.43 173.82 C 98.34 161.29 98.33 148.74 98.43 136.21 C 100.44 136.11 102.44 136.02 104.44 135.93 C 104.48 137.73 104.52 139.52 104.54 141.31 C 106.87 139.23 109.50 136.67 112.49 135.61 Z"
     fill="#aaabaa"
     id="path4815" />
  <path
     d="M 225.35 135.43 C 229.57 134.34 234.59 135.00 237.73 138.27 C 241.01 141.56 241.48 146.57 241.63 150.97 C 241.72 158.58 241.60 166.21 241.57 173.82 C 239.41 173.87 237.24 173.90 235.08 173.92 C 234.84 166.28 235.23 158.62 234.90 150.98 C 234.62 147.50 234.18 143.10 230.69 141.30 C 226.00 138.84 219.67 143.28 217.79 147.57 C 216.44 156.04 218.38 165.05 216.95 173.55 C 214.93 173.94 212.80 174.08 210.75 174.27 C 210.44 164.84 210.71 155.43 210.53 146.00 C 210.55 142.88 210.43 139.53 211.05 136.46 C 212.93 136.10 214.79 135.95 216.70 135.76 C 216.72 137.55 216.74 139.34 216.76 141.13 C 219.30 139.05 222.16 136.39 225.35 135.43 Z"
     fill="#aaabaa"
     id="path4817" />
  <path
     style="fill:#aaabaa;stroke-width:1.33333337"
     d="M 357.55078 179.89258 C 351.74492 179.93919 345.89766 181.87266 341.97266 185.97266 C 336.97266 191.10599 334.99984 198.27964 334.83984 205.29297 C 334.65318 212.35964 335.44078 219.67953 339.80078 225.51953 C 343.68078 230.61286 349.6806 232.97331 355.94727 233.30664 C 361.93393 233.58664 368.71974 232.95974 374.06641 230.06641 C 377.11974 228.66641 376.37375 224.66591 377.09375 221.89258 C 370.12042 224.03924 363.41292 227.14625 355.90625 225.90625 C 351.78625 225.26625 348.07938 222.97307 346.35938 219.06641 C 344.93271 215.61307 344.34628 211.70573 343.59961 208.03906 C 353.54628 207.8124 363.49245 208.27932 373.42578 207.97266 C 375.62578 207.73266 378.04013 207.99956 378.4668 205.21289 C 379.5468 196.18622 376.38654 185.78711 367.5332 181.78711 C 364.5032 180.51711 361.0343 179.86461 357.55078 179.89258 z M 357.38867 186.71094 C 360.90367 186.67927 364.41336 187.97969 366.69336 190.67969 C 368.86669 193.53302 369.37263 197.8399 370.2793 201.22656 C 361.37263 201.38656 352.45354 201.3463 343.54688 201.29297 C 344.77354 197.81297 345.7594 193.65242 348.05273 190.73242 C 350.35273 188.10576 353.87367 186.7426 357.38867 186.71094 z "
     transform="scale(0.74999999)"
     id="path4819" />
  <path
     style="fill:#aaabaa;stroke-width:1.33333337"
     d="M 529.69922 179.91016 C 523.82467 179.76947 517.83219 181.50435 513.67969 185.66602 C 507.99969 191.15935 506.20008 199.00096 506.08008 206.6543 C 506.08008 212.9343 507.12086 219.97417 510.88086 225.1875 C 514.53419 230.29417 520.47995 232.81391 526.61328 233.25391 C 532.74661 233.69391 539.42734 232.98664 545.02734 230.30664 C 548.66734 229.14664 547.44068 224.86625 548.02734 221.90625 C 541.88068 223.93292 535.90596 226.59982 529.2793 226.14648 C 524.8793 225.85315 520.70698 224.22732 518.32031 220.33398 C 516.26698 216.77398 515.8 212.06674 515 208.08008 C 526.25333 207.52008 537.83966 208.92039 548.98633 207.40039 C 551.02633 203.70706 550.01341 198.58635 549.08008 194.67969 C 547.56008 188.51969 543.57313 183.30622 537.45312 181.21289 C 535.01562 180.42539 532.36947 179.9741 529.69922 179.91016 z M 528.72266 186.71094 C 532.40266 186.68094 536.08732 188.10734 538.33398 191.02734 C 540.21398 193.90734 540.6938 197.89255 541.48047 201.19922 C 532.60047 201.39922 523.71984 201.39922 514.83984 201.19922 C 516.02651 197.89255 517.02615 193.99948 519.13281 191.13281 C 521.36615 188.22615 525.04266 186.74094 528.72266 186.71094 z "
     transform="scale(0.74999999)"
     id="path4821" />
  <path
     d="M 524.46 135.54 C 529.17 134.22 534.72 135.03 537.94 139.01 C 540.86 142.65 540.96 147.55 541.04 152.00 C 541.03 159.29 541.01 166.58 540.94 173.88 C 538.77 173.88 536.61 173.88 534.44 173.87 C 534.15 165.57 534.73 157.22 534.19 148.93 C 533.87 145.08 532.32 141.28 528.05 140.65 C 523.95 140.00 518.38 144.20 517.13 148.01 C 516.22 156.54 517.14 165.31 516.73 173.91 C 514.57 173.90 512.41 173.89 510.25 173.86 C 510.18 161.16 510.12 148.45 510.29 135.75 C 512.11 135.94 513.97 136.10 515.76 136.47 C 516.18 137.97 516.40 139.54 516.67 141.08 C 518.96 138.95 521.42 136.51 524.46 135.54 Z"
     fill="#aaabaa"
     id="path4823" />
  <path
     style="fill:#aaabaa;stroke-width:1.33333337"
     d="M 757.69922 179.91016 C 751.82467 179.76947 745.83219 181.50435 741.67969 185.66602 C 735.99969 191.15935 734.20008 199.00096 734.08008 206.6543 C 734.08008 212.9343 735.12086 219.97417 738.88086 225.1875 C 742.53419 230.29417 748.47995 232.81391 754.61328 233.25391 C 760.74661 233.69391 767.42734 232.98664 773.02734 230.30664 C 776.66734 229.14664 775.44068 224.86625 776.02734 221.90625 C 769.88068 223.93292 763.90596 226.59982 757.2793 226.14648 C 752.8793 225.85315 748.70698 224.22732 746.32031 220.33398 C 744.26698 216.77398 743.8 212.06674 743 208.08008 C 754.25333 207.52008 765.83966 208.92039 776.98633 207.40039 C 779.03966 203.72039 778.01341 198.57302 777.08008 194.67969 C 775.56008 188.51969 771.57313 183.30622 765.45312 181.21289 C 763.01562 180.42539 760.36947 179.9741 757.69922 179.91016 z M 756.72266 186.71094 C 760.40266 186.68094 764.08732 188.10734 766.33398 191.02734 C 768.21398 193.90734 768.6938 197.89255 769.48047 201.19922 C 760.60047 201.39922 751.71984 201.39922 742.83984 201.19922 C 744.02651 197.89255 745.02615 193.99948 747.13281 191.13281 C 749.36615 188.22615 753.04266 186.74094 756.72266 186.71094 z "
     transform="scale(0.74999999)"
     id="path4825" />
  <path
     d="M 606.98 135.16 C 609.09 135.48 611.61 136.22 613.09 137.83 C 613.78 139.52 613.85 141.51 614.16 143.29 C 610.12 141.83 604.97 138.69 600.69 140.72 C 597.50 142.06 596.47 146.48 599.17 148.84 C 603.00 151.96 608.98 152.85 612.75 156.25 C 617.47 160.35 616.39 168.92 611.42 172.38 C 607.66 175.10 602.47 175.41 598.03 174.74 C 595.48 174.29 592.47 173.24 590.77 171.19 C 590.30 169.54 590.35 167.67 590.38 165.97 C 595.17 167.38 599.80 170.84 605.02 169.23 C 608.62 168.41 610.65 163.85 608.04 160.94 C 604.23 157.29 597.15 156.58 593.53 152.50 C 590.09 148.51 590.53 141.93 594.36 138.35 C 597.73 135.15 602.54 134.60 606.98 135.16 Z"
     fill="#aaabaa"
     id="path4827" />
  <path
     d="M 61.90 136.26 C 63.31 144.86 61.65 153.92 62.65 162.58 C 63.07 165.34 64.28 168.02 67.08 169.02 C 70.03 170.05 72.76 168.95 75.08 167.12 C 77.31 165.27 79.47 163.13 79.55 160.04 C 80.12 152.19 78.82 143.95 80.06 136.18 C 82.10 135.93 83.91 135.93 85.95 136.18 C 86.92 142.33 86.26 148.79 86.39 155.00 C 86.25 161.12 86.94 167.50 85.95 173.54 C 84.08 173.89 82.22 174.03 80.33 174.21 C 80.29 172.44 80.26 170.67 80.24 168.90 C 77.70 170.99 74.85 173.63 71.65 174.57 C 66.83 175.76 61.42 174.83 58.36 170.61 C 55.46 166.68 55.43 160.69 55.35 156.00 C 55.41 149.39 55.17 142.76 55.55 136.16 C 57.68 136.03 59.78 136.01 61.90 136.26 Z"
     fill="#aaabaa"
     id="path4829" />
  <path
     d="M 168.34 136.42 C 170.42 136.08 172.59 136.02 174.69 135.91 C 175.10 144.60 174.37 153.36 175.02 162.02 C 175.43 166.36 178.29 170.05 183.04 169.33 C 187.45 168.33 192.35 163.89 192.18 159.06 C 192.41 151.42 192.03 143.76 192.26 136.10 C 194.42 136.10 196.58 136.10 198.74 136.10 C 198.85 148.69 198.84 161.28 198.75 173.87 C 196.78 173.90 194.81 173.92 192.85 173.94 C 192.77 172.25 192.70 170.56 192.63 168.86 C 190.24 170.91 187.56 173.46 184.54 174.46 C 179.57 175.85 173.74 174.87 170.66 170.38 C 167.71 166.14 168.07 159.95 167.97 155.00 C 168.14 148.84 167.54 142.53 168.34 136.42 Z"
     fill="#aaabaa"
     id="path4831" />
  <path
     d="M 473.90 136.26 C 475.31 144.86 473.65 153.92 474.65 162.58 C 475.07 165.34 476.28 168.02 479.08 169.02 C 482.03 170.05 484.76 168.95 487.08 167.12 C 489.31 165.27 491.47 163.13 491.55 160.04 C 492.12 152.19 490.83 143.95 492.06 136.18 C 494.10 135.93 495.91 135.93 497.95 136.18 C 498.92 142.32 498.26 148.79 498.39 155.00 C 498.24 161.12 498.95 167.50 497.95 173.54 C 496.08 173.89 494.22 174.04 492.33 174.21 C 492.29 172.44 492.26 170.67 492.24 168.90 C 489.70 170.99 486.85 173.63 483.65 174.57 C 478.83 175.76 473.42 174.83 470.36 170.61 C 467.46 166.68 467.43 160.69 467.35 156.00 C 467.41 149.39 467.17 142.76 467.55 136.16 C 469.68 136.03 471.78 136.01 473.90 136.26 Z"
     fill="#aaabaa"
     id="path4833" />
  <path
     d="M 626.38 165.41 C 628.33 164.73 630.61 164.91 632.56 165.51 C 634.10 167.80 633.22 171.38 633.05 173.99 C 630.95 173.66 626.74 174.56 625.43 172.59 C 624.75 170.62 624.41 166.75 626.38 165.41 Z"
     fill="#aaabaa"
     id="path4841" />
  <path
     style="fill:#04dfd7;stroke-width:1.33333337"
     d="M 348.67969 355.8125 C 348.35969 364.0125 348.38628 372.2274 348.59961 380.41406 C 345.97294 378.41406 343.0001 375.86701 339.77344 375.01367 C 334.2401 373.92034 328.41398 374.86633 324.33398 378.98633 C 319.36065 383.83966 317.86651 392.01336 317.83984 398.69336 C 317.95984 404.70669 319.18664 412.0537 323.30664 416.70703 C 327.47997 421.30703 333.86635 422.22677 339.67969 420.77344 C 343.43969 419.65344 346.64062 416.60049 349.64062 414.17383 L 349.64062 419.96094 C 351.93396 419.9476 354.21414 419.90719 356.49414 419.86719 C 356.62747 398.70719 356.61253 377.53339 356.50586 356.38672 C 353.89253 356.17339 351.27969 355.98583 348.67969 355.8125 z M 336.75781 381.34961 C 337.2662 381.36615 337.77964 381.43922 338.29297 381.57422 C 342.29297 382.46755 345.61286 386.10583 348.51953 388.8125 C 348.45286 394.8125 348.43987 400.8125 348.5332 406.8125 C 345.06654 410.15917 341.37315 414.61302 336.14648 414.67969 C 330.90648 414.30635 327.85385 410.04023 326.86719 405.24023 C 325.73385 399.40023 325.61398 392.42633 328.33398 386.98633 C 329.87398 383.85966 333.19911 381.23385 336.75781 381.34961 z "
     transform="scale(0.74999999)"
     id="path4843" />
  <path
     d="M 515.70 267.53 C 517.54 267.09 519.46 266.92 521.33 266.67 C 521.46 282.76 521.43 298.86 521.35 314.95 C 519.38 314.92 517.41 314.88 515.44 314.83 C 515.27 301.56 515.48 288.28 515.31 275.00 C 515.32 272.53 515.27 269.97 515.70 267.53 Z"
     fill="#aaabaa"
     id="path4845" />
  <path
     d="M 26.95 268.99 C 30.61 268.83 35.22 269.38 38.11 271.85 C 38.66 273.60 38.61 275.56 38.84 277.37 C 34.46 275.97 29.32 272.68 24.72 274.65 C 20.82 275.88 19.53 280.93 21.96 284.05 C 24.39 287.16 29.09 288.70 32.51 290.54 C 36.04 292.33 39.75 295.13 40.74 299.17 C 41.31 302.29 41.25 305.95 39.76 308.83 C 37.61 312.82 33.48 315.35 29.00 315.85 C 24.34 316.40 18.81 315.86 14.88 313.07 C 12.57 311.57 13.50 309.09 13.66 306.79 C 17.47 308.17 20.92 310.53 25.04 310.95 C 27.66 311.13 30.64 310.40 32.60 308.57 C 34.63 306.61 35.00 303.57 34.30 300.94 C 33.26 298.15 30.18 296.60 27.68 295.34 C 23.47 293.27 19.15 291.65 16.39 287.61 C 13.42 283.26 13.81 277.16 17.17 273.14 C 19.69 270.34 23.26 269.13 26.95 268.99 Z"
     fill="#04dfd7"
     id="path4847" />
  <path
     d="M 339.52 269.42 C 341.56 270.19 341.05 273.00 340.69 274.68 C 339.72 276.52 336.23 275.74 334.44 276.03 C 334.13 274.78 333.83 273.53 333.54 272.27 C 334.53 268.92 336.38 268.73 339.52 269.42 Z"
     fill="#04dfd7"
     id="path4849" />
  <path
     d="M 595.81 269.36 C 599.76 270.17 603.05 272.84 604.23 276.75 C 605.82 282.45 604.23 288.18 601.01 292.98 C 596.83 299.19 591.10 304.46 586.09 310.00 C 592.97 309.99 599.82 309.96 606.70 310.09 C 606.71 311.70 606.71 313.30 606.70 314.91 C 597.22 315.03 587.73 315.11 578.26 314.86 C 578.86 312.26 578.95 309.91 580.77 307.81 C 586.11 301.42 594.26 294.97 597.09 286.93 C 598.59 282.79 598.58 277.23 594.19 274.88 C 589.33 272.26 583.67 276.50 579.29 278.44 C 579.60 276.59 579.15 273.22 581.02 272.13 C 585.19 269.19 590.88 268.39 595.81 269.36 Z"
     fill="#aaabaa"
     id="path4851" />
  <path
     d="M 701.80 269.41 C 705.45 270.23 708.50 272.62 709.78 276.20 C 711.91 282.06 709.84 288.50 706.46 293.45 C 702.31 299.45 696.70 304.53 691.85 309.99 C 698.72 310.01 705.58 309.97 712.44 310.04 C 712.45 311.68 712.45 313.32 712.44 314.96 C 703.03 315.04 693.61 314.99 684.19 314.99 C 684.57 312.48 684.44 310.26 686.18 308.21 C 691.45 301.83 699.53 295.45 702.63 287.53 C 704.23 283.10 704.50 276.66 699.29 274.59 C 694.83 272.57 689.00 276.71 684.91 278.39 C 685.37 276.47 685.01 273.14 686.97 272.00 C 691.15 269.11 696.89 268.39 701.80 269.41 Z"
     fill="#aaabaa"
     id="path4853" />
  <path
     style="fill:#aaabaa;stroke-width:1.33333337"
     d="M 979.95117 358.59375 C 978.26596 358.60146 976.58427 358.75701 974.96094 359.01367 C 968.93427 360.10701 964.34659 364.40086 961.91992 369.88086 C 958.59992 377.33419 958.46635 386.63935 958.67969 394.66602 C 958.97302 401.89268 959.94641 410.68057 965.06641 416.25391 C 969.79974 421.45391 977.29284 422.0276 983.82617 420.96094 C 989.43951 419.93427 993.86732 416.07906 996.33398 411.03906 C 1000.1607 403.46573 1000.2 393.62732 1000 385.33398 C 999.73333 378.06732 998.73294 369.35909 993.59961 363.73242 C 990.07961 359.87242 985.0068 358.57062 979.95117 358.59375 z M 979.25 365.34961 C 982.94141 365.27724 986.53372 366.84122 988.40039 370.21289 C 991.40039 375.77289 991.64086 383.17237 991.88086 389.3457 C 991.80086 395.87904 991.59964 403.81396 988.29297 409.64062 C 984.9063 415.50729 975.85339 416.40031 971.38672 411.32031 C 968.36005 407.68031 967.60083 401.96005 967.1875 397.38672 C 966.61417 389.69339 966.51977 381.38727 968.75977 373.94727 C 970.10643 369.65393 973.05268 366.20047 977.66602 365.48047 C 978.19268 365.4038 978.72266 365.35995 979.25 365.34961 z "
     transform="scale(0.74999999)"
     id="path4855" />
  <path
     style="fill:#04dfd7;stroke-width:1.33333337"
     d="M 291.11914 359.94727 C 288.05247 360.0006 284.85284 359.87945 281.82617 360.43945 C 280.19951 362.99945 279.25255 366.06591 278.19922 368.89258 C 272.26589 385.86591 265.77401 402.65336 260.02734 419.69336 C 262.78734 419.82669 265.54698 419.93333 268.32031 420 C 270.21365 414.69333 271.99943 409.36 273.74609 404 L 298.41406 404 C 300.25406 409.13333 301.55971 414.85354 304.37305 419.54688 C 307.03971 420.05354 309.84021 420.08091 312.54688 420.26758 C 310.72021 412.78758 307.8793 405.88096 305.2793 398.6543 C 300.5193 385.7743 296.02581 372.77393 291.11914 359.94727 z M 286 368.1875 C 289.26667 378.0275 292.82724 387.77388 296.25391 397.56055 L 275.89258 397.56055 C 279.15924 387.73388 282.72 378.01417 286 368.1875 z "
     transform="scale(0.74999999)"
     id="path4857" />
  <path
     d="M 461.32 270.48 C 463.14 270.11 465.04 269.95 466.89 269.76 C 467.12 280.50 466.92 291.25 467.06 302.00 C 466.97 305.46 467.16 310.03 464.89 312.89 C 462.27 316.40 456.45 316.67 452.67 315.30 C 450.02 314.53 450.65 311.03 449.98 308.88 C 452.47 309.65 455.14 310.81 457.76 310.90 C 460.61 310.19 460.60 307.46 460.92 305.07 C 461.45 293.59 460.38 281.92 461.32 270.48 Z"
     fill="#aaabaa"
     id="path4859" />
  <path
     d="M 614.78 270.35 C 617.45 269.85 620.29 269.95 623.00 269.94 C 629.94 270.05 636.88 269.91 643.82 270.12 C 643.27 273.59 642.60 276.98 641.14 280.19 C 636.79 289.89 632.59 299.66 628.48 309.46 C 627.70 311.18 626.91 313.10 625.66 314.54 C 623.62 315.00 621.47 315.05 619.40 315.22 C 624.67 301.60 631.16 288.44 636.91 275.01 C 629.22 274.97 621.50 275.12 613.81 274.84 C 614.10 273.35 614.37 271.81 614.78 270.35 Z"
     fill="#aaabaa"
     id="path4861" />
  <path
     d="M 774.88 269.51 C 775.15 283.00 774.94 296.49 775.00 309.97 C 778.11 310.00 781.21 310.02 784.32 310.07 C 784.33 311.69 784.33 313.32 784.32 314.94 C 775.73 315.04 767.15 315.02 758.56 314.96 C 758.56 313.32 758.55 311.69 758.56 310.05 C 762.04 310.01 765.52 310.00 769.00 309.98 C 769.00 298.80 769.00 287.61 769.00 276.42 C 765.36 278.53 761.71 280.62 757.90 282.40 C 758.36 280.73 758.11 277.91 759.63 276.78 C 764.07 273.07 769.05 270.25 774.88 269.51 Z"
     fill="#aaabaa"
     id="path4863" />
  <path
     d="M 792.26 270.33 C 801.85 269.52 811.68 270.13 821.32 270.14 C 820.72 274.25 819.71 278.12 817.90 281.88 C 812.95 292.84 808.35 303.95 803.49 314.95 C 801.29 314.90 799.08 314.83 796.88 314.75 C 802.53 301.42 808.59 288.25 814.43 275.00 C 806.73 274.97 799.02 275.10 791.33 274.88 C 791.60 273.37 791.85 271.81 792.26 270.33 Z"
     fill="#aaabaa"
     id="path4865" />
  <path
     style="fill:#04dfd7;stroke-width:1.33333337"
     d="M 137.77344 374.61719 C 135.91461 374.54695 134.03758 374.75148 132.26758 375.14648 C 128.37424 376.22648 124.86643 379.37419 121.75977 381.88086 C 121.8131 379.93419 121.83984 377.9994 121.83984 376.05273 C 119.55984 376.06607 117.27966 376.08076 114.98633 376.10742 C 114.83966 396.44076 114.82633 416.84049 114.98633 437.17383 C 117.50633 437.22716 120.02687 437.26596 122.54688 437.2793 C 122.74688 430.0393 122.68063 422.77286 122.64062 415.51953 C 126.45396 418.29286 129.58695 421.35971 134.62695 421.37305 C 140.05362 421.73305 145.2526 419.67997 148.58594 415.30664 C 153.38594 409.07997 153.7069 400.81263 153.24023 393.2793 C 152.77357 387.33263 151.10664 381.54602 146.30664 377.66602 C 143.91497 375.61602 140.87148 374.73424 137.77344 374.61719 z M 134.95312 381.36523 C 138.25945 381.28394 141.45174 383.31805 142.89258 386.37305 C 145.98591 393.14638 146.14615 401.67919 143.13281 408.50586 C 141.47948 412.26586 137.70747 415.11919 133.49414 414.50586 C 129.06747 413.69253 125.74763 409.61362 122.6543 406.62695 C 122.78763 401.08029 122.15914 395.25411 123.11914 389.80078 C 124.91914 386.24078 128.86602 382.93344 132.66602 381.77344 C 133.42102 381.51594 134.19013 381.38399 134.95312 381.36523 z "
     transform="scale(0.74999999)"
     id="path4871" />
  <path
     style="fill:#04dfd7;stroke-width:1.33333337"
     d="M 181.85352 374.48438 C 175.05307 374.56731 168.17914 377.80078 165.11914 383.80078 C 161.25247 390.94745 160.87932 400.05411 162.97266 407.80078 C 164.58599 413.97411 169.14604 418.88021 175.35938 420.54688 C 183.21271 422.41354 190.81339 421.02609 198.38672 418.74609 C 198.37339 416.50609 198.33263 414.25367 198.2793 412.01367 C 191.34596 413.86701 182.93409 416.8799 176.10742 413.22656 C 171.01409 410.30656 170.81268 405.29281 169.66602 400.13281 C 179.87935 399.78615 190.09263 400.30576 200.2793 399.73242 C 200.38596 392.69242 200.54643 385.89417 195.75977 380.1875 C 192.3881 376.26167 187.14275 374.41987 181.85352 374.48438 z M 181.66211 380.77344 C 184.27002 380.72969 186.88161 381.5349 188.80078 383.22656 C 191.45411 385.7199 192.12042 390.39943 193.09375 393.74609 C 185.22708 393.82609 177.36081 393.8407 169.49414 393.7207 C 170.52081 390.8807 171.38708 387.58674 173.09375 385.08008 C 174.96125 382.29008 178.30908 380.82969 181.66211 380.77344 z "
     transform="scale(0.74999999)"
     id="path4873" />
  <path
     d="M 169.54 281.56 C 171.74 280.75 174.49 281.21 176.81 281.24 C 176.91 283.08 176.99 284.92 177.07 286.77 C 174.61 286.63 171.32 285.42 169.31 287.28 C 166.92 289.38 164.59 292.58 164.68 295.90 C 164.49 302.29 164.78 308.69 164.58 315.08 C 162.59 314.98 160.61 314.88 158.63 314.74 C 158.57 303.86 158.45 292.95 158.70 282.07 C 160.43 282.06 162.17 282.06 163.91 282.07 C 163.95 283.68 163.97 285.30 163.99 286.91 C 165.64 285.06 167.36 282.79 169.54 281.56 Z"
     fill="#04dfd7"
     id="path4875" />
  <path
     d="M 294.00 280.97 C 298.42 280.87 300.70 283.60 303.22 286.74 C 305.53 284.75 308.18 282.09 311.16 281.26 C 314.75 280.54 318.63 281.01 321.23 283.81 C 324.13 286.81 324.38 291.05 324.46 295.00 C 324.45 301.65 324.45 308.31 324.36 314.97 C 322.38 314.94 320.41 314.91 318.43 314.85 C 318.27 308.57 318.39 302.28 318.39 296.00 C 318.33 293.64 318.39 290.90 317.24 288.78 C 316.04 286.50 312.85 285.32 310.52 286.51 C 308.01 287.68 305.95 290.13 303.98 292.06 C 303.99 299.70 304.07 307.34 303.92 314.98 C 302.03 314.96 300.14 314.92 298.24 314.87 C 298.00 307.56 298.42 300.23 298.07 292.93 C 297.79 289.31 296.03 286.07 292.01 285.99 C 288.72 286.38 286.02 289.71 283.79 291.91 C 283.84 299.59 283.89 307.28 283.74 314.96 C 281.85 314.95 279.96 314.92 278.08 314.88 C 277.95 303.96 277.95 292.99 278.08 282.08 C 279.82 282.06 281.56 282.06 283.31 282.06 C 283.32 283.56 283.32 285.05 283.31 286.55 C 286.52 283.61 289.25 280.68 294.00 280.97 Z"
     fill="#04dfd7"
     id="path4877" />
  <path
     d="M 364.15 281.21 C 367.74 280.58 371.59 281.03 374.28 283.71 C 377.40 286.77 377.70 290.85 377.83 294.98 C 377.88 301.61 377.84 308.24 377.76 314.87 C 375.87 314.92 373.97 314.96 372.08 314.98 C 371.82 308.07 372.24 301.14 371.86 294.25 C 371.43 290.78 370.73 287.05 366.76 286.19 C 362.92 285.05 359.17 289.41 356.62 291.70 C 356.65 299.49 356.73 307.28 356.55 315.06 C 354.58 314.97 352.60 314.87 350.63 314.75 C 350.56 303.87 350.46 292.96 350.70 282.08 C 352.42 282.06 354.15 282.05 355.88 282.05 C 355.93 283.55 355.97 285.04 356.00 286.53 C 358.38 284.44 360.96 281.92 364.15 281.21 Z"
     fill="#04dfd7"
     id="path4879" />
  <path
     d="M 54.52 282.05 C 54.83 289.06 54.49 296.06 54.66 303.06 C 54.77 306.12 55.47 309.14 58.55 310.46 C 61.43 311.83 64.16 310.22 66.38 308.41 C 67.61 307.27 69.24 305.67 69.43 303.92 C 70.05 296.79 68.97 289.45 69.91 282.35 C 71.78 282.05 73.65 281.94 75.54 281.80 C 75.74 292.84 75.65 303.90 75.60 314.94 C 73.82 314.94 72.04 314.94 70.27 314.92 C 70.25 313.47 70.24 312.03 70.23 310.58 C 68.03 312.41 65.54 314.82 62.75 315.64 C 58.93 316.52 54.69 316.08 51.84 313.16 C 48.75 310.15 48.55 304.96 48.37 300.91 C 48.35 294.70 48.17 288.45 48.53 282.25 C 50.53 282.09 52.52 282.07 54.52 282.05 Z"
     fill="#04dfd7"
     id="path4881" />
  <path
     d="M 334.61 282.43 C 336.48 282.04 338.44 281.93 340.34 281.74 C 340.50 292.81 340.46 303.90 340.36 314.97 C 338.38 314.94 336.41 314.91 334.43 314.85 C 334.46 304.08 334.00 293.18 334.61 282.43 Z"
     fill="#04dfd7"
     id="path4883" />
  <path
     d="M 478.33 282.49 C 480.15 282.12 482.04 281.96 483.88 281.76 C 484.29 289.44 483.53 297.21 484.26 304.84 C 484.65 308.64 487.76 311.80 491.73 310.78 C 495.31 309.64 499.32 306.16 499.16 302.08 C 499.44 295.43 499.04 288.76 499.27 282.10 C 501.15 282.08 503.04 282.07 504.92 282.06 C 505.05 293.01 505.04 303.99 504.93 314.94 C 503.21 314.94 501.49 314.93 499.76 314.91 C 499.73 313.46 499.71 312.00 499.70 310.55 C 497.56 312.34 495.20 314.55 492.56 315.50 C 488.16 316.82 482.90 315.80 480.24 311.79 C 477.90 308.26 478.11 303.08 477.98 299.01 C 478.07 293.54 477.60 287.91 478.33 282.49 Z"
     fill="#aaabaa"
     id="path4885" />
  <path
     d="M 533.46 281.95 C 536.70 290.64 539.73 299.42 542.89 308.14 C 545.90 299.39 548.83 290.61 551.93 281.89 C 553.91 282.05 555.89 282.21 557.87 282.39 C 552.53 297.60 546.88 312.71 541.51 327.91 C 539.37 327.87 537.24 327.81 535.11 327.74 C 536.59 323.69 538.15 319.67 539.75 315.66 C 535.45 304.61 531.30 293.49 527.24 282.36 C 529.31 282.21 531.38 282.08 533.46 281.95 Z"
     fill="#aaabaa"
     id="path4887" />
  <path
     d="M 398.71 293.06 C 410.62 292.95 422.53 292.98 434.44 293.04 C 434.45 294.68 434.45 296.32 434.44 297.96 C 422.53 298.02 410.62 298.05 398.71 297.94 C 398.70 296.31 398.70 294.69 398.71 293.06 Z"
     fill="#aaabaa"
     id="path4895" />
  <path
     d="M 659.88 307.21 C 659.96 313.80 657.10 319.16 652.67 323.83 C 651.27 324.82 649.31 325.05 647.71 325.60 C 648.98 322.60 650.47 319.69 651.67 316.65 C 652.85 313.71 653.00 310.42 653.59 307.24 C 655.69 307.15 657.78 307.17 659.88 307.21 Z"
     fill="#aaabaa"
     id="path4897" />
  <path
     d="M 91.83 353.86 C 92.13 369.87 92.07 385.96 91.86 401.97 C 90.02 401.95 88.18 401.91 86.34 401.84 C 86.19 386.00 86.10 370.11 86.37 354.27 C 88.19 354.07 90.01 353.97 91.83 353.86 Z"
     fill="#008100"
     id="path4899" />
  <path
     style="fill:#008100;stroke-width:1.33333337"
     d="M 376.80078 472 C 374.38745 472.04 372.05268 472.03971 369.66602 472.37305 C 368.87935 480.42638 369.51904 488.65276 369.3457 496.74609 C 366.7057 494.59943 364.3324 492.33357 361.03906 491.24023 C 354.9724 489.6269 348.18641 491.15974 344.06641 496.06641 C 339.54641 501.53307 338.58737 509.09427 338.7207 515.96094 C 339.02737 522.0276 340.07911 528.41266 344.42578 532.97266 C 348.55911 537.26599 354.84073 538.23969 360.41406 536.67969 C 364.4674 535.37302 367.27904 532.57411 370.3457 529.80078 C 370.3057 531.81411 370.28091 533.82685 370.26758 535.85352 C 372.48091 535.89352 374.69292 535.91992 376.90625 535.91992 C 377.03958 514.62659 377.24078 493.29333 376.80078 472 z M 357.5332 497.3418 C 358.26099 497.36572 358.9957 497.48453 359.7207 497.70703 C 363.53404 498.62703 366.65237 502.42581 369.3457 505.11914 C 369.33237 510.95914 369.33237 516.78695 369.3457 522.62695 C 366.8257 525.22695 364.09336 528.51958 360.69336 529.90625 C 357.36003 531.35958 353.18669 530.74701 350.69336 528.01367 C 347.77336 524.82701 347.11909 520.32083 346.73242 516.1875 C 346.41242 511.37417 347.05396 505.85302 349.64062 501.67969 C 351.34146 498.91719 354.37948 497.23812 357.5332 497.3418 z "
     transform="scale(0.74999999)"
     id="path4901" />
  <path
     style="fill:#aaabaa;stroke-width:1.33333337"
     d="M 903.64062 471.57422 C 901.24062 471.88089 898.78578 472.14669 896.42578 472.69336 C 895.81245 476.38669 895.91992 480.26667 895.91992 484 C 896.13326 501.28 895.84042 518.57352 896.09375 535.85352 C 898.21375 535.92018 900.33312 535.95966 902.45312 535.98633 C 902.51979 534.15966 902.58763 532.32081 902.6543 530.49414 C 905.5343 532.76081 908.72091 535.72018 912.26758 536.85352 C 918.00091 538.25352 924.43987 537.02688 928.5332 532.54688 C 933.5332 527.13354 934.68013 519.05427 934.4668 511.96094 C 934.29346 505.77427 932.81383 498.93414 928.17383 494.49414 C 924.33383 490.72081 918.65422 489.93341 913.57422 491.08008 C 909.98755 492.10674 906.65328 494.81359 903.61328 496.93359 C 903.79995 488.48026 903.78729 480.02755 903.64062 471.57422 z M 916.2207 497.4043 C 916.541 497.39898 916.85883 497.40945 917.17383 497.43945 C 922.10716 498.13279 924.45279 502.24036 925.43945 506.70703 C 926.61279 512.62703 926.62659 519.65417 923.91992 525.1875 C 922.01326 528.96083 917.94602 531.52065 913.66602 530.33398 C 909.83935 529.16065 906.58602 525.51958 903.66602 522.90625 C 903.77268 517.26625 903.13237 511.21336 904.3457 505.69336 C 906.1457 501.41836 911.41631 497.48398 916.2207 497.4043 z "
     transform="scale(0.74999999)"
     id="path4903" />
  <path
     d="M 355.41 356.54 C 357.07 357.99 356.74 360.91 355.60 362.57 C 353.89 363.10 352.09 363.16 350.37 362.65 C 348.79 361.32 349.53 358.47 349.62 356.66 C 351.48 356.38 353.57 356.03 355.41 356.54 Z"
     fill="#008100"
     id="path4905" />
  <path
     d="M 870.81 356.36 C 874.76 357.17 878.05 359.84 879.23 363.75 C 880.82 369.45 879.23 375.18 876.01 379.98 C 871.83 386.19 866.10 391.46 861.09 397.00 C 867.97 396.99 874.82 396.96 881.70 397.09 C 881.71 398.70 881.71 400.30 881.70 401.91 C 872.22 402.03 862.73 402.11 853.26 401.86 C 853.86 399.26 853.95 396.91 855.77 394.81 C 861.11 388.42 869.26 381.97 872.09 373.93 C 873.60 369.78 873.58 364.17 869.13 361.85 C 864.32 359.27 858.63 363.53 854.29 365.44 C 854.60 363.58 854.15 360.22 856.03 359.13 C 860.18 356.19 865.89 355.39 870.81 356.36 Z"
     fill="#aaabaa"
     id="path4907" />
  <path
     style="fill:#aaabaa;stroke-width:1.33333337"
     d="M 1205.4473 474.58398 C 1203.2893 474.60589 1201.1587 474.8832 1199.2129 475.3457 C 1192.6396 477.1457 1188.3858 482.6406 1186.4258 488.94727 C 1183.8258 497.5206 1183.866 507.07992 1184.666 515.91992 C 1185.386 522.07992 1187.0392 529.15911 1191.8926 533.42578 C 1196.7326 537.69245 1204.3871 538.02643 1210.4004 536.75977 C 1217.0937 535.1731 1221.4131 529.8532 1223.4531 523.5332 C 1226.1998 514.75987 1226.3336 505.01359 1225.3203 495.93359 C 1224.627 490.00026 1223.0131 483.11958 1218.4531 478.90625 C 1215.0798 475.72542 1210.1948 474.53579 1205.4473 474.58398 z M 1205.5859 481.36133 C 1209.2997 481.47783 1212.7249 483.34208 1214.4258 486.90625 C 1217.1858 492.83958 1217.5329 500.21268 1217.5996 506.66602 C 1217.4929 512.89268 1217.0392 520.37352 1213.8125 525.85352 C 1210.2925 531.65352 1201.2142 532.32076 1196.8809 527.10742 C 1193.4942 522.76076 1192.9864 515.97302 1192.6797 510.67969 C 1192.4664 503.97302 1192.3993 496.78664 1194.2793 490.30664 C 1195.6126 486.03997 1198.3597 482.40055 1202.9863 481.56055 C 1203.8563 481.40055 1204.7289 481.33444 1205.5859 481.36133 z "
     transform="scale(0.74999999)"
     id="path4909" />
  <path
     d="M 11.84 357.19 C 22.83 356.79 33.91 357.00 44.92 357.11 C 44.94 358.70 44.94 360.30 44.92 361.89 C 40.38 362.05 35.87 362.00 31.33 362.00 C 31.30 375.29 31.38 388.58 31.28 401.87 C 29.30 401.91 27.32 401.91 25.34 401.85 C 25.09 388.58 25.30 375.28 25.23 362.00 C 20.63 362.00 16.06 362.07 11.46 361.86 C 11.51 360.28 11.53 358.75 11.84 357.19 Z"
     fill="#008100"
     id="path4911" />
  <path
     style="fill:#008100;stroke-width:1.33333337"
     d="M 306.71289 475.92578 C 305.13289 475.92245 303.55315 476.10013 302.14648 476.4668 C 299.87982 480.72013 298.58719 485.52034 296.86719 490.01367 C 291.46719 505.24034 285.55987 520.33302 280.5332 535.67969 C 283.15987 535.85302 285.7874 535.95906 288.41406 536.03906 C 290.48073 530.75906 292.22701 525.38734 294.01367 520.02734 C 302.26701 519.98734 310.53378 520.01333 318.78711 520 C 320.66711 525.34667 322.48089 530.68026 324.57422 535.93359 C 327.30755 535.94693 330.05378 535.89378 332.78711 535.78711 C 328.92044 522.66711 323.58742 509.96068 319.10742 497.02734 C 316.44076 490.22734 314.54596 482.9868 311.2793 476.4668 C 309.87263 476.11346 308.29289 475.92911 306.71289 475.92578 z M 306.33398 484.01367 C 309.69398 493.92034 313.24036 503.76062 316.70703 513.64062 C 309.82703 513.64062 302.96008 513.62763 296.08008 513.6543 C 299.42674 503.74763 302.94732 493.90701 306.33398 484.01367 z "
     transform="scale(0.74999999)"
     id="path4913" />
  <path
     style="fill:#aaabaa;stroke-width:1.33333337"
     d="M 641.39648 475.86328 C 637.42336 475.81891 633.4032 475.87422 629.5332 476.57422 C 628.62654 480.69422 628.68003 485.12065 628.69336 489.33398 C 628.85336 498.66732 628.82677 508.00065 628.77344 517.33398 C 628.7601 523.25398 628.30654 529.61245 629.5332 535.42578 C 636.02654 536.50578 642.84005 536.19951 649.38672 535.82617 C 656.68005 535.30617 663.64013 532.85315 668.4668 527.14648 C 673.9468 520.61315 675.47906 510.96003 675.03906 502.69336 C 674.46573 494.20003 671.62578 485.99958 664.42578 480.90625 C 658.66578 476.79958 652.23904 476.11992 645.3457 475.91992 C 644.03904 475.90326 642.72086 475.87807 641.39648 475.86328 z M 637.08008 482.5332 C 644.18674 482.74654 652.74737 482.03995 658.7207 486.61328 C 665.1607 491.39995 666.92013 500.41266 666.4668 507.97266 C 666.04013 514.71932 664.13341 522.24076 658.08008 526.10742 C 652.17341 529.82742 643.80008 529.28013 637.08008 529.4668 C 637.06674 513.8268 637.06674 498.1732 637.08008 482.5332 z "
     transform="scale(0.74999999)"
     id="path4915" />
  <path
     d="M 802.71 356.54 C 802.91 370.02 802.75 383.49 802.81 396.97 C 805.85 397.00 808.90 397.02 811.94 397.06 C 811.96 398.69 811.96 400.32 811.94 401.94 C 803.39 402.03 794.83 402.06 786.28 401.91 C 786.29 400.30 786.31 398.68 786.35 397.07 C 789.76 397.02 793.18 396.99 796.60 396.97 C 796.60 385.79 796.58 374.62 796.61 363.45 C 793.04 365.57 789.44 367.63 785.68 369.41 C 786.16 367.67 785.93 364.80 787.54 363.66 C 791.97 359.97 796.90 357.20 802.71 356.54 Z"
     fill="#aaabaa"
     id="path4917" />
  <path
     d="M 944.55 356.59 C 944.71 370.05 944.58 383.51 944.63 396.97 C 947.67 397.00 950.71 397.02 953.76 397.07 C 953.76 398.69 953.76 400.32 953.76 401.94 C 945.20 402.03 936.64 402.06 928.08 401.91 C 928.09 400.30 928.11 398.69 928.15 397.08 C 931.56 397.02 934.96 396.99 938.37 396.97 C 938.39 385.80 938.35 374.64 938.39 363.47 C 934.79 365.57 931.17 367.63 927.40 369.41 C 927.82 367.80 927.63 365.22 928.93 364.03 C 933.39 360.10 938.53 357.16 944.55 356.59 Z"
     fill="#aaabaa"
     id="path4919" />
  <path
     d="M 961.78 357.35 C 964.45 356.85 967.29 356.95 970.00 356.94 C 976.92 357.05 983.84 356.92 990.76 357.10 C 990.36 360.34 989.76 363.50 988.43 366.50 C 984.00 376.44 979.68 386.42 975.48 396.46 C 974.70 398.18 973.91 400.10 972.66 401.54 C 970.62 402.00 968.47 402.05 966.40 402.22 C 971.67 388.60 978.16 375.44 983.91 362.01 C 976.22 361.97 968.50 362.12 960.81 361.84 C 961.10 360.35 961.37 358.81 961.78 357.35 Z"
     fill="#aaabaa"
     id="path4921" />
  <path
     d="M 176.64 360.15 C 178.42 359.93 180.18 359.96 181.95 360.25 C 182.51 363.07 182.32 366.12 182.36 369.00 C 185.30 369.00 188.23 369.00 191.16 369.08 C 191.23 370.60 191.25 372.12 191.24 373.65 C 188.27 373.77 185.30 373.77 182.32 373.79 C 182.39 380.19 182.22 386.61 182.36 393.01 C 182.47 395.14 182.86 397.19 185.20 397.85 C 187.27 398.01 189.44 397.41 191.49 397.14 C 191.33 398.70 191.23 400.21 190.84 401.73 C 187.97 403.45 183.79 403.37 180.74 402.16 C 177.48 400.61 176.57 397.22 176.46 393.88 C 176.38 387.20 176.49 380.51 176.45 373.82 C 174.65 373.77 172.84 373.72 171.04 373.64 C 171.02 372.13 171.03 370.63 171.07 369.12 C 172.86 369.05 174.65 369.00 176.44 368.95 C 176.45 366.03 176.32 363.05 176.64 360.15 Z"
     fill="#008100"
     id="path4923" />
  <path
     style="fill:#008100;stroke-width:1.33333337"
     d="M 85.671875 490.58594 C 79.260794 490.38674 72.728255 492.98529 69.107422 498.43945 C 64.387422 505.46612 63.98599 515.4668 65.972656 523.4668 C 67.479323 529.61346 71.880338 534.55937 78.013672 536.35938 C 85.720339 538.46604 93.732552 537.04063 101.19922 534.64062 C 101.23922 532.48062 101.25289 530.30648 101.21289 528.14648 C 94.012891 530.01315 85.866771 532.9875 78.773438 529.1875 C 73.866771 526.1875 73.587292 521.24042 72.640625 516.09375 C 82.507292 515.60042 92.627396 516.66688 102.41406 515.54688 C 104.04073 512.54687 103.31917 508.62706 102.8125 505.40039 C 101.78583 500.01372 99.092734 495.11927 94.052734 492.58594 C 91.473568 491.34427 88.586003 490.67648 85.671875 490.58594 z M 84.699219 496.67188 C 87.529219 496.63687 90.367318 497.60661 92.333984 499.61328 C 94.827318 502.27995 95.173672 506.44052 96.013672 509.86719 C 88.187005 509.97385 80.346198 509.98685 72.519531 509.85352 C 73.706198 506.20018 74.254089 502.54643 77.107422 499.75977 C 79.047422 497.74643 81.869219 496.70688 84.699219 496.67188 z "
     transform="scale(0.74999999)"
     id="path4931" />
  <path
     d="M 115.22 368.43 C 119.17 367.36 123.88 368.11 126.59 371.41 C 129.26 374.44 129.49 379.09 129.56 382.94 C 129.53 389.25 129.63 395.56 129.45 401.86 C 127.54 401.92 125.64 401.94 123.74 401.94 C 123.55 395.01 123.83 388.06 123.61 381.13 C 123.44 378.29 122.60 374.56 119.59 373.47 C 115.44 371.56 110.34 375.76 108.49 379.22 C 108.03 386.73 108.52 394.35 108.28 401.89 C 106.37 401.92 104.47 401.92 102.56 401.88 C 102.35 390.99 102.43 380.06 102.52 369.16 C 104.21 369.07 105.90 369.00 107.59 368.94 C 107.67 370.52 107.73 372.11 107.77 373.70 C 110.04 371.61 112.21 369.40 115.22 368.43 Z"
     fill="#008100"
     id="path4933" />
  <path
     style="fill:#008100;stroke-width:1.33333337"
     d="M 203.21484 490.5957 C 197.51618 490.68404 191.9757 492.90596 188.3457 497.6543 C 183.2257 504.44096 182.63945 514.58661 184.43945 522.61328 C 185.69279 528.75995 189.77344 533.97307 195.77344 536.06641 C 203.49344 538.62641 212.29385 537.10729 219.86719 534.64062 C 219.90719 532.48062 219.92086 530.30648 219.88086 528.14648 C 212.68086 530.01315 204.53279 532.9875 197.43945 529.1875 C 192.53279 526.1875 192.25331 521.24042 191.30664 516.09375 C 201.17331 515.60042 211.29341 516.66688 221.08008 515.54688 C 222.85341 512.24021 221.89383 507.5594 221.17383 504.05273 C 219.92049 498.4794 216.35992 493.7731 210.91992 491.75977 C 208.42826 490.9556 205.80514 490.55555 203.21484 490.5957 z M 203.37109 496.67188 C 206.19943 496.63687 209.03333 497.60661 211 499.61328 C 213.49333 502.27995 213.83969 506.44052 214.67969 509.86719 C 206.85302 509.97385 199.01417 509.98685 191.1875 509.85352 C 192.37417 506.20018 192.9201 502.54643 195.77344 499.75977 C 197.7201 497.74643 200.54276 496.70688 203.37109 496.67188 z "
     transform="scale(0.74999999)"
     id="path4935" />
  <path
     d="M 309.98 368.03 C 314.11 368.30 316.37 370.93 318.38 374.22 C 320.41 372.11 322.80 369.73 325.53 368.58 C 329.59 367.19 334.69 368.16 337.26 371.82 C 339.42 374.86 339.59 378.37 339.58 381.96 C 339.51 388.64 339.63 395.31 339.46 401.99 C 337.56 401.95 335.65 401.90 333.75 401.81 C 333.50 394.31 333.89 386.79 333.57 379.31 C 333.33 375.96 331.47 373.17 327.90 372.97 C 324.35 373.05 321.64 376.60 319.32 378.90 C 319.31 386.58 319.38 394.26 319.26 401.94 C 317.36 401.94 315.46 401.92 313.56 401.86 C 313.26 394.55 313.64 387.22 313.38 379.91 C 313.14 376.55 311.67 373.36 307.93 373.01 C 304.02 372.81 301.45 376.46 299.00 378.96 C 298.93 386.62 299.16 394.29 298.85 401.94 C 297.01 401.94 295.18 401.91 293.34 401.85 C 293.16 390.98 293.16 379.96 293.34 369.09 C 295.05 369.07 296.77 369.07 298.48 369.09 C 298.49 370.65 298.48 372.21 298.44 373.76 C 301.84 370.52 304.84 367.45 309.98 368.03 Z"
     fill="#008100"
     id="path4937" />
  <path
     d="M 379.21 368.36 C 383.15 367.40 387.85 368.21 390.48 371.54 C 392.89 374.39 393.06 378.35 393.30 381.90 C 393.38 388.53 393.35 395.17 393.25 401.80 C 391.35 401.90 389.44 401.95 387.54 401.99 C 387.35 395.64 387.51 389.31 387.46 382.97 C 387.38 380.34 387.22 377.52 385.65 375.30 C 384.11 373.08 380.87 372.44 378.46 373.51 C 375.96 374.57 373.88 377.02 372.00 378.93 C 371.93 386.60 372.16 394.28 371.85 401.94 C 370.01 401.94 368.18 401.91 366.34 401.85 C 366.16 390.98 366.16 379.96 366.34 369.09 C 368.05 369.07 369.77 369.07 371.48 369.09 C 371.49 370.64 371.48 372.19 371.43 373.74 C 373.74 371.63 376.14 369.26 379.21 368.36 Z"
     fill="#008100"
     id="path4939" />
  <path
     style="fill:#aaabaa;stroke-width:1.33333337"
     d="M 702.89844 490.51953 C 696.5301 490.6762 690.15333 493.58599 687 498.97266 C 682.78667 505.82599 682.27906 515.02737 684.03906 522.7207 C 685.38573 528.58737 689.05378 533.68052 694.78711 535.86719 C 702.84044 538.86719 711.75977 536.97276 719.75977 534.74609 C 719.70643 532.53276 719.64055 530.32076 719.56055 528.10742 C 712.81388 529.86742 703.97245 532.84091 697.42578 529.26758 C 692.46578 526.61424 692.18617 520.98581 690.82617 516.11914 C 701.09284 515.87914 711.36029 516.16078 721.62695 515.80078 C 721.49362 510.00078 721.90609 503.7326 718.74609 498.58594 C 715.62609 492.95927 709.26677 490.36286 702.89844 490.51953 z M 702.99023 496.74805 C 705.62164 496.71104 708.25849 497.52505 710.16016 499.19922 C 712.70682 501.82589 713.46661 506.38609 714.61328 509.74609 C 706.62661 509.87943 698.62729 509.8807 690.64062 509.7207 C 691.77396 506.85404 692.77279 503.70708 694.43945 501.09375 C 696.23195 498.25125 699.607 496.79563 702.99023 496.74805 z "
     transform="scale(0.74999999)"
     id="path4941" />
  <path
     d="M 569.99 370.03 C 572.76 371.61 572.10 374.73 572.63 377.46 C 569.76 376.00 566.84 374.01 563.72 373.18 C 560.31 372.42 556.85 374.32 555.44 377.47 C 553.37 381.92 553.29 388.33 555.10 392.87 C 556.33 396.12 559.47 398.25 562.97 397.96 C 566.62 397.26 569.24 395.21 572.64 393.95 C 572.66 395.45 572.67 397.05 572.35 398.52 C 571.36 400.59 568.60 401.80 566.52 402.41 C 562.35 403.48 556.98 403.36 553.44 400.61 C 549.79 397.81 548.35 393.50 548.02 389.06 C 547.70 383.96 547.86 378.18 550.77 373.78 C 554.60 367.56 564.08 366.29 569.99 370.03 Z"
     fill="#aaabaa"
     id="path4943" />
  <path
     style="fill:#aaabaa;stroke-width:1.33333337"
     d="M 791.17383 490.51562 C 784.97383 490.40062 778.62648 492.92018 775.14648 497.85352 C 770.70648 503.68018 770.18677 511.6807 770.77344 518.7207 C 771.26677 524.57404 773.40057 530.1731 778.25391 533.75977 C 783.05391 537.27977 788.94669 537.59997 794.69336 537.30664 C 798.49336 537.01331 802.97391 536.46638 806.25391 534.37305 C 806.90724 532.34638 807.29242 530.18742 807.73242 528.10742 C 800.74576 529.54742 791.89375 532.81346 785.09375 529.4668 C 780.00042 527.09346 779.4794 520.84008 778.05273 516.08008 C 788.2794 515.92008 798.4937 516.09292 808.70703 515.90625 C 808.8937 509.89292 809.40031 504.45299 806.32031 498.98633 C 803.42698 493.37966 797.37383 490.63063 791.17383 490.51562 z M 790.40625 496.74805 C 793.17043 496.72537 795.93034 497.63919 797.82617 499.50586 C 800.03951 502.29253 800.84094 506.43977 801.96094 509.75977 C 793.97427 509.86643 785.97299 509.87943 777.98633 509.74609 C 779.06633 506.97276 780.05388 504.02646 781.56055 501.45312 C 783.29305 498.35562 786.8523 496.7772 790.40625 496.74805 z "
     transform="scale(0.74999999)"
     id="path4945" />
  <path
     d="M 632.03 368.01 C 636.09 368.21 638.01 371.08 640.56 373.76 C 642.81 371.82 645.33 369.27 648.20 368.35 C 651.94 367.40 656.22 368.12 658.81 371.17 C 661.36 374.16 661.60 378.23 661.67 381.98 C 661.69 388.75 661.61 395.52 661.57 402.28 C 659.71 402.07 657.88 401.89 656.06 401.51 C 654.80 394.25 656.20 386.52 655.45 379.18 C 655.17 376.88 654.48 374.76 652.28 373.64 C 649.96 372.37 647.73 373.28 645.71 374.64 C 643.60 376.23 641.51 378.11 641.47 380.96 C 641.12 387.94 641.58 394.95 641.35 401.95 C 639.38 401.92 637.41 401.88 635.44 401.83 C 635.31 395.89 635.42 389.94 635.44 384.00 C 635.36 381.38 635.44 378.18 634.21 375.82 C 632.98 373.44 629.93 372.38 627.49 373.48 C 624.98 374.62 622.89 377.04 620.94 378.94 C 621.05 386.61 621.04 394.29 620.92 401.96 C 619.03 401.93 617.14 401.90 615.25 401.86 C 615.16 390.94 615.16 380.01 615.26 369.09 C 617.02 369.08 618.78 369.07 620.55 369.06 C 620.54 370.56 620.52 372.05 620.48 373.55 C 624.05 370.51 626.87 367.42 632.03 368.01 Z"
     fill="#aaabaa"
     id="path4947" />
  <path
     style="fill:#aaabaa;stroke-width:1.33333337"
     d="M 963.48242 490.50977 C 956.91998 490.39185 950.19076 493.24185 946.82617 498.75977 C 942.65284 505.07977 942.25271 513.76068 943.35938 521.02734 C 944.41271 527.66734 948.2407 533.57266 954.7207 535.97266 C 962.57404 538.79932 971.53271 536.85326 979.35938 534.91992 C 979.35937 532.63992 979.33365 530.37375 979.32031 528.09375 C 972.64031 529.78708 963.89271 532.7874 957.35938 529.41406 C 952.10604 526.9074 951.9732 521.07948 950.5332 516.13281 C 960.78654 515.86615 971.01424 516.2137 981.26758 515.70703 C 981.13424 509.5737 981.58573 503.3076 978.03906 497.96094 C 974.93281 493.02969 969.27282 490.61381 963.48242 490.50977 z M 962.73242 496.75586 C 965.42909 496.72586 968.12667 497.57237 970 499.3457 C 972.36 502.09237 973.18604 506.37276 974.35938 509.74609 C 966.34604 509.87943 958.3457 509.87909 950.3457 509.73242 C 951.71904 506.39909 952.84013 502.01245 955.4668 499.42578 C 957.34013 497.69245 960.03576 496.78586 962.73242 496.75586 z "
     transform="scale(0.74999999)"
     id="path4949" />
  <path
     d="M 755.49 368.53 C 757.75 367.81 760.49 368.35 762.84 368.45 C 762.82 370.18 762.78 371.92 762.75 373.65 C 760.59 373.58 757.80 372.86 755.80 373.77 C 752.79 375.72 750.50 379.27 750.43 382.93 C 750.17 389.26 750.53 395.61 750.35 401.95 C 748.38 401.92 746.41 401.88 744.44 401.83 C 744.33 390.93 744.34 380.02 744.43 369.12 C 746.20 369.09 747.97 369.07 749.74 369.04 C 749.72 370.61 749.69 372.18 749.65 373.74 C 751.43 371.96 753.25 369.74 755.49 368.53 Z"
     fill="#aaabaa"
     id="path4951" />
  <path
     d="M 350.23 369.35 C 352.00 369.03 353.83 368.94 355.63 368.81 C 355.87 379.83 355.82 390.94 355.67 401.97 C 353.82 401.95 351.97 401.91 350.13 401.83 C 350.01 391.04 349.74 380.12 350.23 369.35 Z"
     fill="#008100"
     id="path4953" />
  <path
     d="M 414.54 380.32 C 417.30 379.85 420.21 379.94 423.00 379.94 C 431.90 380.08 440.80 379.90 449.70 380.09 C 449.71 381.70 449.71 383.30 449.70 384.91 C 437.67 385.04 425.60 385.09 413.57 384.88 C 413.86 383.37 414.12 381.81 414.54 380.32 Z"
     fill="#aaabaa"
     id="path4969" />
  <path
     d="M 828.99 394.08 C 828.76 396.88 828.81 399.99 827.57 402.54 C 826.33 405.13 824.66 407.70 822.82 409.90 C 821.38 411.82 819.14 411.86 816.97 412.60 C 818.21 409.64 819.69 406.78 820.85 403.80 C 821.99 400.88 822.17 397.45 822.74 394.34 C 824.83 394.17 826.90 394.12 828.99 394.08 Z"
     fill="#aaabaa"
     id="path4971" />
  <path
     d="M 91.83 440.00 C 92.06 455.96 92.00 471.97 91.85 487.94 C 90.01 487.92 88.17 487.88 86.33 487.82 C 86.23 471.97 86.13 456.10 86.37 440.26 C 88.19 440.11 90.01 440.05 91.83 440.00 Z"
     fill="#008100"
     id="path4973" />
  <path
     d="M 258.49 440.05 C 258.60 456.01 258.60 471.99 258.49 487.95 C 256.57 487.92 254.65 487.86 252.73 487.78 C 252.61 471.94 252.61 456.06 252.73 440.22 C 254.65 440.14 256.57 440.08 258.49 440.05 Z"
     fill="#008100"
     id="path4975" />
  <path
     style="fill:#008100;stroke-width:1.33333337"
     d="M 561.89844 586.83008 C 560.6401 586.84008 559.37914 586.87393 558.11914 586.94727 C 557.71914 595.0406 557.93401 603.1863 558.02734 611.29297 C 555.28068 609.17297 552.22677 606.45302 548.77344 605.67969 C 543.34677 604.73302 537.7207 605.7207 533.7207 609.7207 C 528.7207 614.61404 527.37263 622.62698 527.2793 629.32031 C 527.45263 635.33365 528.54737 642.65365 532.7207 647.32031 C 536.89404 651.89365 543.22734 652.8257 549.02734 651.3457 C 553.06734 650.13237 555.96068 647.17313 559.02734 644.45312 C 559.04068 646.47979 559.05375 648.52021 559.09375 650.54688 C 561.32042 650.56021 563.53242 650.53346 565.73242 650.4668 C 565.78576 629.2668 565.90602 608.05352 565.66602 586.85352 C 564.41268 586.83352 563.15677 586.82008 561.89844 586.83008 z M 546.07812 611.98047 C 546.59339 611.99878 547.11562 612.06922 547.64062 612.19922 C 551.82729 612.97255 555.01359 616.69286 557.93359 619.51953 C 557.92026 625.5062 557.9206 631.48013 557.94727 637.4668 C 554.62727 640.73346 551.45286 644.74732 546.51953 645.33398 C 541.31953 645.80065 537.60073 641.84042 536.41406 637.09375 C 534.8674 630.86708 534.73294 623.44055 537.59961 617.56055 C 539.19794 614.32888 542.4713 611.85232 546.07812 611.98047 z "
     transform="scale(0.74999999)"
     id="path4977" />
  <path
     d="M 243.19 444.74 C 246.01 446.30 245.07 448.73 245.28 451.40 C 241.84 449.89 238.70 447.73 235.00 447.19 C 230.96 446.46 226.58 447.72 223.85 450.87 C 220.54 454.67 219.45 460.10 219.35 465.00 C 219.31 469.89 219.90 475.10 222.80 479.19 C 225.48 483.00 230.31 484.49 234.79 483.90 C 238.78 483.32 241.94 481.21 245.53 479.56 C 245.20 481.45 246.12 485.02 243.90 485.85 C 237.04 490.01 226.34 490.42 219.96 485.10 C 214.09 480.11 212.75 472.44 212.83 465.11 C 213.09 458.63 214.56 452.02 219.28 447.28 C 225.16 440.97 236.04 440.51 243.19 444.74 Z"
     fill="#008100"
     id="path4979" />
  <path
     d="M 491.57 442.60 C 493.27 442.17 496.30 441.71 497.45 443.42 C 497.90 445.19 498.00 447.21 496.68 448.65 C 494.89 449.09 493.16 449.06 491.39 448.58 C 490.11 446.58 490.17 444.51 491.57 442.60 Z"
     fill="#008100"
     id="path4981" />
  <path
     d="M 627.05 442.13 C 629.41 442.44 632.30 443.15 634.03 444.87 C 634.65 446.59 634.64 448.57 634.97 450.36 C 631.92 449.30 628.86 447.89 625.70 447.23 C 623.12 446.69 620.13 447.36 618.25 449.26 C 616.00 451.76 616.30 455.92 618.91 458.08 C 623.31 462.06 630.66 463.19 634.76 468.27 C 637.29 471.26 637.38 475.21 636.78 478.90 C 635.68 484.43 630.48 488.26 625.05 488.85 C 620.41 489.41 614.78 488.89 610.89 486.07 C 608.75 484.65 609.46 482.12 609.39 479.91 C 614.98 481.56 619.99 485.67 626.04 483.18 C 630.82 481.57 632.28 474.80 628.56 471.44 C 624.30 467.67 617.30 466.52 613.22 461.73 C 609.11 457.04 609.50 449.35 614.13 445.17 C 617.75 442.05 622.48 441.66 627.05 442.13 Z"
     fill="#738ada"
     id="path4983" />
  <path
     d="M 11.59 443.13 C 22.66 442.99 33.81 442.99 44.89 443.12 C 44.92 444.71 44.92 446.29 44.89 447.88 C 40.37 447.99 35.86 447.96 31.34 447.95 C 31.32 461.24 31.39 474.54 31.30 487.84 C 29.31 487.88 27.33 487.87 25.34 487.84 C 25.14 474.54 25.30 461.24 25.25 447.95 C 20.69 447.96 16.15 448.00 11.59 447.87 C 11.56 446.29 11.56 444.71 11.59 443.13 Z"
     fill="#008100"
     id="path4985" />
  <path
     style="fill:#008100;stroke-width:1.33333337"
     d="M 495.60938 590.73438 C 494.08604 590.72604 492.56674 590.78 491.08008 591 C 489.53341 593.12 488.76078 595.88031 487.80078 598.32031 C 481.73411 615.69365 475.00083 632.86698 469.1875 650.32031 C 471.89417 650.46698 474.59997 650.51919 477.30664 650.50586 C 479.15997 645.22586 480.94602 639.93328 482.66602 634.61328 C 490.91935 634.59995 499.16039 634.61294 507.40039 634.59961 C 509.32039 639.93294 511.17281 645.27927 513.13281 650.58594 C 515.93281 650.55927 518.71953 650.47997 521.51953 650.30664 C 514.87953 630.34664 507.28016 610.65318 500.16016 590.83984 C 498.66016 590.81318 497.13271 590.74271 495.60938 590.73438 z M 494.97266 598.64062 C 498.35932 608.56063 501.9457 618.41398 505.3457 628.33398 C 498.4657 628.33398 491.57336 628.31904 484.69336 628.3457 C 488.12003 618.43904 491.63932 608.57396 494.97266 598.64062 z "
     transform="scale(0.74999999)"
     id="path4987" />
  <path
     d="M 754.81 443.28 C 759.71 442.60 764.83 443.07 769.77 443.06 C 769.77 444.35 769.77 445.64 769.77 446.93 C 767.85 446.97 765.92 447.00 764.00 447.03 C 764.00 452.37 764.02 457.70 763.97 463.03 C 762.52 462.99 761.07 462.94 759.62 462.89 C 759.55 457.62 759.56 452.35 759.57 447.08 C 757.56 446.99 755.54 446.90 753.53 446.79 C 753.92 445.61 754.34 444.44 754.81 443.28 Z"
     fill="#738ada"
     id="path4989" />
  <path
     d="M 773.53 443.20 C 775.51 442.90 777.63 442.84 779.58 443.33 C 782.14 447.45 783.31 452.51 785.04 457.03 C 786.62 452.97 787.91 448.68 789.96 444.84 C 790.80 442.32 794.57 443.24 796.71 442.78 C 796.91 449.51 796.86 456.25 796.77 462.98 C 795.38 462.96 794.00 462.93 792.62 462.91 C 792.54 457.72 792.55 452.53 792.62 447.35 C 790.82 452.59 788.89 457.79 786.88 462.95 C 785.63 462.96 784.38 462.97 783.13 462.98 C 781.11 457.69 779.16 452.37 777.37 447.00 C 777.45 452.33 777.45 457.66 777.41 462.99 C 776.01 462.97 774.62 462.96 773.23 462.94 C 773.30 456.40 772.69 449.69 773.53 443.20 Z"
     fill="#738ada"
     id="path4991" />
  <path
     d="M 176.61 446.26 C 178.42 446.04 180.32 446.09 182.15 446.10 C 182.33 449.08 182.36 452.05 182.37 455.03 C 185.31 455.05 188.24 455.04 191.18 455.12 C 191.24 456.63 191.26 458.13 191.25 459.64 C 188.28 459.75 185.31 459.75 182.33 459.76 C 182.40 466.16 182.24 472.57 182.37 478.97 C 182.48 481.06 182.84 483.30 185.24 483.83 C 187.32 483.99 189.48 483.42 191.54 483.18 C 191.35 484.69 191.22 486.26 190.83 487.71 C 188.21 489.37 184.35 489.22 181.46 488.44 C 177.71 487.19 176.57 483.51 176.46 479.90 C 176.38 473.20 176.48 466.49 176.45 459.78 C 174.66 459.75 172.87 459.71 171.08 459.66 C 171.06 458.14 171.07 456.63 171.10 455.12 C 172.88 455.08 174.66 455.04 176.43 455.02 C 176.44 452.11 176.32 449.16 176.61 446.26 Z"
     fill="#008100"
     id="path4993" />
  <path
     style="fill:#008100;stroke-width:1.33333337"
     d="M 84.853516 605.30273 C 79.384346 605.29933 74.055964 607.19255 70.279297 611.57422 C 64.385963 618.61422 63.799401 629.85339 66.052734 638.38672 C 67.612734 644.46672 71.960677 649.24068 78.027344 651.02734 C 85.640677 653.01401 93.746146 651.71904 101.13281 649.3457 C 101.18615 647.15904 101.20083 644.98745 101.1875 642.80078 C 93.9875 644.70745 85.907448 647.68052 78.800781 643.86719 C 73.827448 640.80052 73.560286 635.83961 72.626953 630.59961 C 82.520287 630.33294 92.626458 631.18716 102.45312 630.17383 C 104.18646 626.85383 103.24081 622.20003 102.49414 618.69336 C 101.22747 613.13336 97.694245 608.45245 92.267578 606.42578 C 89.855078 605.69661 87.339502 605.30428 84.853516 605.30273 z M 84.664062 611.33008 C 87.485729 611.28674 90.319635 612.23956 92.292969 614.21289 C 94.852969 616.97289 95.146667 621.02654 96 624.5332 C 88.16 624.62654 80.320469 624.63953 72.480469 624.51953 C 73.693802 620.89286 74.280755 617.21245 77.107422 614.42578 C 79.034089 612.41245 81.842396 611.37341 84.664062 611.33008 z "
     transform="scale(0.74999999)"
     id="path4997" />
  <path
     d="M 115.21 454.44 C 118.90 453.53 123.37 453.97 126.11 456.89 C 129.02 459.77 129.42 464.11 129.55 467.99 C 129.56 474.60 129.62 481.22 129.46 487.83 C 127.55 487.88 125.63 487.90 123.71 487.90 C 123.58 481.29 123.74 474.67 123.65 468.06 C 123.56 465.36 123.12 461.90 120.83 460.13 C 118.16 458.34 115.16 458.81 112.69 460.67 C 110.81 462.21 108.01 464.19 108.35 466.93 C 108.26 473.90 108.42 480.88 108.30 487.86 C 106.38 487.89 104.46 487.88 102.54 487.85 C 102.37 476.96 102.42 466.04 102.51 455.14 C 104.23 455.10 105.94 455.09 107.65 455.10 C 107.69 456.66 107.72 458.21 107.72 459.77 C 109.96 457.71 112.23 455.37 115.21 454.44 Z"
     fill="#008100"
     id="path4999" />
  <path
     style="fill:#008100;stroke-width:1.33333337"
     d="M 203.04297 605.33594 C 199.6276 605.38411 196.23698 606.11393 193.32031 607.94727 C 189.00031 610.4406 186.24018 614.65271 184.85352 619.35938 C 182.85352 626.33271 183.01328 634.17266 185.61328 640.97266 C 187.65328 646.19932 192.20029 649.97263 197.62695 651.2793 C 205.21362 652.85263 212.53411 651.6657 219.80078 649.3457 C 219.85411 647.15904 219.86685 644.98745 219.85352 642.80078 C 212.65352 644.70745 204.57346 647.68052 197.4668 643.86719 C 192.49346 640.80052 192.2263 635.83961 191.29297 630.59961 C 201.1863 630.33294 211.29247 631.18716 221.11914 630.17383 C 222.97247 626.52049 221.80018 621.36021 220.85352 617.54688 C 219.28018 611.84021 214.95914 607.26591 209.11914 605.89258 C 207.14914 605.52258 205.09219 605.30703 203.04297 605.33594 z M 203.33203 611.33008 C 206.1537 611.28674 208.9876 612.23956 210.96094 614.21289 C 213.52094 616.97289 213.81268 621.02654 214.66602 624.5332 C 206.82602 624.62654 198.98648 624.63953 191.14648 624.51953 C 192.35982 620.87953 192.94677 617.21245 195.77344 614.42578 C 197.7001 612.41245 200.51036 611.37341 203.33203 611.33008 z "
     transform="scale(0.74999999)"
     id="path5001" />
  <path
     style="fill:#008100;stroke-width:1.33333337"
     d="M 374.56445 605.36719 C 373.2082 605.35656 371.86594 605.42286 370.58594 605.51953 C 365.75927 605.91953 361.66628 608.0138 357.59961 610.48047 C 357.83961 612.38714 358.18695 614.26581 358.62695 616.11914 C 363.69362 614.47914 367.78638 611.52029 373.37305 611.62695 C 376.63971 611.78695 379.94578 612.65385 381.42578 615.86719 C 382.38578 618.54719 382.20013 621.7062 382.4668 624.51953 C 375.04013 624.5862 367.03935 624.16003 360.66602 628.69336 C 355.43935 632.21336 354.88031 640.10706 357.32031 645.40039 C 360.16031 650.81372 366.33273 652.42719 372.05273 651.86719 C 376.7194 651.56052 380.16029 648.1057 383.62695 645.3457 C 383.61362 647.07904 383.61294 648.79987 383.59961 650.5332 C 385.74628 650.54654 387.88034 650.5338 390.01367 650.48047 C 390.12034 640.74714 390.06742 631.00057 390.10742 621.25391 C 390.09409 616.65391 389.49258 612.07951 385.89258 608.82617 C 382.83258 606.12617 378.6332 605.39906 374.56445 605.36719 z M 382.19922 630.50586 C 382.21255 633.74586 382.21323 637.00057 382.22656 640.25391 C 378.2799 643.54724 374.94596 646.90643 369.2793 645.75977 C 363.7593 644.78643 361.69411 637.58643 365.80078 633.75977 C 369.50745 629.90643 377.29255 630.78586 382.19922 630.50586 z "
     transform="scale(0.74999999)"
     id="path5003" />
  <path
     d="M 320.04 454.05 C 325.58 454.21 329.29 458.63 329.69 463.95 C 330.23 471.86 329.92 479.88 329.86 487.81 C 328.02 487.88 326.17 487.92 324.33 487.94 C 324.15 481.61 324.32 475.29 324.25 468.96 C 324.20 466.53 323.94 463.58 322.54 461.50 C 321.03 459.18 317.86 458.35 315.35 459.46 C 312.81 460.52 310.70 463.00 308.74 464.87 C 308.72 472.55 308.85 480.24 308.66 487.92 C 306.82 487.91 304.98 487.88 303.14 487.82 C 302.98 476.96 302.98 465.98 303.14 455.12 C 304.85 455.10 306.56 455.11 308.28 455.14 C 308.28 456.68 308.26 458.22 308.23 459.75 C 311.64 456.42 314.90 453.52 320.04 454.05 Z"
     fill="#008100"
     id="path5005" />
  <path
     d="M 451.08 454.03 C 455.41 454.10 457.59 456.80 459.90 460.04 C 462.03 458.03 464.46 455.58 467.23 454.52 C 471.18 453.39 475.86 454.06 478.50 457.48 C 481.00 460.65 480.95 464.16 480.98 468.00 C 480.91 474.64 481.05 481.30 480.86 487.94 C 479.01 487.92 477.17 487.88 475.33 487.82 C 475.15 481.20 475.30 474.57 475.27 467.96 C 475.24 465.67 475.07 463.21 473.72 461.27 C 472.24 459.05 468.98 458.31 466.69 459.69 C 464.43 460.96 462.58 463.17 460.74 464.98 C 460.73 472.63 460.83 480.29 460.68 487.94 C 458.83 487.92 456.99 487.88 455.14 487.81 C 454.84 480.54 455.31 473.23 454.90 465.97 C 454.60 462.81 453.39 459.69 449.91 459.07 C 446.17 458.36 442.86 462.39 440.55 464.78 C 440.52 472.49 440.65 480.22 440.46 487.93 C 438.55 487.91 436.64 487.86 434.73 487.78 C 434.63 476.91 434.59 466.02 434.75 455.15 C 436.44 455.11 438.12 455.09 439.81 455.09 C 439.89 456.65 439.95 458.22 440.00 459.78 C 443.26 456.59 446.11 453.62 451.08 454.03 Z"
     fill="#008100"
     id="path5007" />
  <path
     d="M 521.04 454.30 C 524.63 453.63 528.54 454.07 531.23 456.76 C 534.32 459.76 534.63 463.87 534.75 467.94 C 534.76 474.56 534.81 481.19 534.67 487.82 C 532.83 487.88 530.99 487.92 529.15 487.94 C 528.83 480.95 529.32 473.92 528.88 466.95 C 528.53 463.61 527.63 459.88 523.80 459.16 C 519.70 458.01 516.20 462.24 513.55 464.74 C 513.52 472.47 513.65 480.20 513.46 487.93 C 511.55 487.91 509.64 487.86 507.73 487.78 C 507.63 476.91 507.59 466.01 507.75 455.15 C 509.44 455.11 511.12 455.09 512.81 455.09 C 512.89 456.65 512.95 458.20 513.00 459.76 C 515.38 457.51 517.74 455.09 521.04 454.30 Z"
     fill="#008100"
     id="path5009" />
  <path
     style="fill:#738ada;stroke-width:1.33333337"
     d="M 879.65039 605.24805 C 876.82039 605.15305 873.96732 605.47409 871.33398 606.10742 C 863.80065 608.24076 858.57328 615.0537 857.61328 622.70703 C 856.95995 628.64036 856.84034 635.33333 859.01367 641 C 861.17367 646.65333 866.11906 650.54661 872.03906 651.61328 C 879.54573 652.78661 887.41385 652.01417 892.86719 646.1875 C 898.88052 639.85417 899.27979 630.82628 898.45312 622.59961 C 897.66646 615.93294 894.18617 609.64086 887.82617 606.88086 C 885.28617 605.85419 882.48039 605.34305 879.65039 605.24805 z M 878.0918 612.04883 C 882.37117 612.05508 886.5732 614.1275 888.5332 618.1875 C 891.02654 623.41417 891.19984 629.86578 889.83984 635.42578 C 888.79984 639.54578 886.25409 643.17422 882.10742 644.57422 C 877.20076 646.36089 870.67958 644.81349 867.90625 640.16016 C 865.10625 635.22682 864.75943 628.78664 865.74609 623.30664 C 866.67943 618.59997 869.14719 614.38576 873.86719 612.73242 C 875.23052 612.27242 876.66534 612.04674 878.0918 612.04883 z "
     transform="scale(0.74999999)"
     id="path5011" />
  <path
     style="fill:#738ada;stroke-width:1.33333337"
     d="M 928.13086 605.24414 C 925.94746 605.28638 923.80352 605.55599 921.85352 605.97266 C 916.74685 607.23932 912.45333 610.68031 910 615.32031 C 907.06667 620.90698 906.70589 627.11964 907.19922 633.29297 C 907.81255 639.07964 909.70612 644.56057 914.43945 648.25391 C 919.42612 652.14724 925.91932 652.51977 931.97266 651.75977 C 937.23932 651.03977 942.09393 648.09422 944.94727 643.57422 C 948.57393 637.84089 949.39977 630.69307 948.75977 624.06641 C 948.0931 618.30641 946.1068 612.85247 941.4668 609.11914 C 937.92846 606.15831 932.93434 605.15122 928.13086 605.24414 z M 927.81055 612.03906 C 932.77818 611.96633 937.56589 614.63161 939.19922 619.61328 C 941.17255 625.74661 941.29357 633.70586 938.24023 639.50586 C 934.3069 646.75919 922.80016 647.3332 918.16016 640.5332 C 915.12016 635.9332 915.1207 629.19992 915.7207 623.91992 C 916.42737 618.26659 919.78635 613.25357 925.67969 612.24023 C 926.38802 612.1169 927.10089 612.04945 927.81055 612.03906 z "
     transform="scale(0.74999999)"
     id="path5013" />
  <path
     d="M 732.37 454.42 C 736.32 453.36 741.00 453.97 743.79 457.22 C 746.45 460.24 746.70 464.16 746.84 467.99 C 746.93 474.61 746.82 481.24 746.78 487.86 C 744.87 487.91 742.97 487.95 741.06 487.98 C 740.82 480.99 741.32 473.95 740.81 466.97 C 740.42 463.59 739.56 460.03 735.73 459.18 C 731.91 458.11 728.18 462.44 725.60 464.69 C 725.69 472.54 725.71 480.40 725.57 488.25 C 723.69 488.07 721.87 487.92 720.01 487.57 C 719.41 484.82 719.54 481.81 719.50 479.00 C 719.64 471.02 719.45 463.05 719.68 455.08 C 721.42 455.06 723.16 455.05 724.90 455.05 C 724.92 456.53 724.94 458.01 724.95 459.48 C 727.16 457.63 729.61 455.34 732.37 454.42 Z"
     fill="#738ada"
     id="path5015" />
  <path
     d="M 496.83 455.00 C 497.06 465.95 497.00 476.98 496.86 487.94 C 495.01 487.92 493.17 487.88 491.33 487.82 C 491.23 476.97 491.12 466.10 491.37 455.26 C 493.19 455.11 495.01 455.05 496.83 455.00 Z"
     fill="#008100"
     id="path5017" />
  <path
     d="M 555.91 466.34 C 558.54 465.85 561.33 465.95 564.00 465.94 C 573.07 466.07 582.14 465.92 591.21 466.06 C 591.23 467.69 591.23 469.31 591.21 470.94 C 579.14 471.00 567.05 471.13 554.98 470.86 C 555.26 469.35 555.51 467.82 555.91 466.34 Z"
     fill="#aaabaa"
     id="path5029" />
  <path
     style="fill:#ff8103;stroke-width:1.33333337"
     d="M 378.21289 702.54688 C 375.81289 702.66688 373.36 702.74742 371 703.10742 C 370.21333 711.06742 370.82703 719.21323 370.70703 727.22656 C 368.1737 725.2799 365.43971 722.88086 362.37305 721.88086 C 356.27971 720.32086 349.53305 721.74635 345.37305 726.67969 C 340.82638 732.15969 339.86573 739.76029 340.03906 746.62695 C 340.26573 752.90695 341.51937 759.82596 346.35938 764.2793 C 350.29271 767.94596 355.63977 768.6143 360.75977 767.6543 C 365.06643 766.6943 368.42763 763.45396 371.6543 760.64062 C 371.58763 762.60063 371.53253 764.55953 371.50586 766.51953 C 373.77253 766.55953 376.03964 766.59995 378.29297 766.61328 C 378.39964 745.26661 378.57289 723.89354 378.21289 702.54688 z M 358.69141 728.03125 C 359.47111 728.04099 360.25906 728.16406 361.03906 728.41406 C 364.82573 729.4274 367.96003 733.15951 370.69336 735.82617 C 370.65336 741.63951 370.65302 747.46596 370.67969 753.2793 C 367.53302 756.41263 364.38583 760.29255 359.8125 761.19922 C 355.46583 761.94589 351.5476 759.37305 349.96094 755.37305 C 347.29427 748.39971 347.17354 739.90682 350.54688 733.16016 C 352.10688 730.07266 355.31268 727.98906 358.69141 728.03125 z "
     transform="scale(0.74999999)"
     id="path5033" />
  <path
     d="M 38.12 531.84 C 38.59 533.62 38.57 535.54 38.76 537.36 C 34.07 535.76 29.03 532.43 24.04 534.92 C 20.05 536.70 19.63 542.40 22.87 545.12 C 27.90 549.62 35.52 550.18 39.57 556.47 C 42.40 561.49 41.30 569.03 36.59 572.63 C 32.43 576.21 26.20 576.54 21.04 575.57 C 18.61 575.02 15.61 574.07 13.96 572.11 C 13.20 570.53 13.53 568.29 13.43 566.54 C 18.31 568.75 23.20 572.12 28.82 570.61 C 35.08 569.43 36.94 560.99 31.52 557.50 C 26.87 554.26 21.14 553.22 17.25 548.71 C 13.32 544.22 13.52 536.94 17.66 532.66 C 22.67 527.80 32.64 527.86 38.12 531.84 Z"
     fill="#ff8103"
     id="path5035" />
  <path
     d="M 126.50 529.46 C 128.49 530.15 128.09 533.06 127.65 534.65 C 126.78 536.74 122.83 535.61 121.03 535.78 C 121.00 533.60 120.69 531.66 121.59 529.60 C 123.12 529.22 124.99 528.92 126.50 529.46 Z"
     fill="#ff8103"
     id="path5037" />
  <path
     d="M 356.57 529.51 C 358.05 531.39 357.78 533.58 356.74 535.59 C 354.90 536.08 353.14 536.13 351.28 535.72 C 349.93 534.11 350.43 531.54 350.46 529.59 C 352.43 529.35 354.61 529.11 356.57 529.51 Z"
     fill="#ff8103"
     id="path5039" />
  <path
     d="M 492.31 530.73 C 494.73 531.45 494.16 535.42 494.68 537.38 C 490.24 535.98 484.55 532.48 479.96 534.88 C 475.78 536.52 475.50 542.55 478.77 545.22 C 482.82 548.75 489.07 550.00 493.15 553.83 C 498.65 558.45 497.95 568.14 492.53 572.55 C 488.31 576.17 482.51 576.49 477.24 575.70 C 474.71 575.19 471.57 574.26 469.82 572.25 C 469.19 570.47 469.16 568.43 468.88 566.57 C 474.17 568.66 479.65 572.47 485.54 570.28 C 490.44 568.85 492.13 562.06 488.46 558.55 C 484.37 554.83 477.06 553.47 473.08 548.91 C 468.57 543.90 469.29 534.86 475.16 531.20 C 480.01 528.17 487.24 528.32 492.31 530.73 Z"
     fill="#738ada"
     id="path5041" />
  <path
     style="fill:#ff8103;stroke-width:1.33333337"
     d="M 308.2832 706.65234 C 306.74654 706.65068 305.20703 706.74685 303.70703 706.85352 C 299.30703 717.64018 295.6926 728.75935 291.58594 739.66602 C 288.42594 748.57268 284.87956 757.38612 282.21289 766.43945 C 284.86622 766.53279 287.52083 766.60029 290.1875 766.62695 C 292.1875 761.36029 293.95943 756.01268 295.74609 750.66602 L 320.37305 750.66602 C 322.26638 755.95935 324.10674 761.28021 326.08008 766.54688 C 328.89341 766.61354 331.7062 766.66703 334.51953 766.70703 C 330.3462 752.34703 324.46661 738.46698 319.61328 724.32031 C 317.39995 718.62698 315.89318 712.3324 312.83984 707.03906 C 311.35318 706.7524 309.81987 706.65401 308.2832 706.65234 z M 308 715.01367 C 311.44 724.76034 314.8663 734.52091 318.29297 744.26758 C 311.4663 744.26758 304.62745 744.26596 297.80078 744.2793 C 301.17411 734.5193 304.52 724.74701 308 715.01367 z "
     transform="scale(0.74999999)"
     id="path5043" />
  <path
     d="M 613.64 530.03 C 618.86 529.99 624.07 529.99 629.28 530.02 C 629.28 531.33 629.29 532.64 629.28 533.95 C 627.41 533.98 625.53 534.01 623.66 534.03 C 623.66 539.36 623.67 544.68 623.61 550.01 C 622.15 550.00 620.69 549.97 619.22 549.93 C 619.15 544.63 619.16 539.34 619.16 534.04 C 617.32 534.00 615.48 533.97 613.64 533.94 C 613.64 532.64 613.64 531.33 613.64 530.03 Z"
     fill="#738ada"
     id="path5045" />
  <path
     d="M 633.04 530.34 C 635.13 530.04 637.23 530.01 639.34 529.95 C 641.15 534.63 642.86 539.35 644.56 544.07 C 646.37 539.63 647.58 534.42 650.38 530.50 C 652.27 530.01 654.28 529.89 656.21 529.65 C 656.55 536.37 656.47 543.18 656.37 549.91 C 654.99 549.93 653.61 549.96 652.23 549.98 C 652.16 544.93 652.17 539.89 652.11 534.85 C 650.16 539.85 648.30 544.89 646.42 549.92 C 645.14 549.94 643.86 549.96 642.58 549.97 C 640.66 544.77 638.78 539.55 636.85 534.34 C 636.83 539.58 636.84 544.81 636.80 550.04 C 635.41 549.99 634.02 549.94 632.63 549.89 C 632.71 543.43 632.02 536.72 633.04 530.34 Z"
     fill="#738ada"
     id="path5047" />
  <path
     style="fill:#ff8103;stroke-width:1.33333337"
     d="M 82.210938 721.24219 C 76.709792 721.24025 71.323385 723.1607 67.574219 727.5332 C 61.894219 734.2932 61.159401 745.03997 63.052734 753.30664 C 64.332734 759.46664 68.374062 764.69344 74.414062 766.77344 C 82.374063 769.33344 90.946094 767.73237 98.746094 765.3457 C 98.679427 763.15904 98.599193 760.9601 98.505859 758.77344 C 91.425859 760.62677 83.09349 763.59917 76.160156 759.8125 C 71.37349 756.99917 70.999245 751.6801 69.892578 746.77344 C 79.839245 746.2801 89.986849 747.33289 99.853516 746.21289 C 102.69352 737.87956 98.640625 725.41339 89.640625 722.38672 C 87.236458 721.64089 84.711458 721.24307 82.210938 721.24219 z M 82.681641 727.40234 C 85.283512 727.50579 87.832292 728.46331 89.640625 730.30664 C 91.933958 732.90664 92.480052 737.2268 93.386719 740.4668 C 85.520052 740.56013 77.639766 740.57313 69.759766 740.45312 C 70.866432 737.41312 71.759844 733.69383 73.839844 731.17383 C 75.902344 728.54883 79.336377 727.26934 82.681641 727.40234 z "
     transform="scale(0.74999999)"
     id="path5051" />
  <path
     d="M 110.48 548.40 C 112.18 556.94 111.13 566.10 111.32 574.78 C 109.37 574.88 107.42 574.96 105.47 575.02 C 105.32 569.01 105.44 563.00 105.43 556.99 C 105.37 554.38 105.34 551.24 104.01 548.93 C 102.76 546.60 99.73 545.46 97.25 546.28 C 94.41 547.16 92.06 549.91 89.99 551.94 C 89.97 559.61 90.11 567.29 89.89 574.96 C 88.02 574.94 86.15 574.91 84.28 574.86 C 84.15 563.95 84.15 552.98 84.29 542.07 C 86.05 542.06 87.81 542.07 89.57 542.09 C 89.54 543.60 89.50 545.12 89.44 546.63 C 91.39 544.92 93.48 542.94 95.84 541.84 C 101.73 539.45 108.85 541.87 110.48 548.40 Z"
     fill="#ff8103"
     id="path5053" />
  <path
     style="fill:#ff8103;stroke-width:1.33333337"
     d="M 202.84766 721.26758 C 200.2168 721.22727 197.6043 721.54008 195.2793 722.08008 C 188.5593 723.89341 183.4525 729.5199 181.8125 736.22656 C 180.18583 742.9999 180.27984 750.65255 182.83984 757.19922 C 184.98651 762.49255 189.4006 766.14578 194.94727 767.42578 C 202.25393 768.83911 210.44034 768.14669 216.01367 762.69336 C 221.34701 757.28003 222.71979 749.97328 222.45312 742.61328 C 222.29312 735.90661 220.37326 729.29333 214.91992 725 C 211.66992 722.38333 207.23242 721.33477 202.84766 721.26758 z M 201.35352 728.02344 C 204.88111 727.92132 208.45427 729.16753 210.77344 731.88086 C 213.62677 735.32086 214.11956 739.66633 214.21289 743.98633 C 214.29289 748.62633 213.77302 753.62732 210.67969 757.33398 C 206.02635 762.97398 195.60029 762.63971 191.62695 756.37305 C 188.90695 752.06638 188.73409 746.17391 189.10742 741.25391 C 189.61409 736.12057 191.72003 731.17299 196.69336 728.98633 C 198.15586 728.39466 199.75007 728.06986 201.35352 728.02344 z "
     transform="scale(0.74999999)"
     id="path5055" />
  <path
     d="M 186.40 541.41 C 188.59 540.68 191.32 541.32 193.58 541.56 C 193.58 543.31 193.56 545.05 193.54 546.80 C 190.76 546.57 187.77 545.22 185.50 547.49 C 183.29 549.59 180.94 552.73 181.03 555.91 C 180.86 562.26 181.15 568.62 180.90 574.98 C 179.03 574.95 177.15 574.91 175.28 574.85 C 175.16 563.94 175.15 552.98 175.29 542.07 C 177.05 542.06 178.81 542.07 180.57 542.09 C 180.54 543.71 180.51 545.34 180.45 546.96 C 182.15 545.02 184.02 542.49 186.40 541.41 Z"
     fill="#ff8103"
     id="path5057" />
  <path
     d="M 311.02 541.02 C 315.15 541.24 317.14 543.96 319.49 546.93 C 321.71 544.89 324.28 542.22 327.21 541.33 C 330.76 540.50 334.69 541.03 337.36 543.68 C 340.05 546.48 340.59 550.23 340.62 553.94 C 340.62 560.97 340.64 568.00 340.53 575.02 C 338.58 574.96 336.63 574.88 334.68 574.78 C 334.38 567.07 334.99 559.26 334.41 551.57 C 334.09 547.63 330.28 544.74 326.51 546.59 C 323.53 548.19 319.84 551.13 320.37 554.95 C 320.30 561.62 320.48 568.29 320.32 574.96 C 318.37 574.94 316.43 574.91 314.48 574.85 C 314.31 568.56 314.44 562.28 314.43 555.99 C 314.36 553.57 314.44 550.95 313.20 548.78 C 312.00 546.39 308.80 545.38 306.40 546.48 C 303.90 547.54 301.87 550.08 299.99 551.98 C 299.97 559.64 300.11 567.30 299.89 574.96 C 298.02 574.94 296.15 574.91 294.28 574.86 C 294.15 563.95 294.15 552.98 294.29 542.07 C 296.05 542.06 297.80 542.07 299.56 542.09 C 299.54 543.61 299.51 545.13 299.45 546.65 C 302.94 543.48 305.83 540.41 311.02 541.02 Z"
     fill="#ff8103"
     id="path5059" />
  <path
     d="M 393.49 548.46 C 395.17 556.98 394.13 566.12 394.32 574.78 C 392.37 574.88 390.42 574.96 388.47 575.02 C 388.32 569.01 388.44 563.00 388.43 556.99 C 388.37 554.38 388.34 551.24 387.01 548.93 C 385.76 546.60 382.73 545.46 380.25 546.28 C 377.41 547.16 375.06 549.91 372.99 551.94 C 372.97 559.61 373.11 567.29 372.89 574.96 C 371.02 574.94 369.15 574.91 367.28 574.86 C 367.15 563.95 367.15 552.98 367.29 542.07 C 369.05 542.06 370.81 542.07 372.57 542.09 C 372.54 543.60 372.51 545.12 372.44 546.63 C 374.39 544.92 376.48 542.94 378.84 541.84 C 384.75 539.44 391.89 541.89 393.49 548.46 Z"
     fill="#ff8103"
     id="path5061" />
  <path
     style="fill:#738ada;stroke-width:1.33333337"
     d="M 691.17578 721.24023 C 688.88374 721.28192 686.63294 721.57656 684.59961 722.03906 C 677.83961 723.83906 672.77375 729.49255 671.09375 736.19922 C 669.44042 743.01255 669.55948 750.66656 672.13281 757.22656 C 674.27948 762.5199 678.70596 766.21346 684.2793 767.4668 C 691.58596 768.84013 699.81339 768.22576 705.38672 762.73242 C 710.72005 757.35909 712.10685 749.93362 711.85352 742.62695 C 711.68018 736.28029 709.94734 729.8926 705.02734 725.58594 C 701.46151 722.28594 696.21827 721.14853 691.17578 721.24023 z M 690.53711 728.0332 C 695.4367 727.83579 700.27891 730.45331 702.06641 735.30664 C 704.02641 740.62664 704.05266 748.72034 701.97266 754.01367 C 699.38599 760.61367 691.54698 763.01375 685.32031 760.09375 C 679.72031 757.54708 678.42732 750.89271 678.33398 745.35938 C 678.18732 738.51937 679.90716 731.00029 687.17383 728.62695 C 688.27383 728.27445 689.40644 728.07876 690.53711 728.0332 z "
     transform="scale(0.74999999)"
     id="path5063" />
  <path
     style="fill:#738ada;stroke-width:1.33333337"
     d="M 742.31641 721.24805 C 739.48641 721.15305 736.63333 721.47409 734 722.10742 C 726.46667 724.24076 721.2393 731.0537 720.2793 738.70703 C 719.62596 744.64036 719.50635 751.33333 721.67969 757 C 723.83969 762.65333 728.78703 766.54661 734.70703 767.61328 C 742.2137 768.78661 750.07987 768.01417 755.5332 762.1875 C 761.54654 755.85417 761.94581 746.82628 761.11914 738.59961 C 760.33247 731.93294 756.85414 725.64086 750.49414 722.88086 C 747.95414 721.85419 745.14641 721.34305 742.31641 721.24805 z M 740.75781 728.04883 C 745.03719 728.05508 749.23922 730.1275 751.19922 734.1875 C 753.69255 739.41417 753.86586 745.86578 752.50586 751.42578 C 751.46586 755.54578 748.9201 759.17422 744.77344 760.57422 C 739.86677 762.36089 733.34755 760.81349 730.57422 756.16016 C 727.77422 751.22682 727.4274 744.78664 728.41406 739.30664 C 729.3474 734.59997 731.8132 730.38576 736.5332 728.73242 C 737.89654 728.27242 739.33135 728.04674 740.75781 728.04883 z "
     transform="scale(0.74999999)"
     id="path5065" />
  <path
     d="M 592.21 541.39 C 595.92 540.44 600.42 540.92 603.17 543.83 C 606.03 546.70 606.50 551.10 606.64 554.94 C 606.77 561.58 606.64 568.22 606.59 574.85 C 604.60 574.90 602.61 574.93 600.62 574.96 C 600.46 568.29 600.72 561.61 600.54 554.95 C 600.39 552.04 599.97 548.46 597.18 546.85 C 593.18 544.27 587.11 548.58 585.69 552.40 C 584.95 559.83 585.70 567.45 585.38 574.94 C 583.39 574.92 581.40 574.90 579.41 574.86 C 579.30 563.94 579.31 553.01 579.40 542.10 C 581.19 542.08 582.98 542.06 584.77 542.05 C 584.76 543.49 584.76 544.93 584.75 546.36 C 586.98 544.58 589.46 542.27 592.21 541.39 Z"
     fill="#738ada"
     id="path5067" />
  <path
     d="M 121.64 542.43 C 123.49 542.03 125.42 541.93 127.30 541.75 C 127.45 552.81 127.41 563.90 127.32 574.96 C 125.37 574.94 123.43 574.91 121.48 574.85 C 121.49 564.08 121.07 553.17 121.64 542.43 Z"
     fill="#ff8103"
     id="path5069" />
  <path
     d="M 351.24 542.39 C 353.02 542.05 354.88 541.93 356.69 541.76 C 356.88 552.82 356.83 563.92 356.72 574.98 C 354.84 574.95 352.97 574.91 351.09 574.85 C 351.07 564.06 350.69 553.15 351.24 542.39 Z"
     fill="#ff8103"
     id="path5071" />
  <path
     d="M 415.73 553.32 C 418.43 552.85 421.27 552.94 424.00 552.94 C 432.97 553.08 441.93 552.90 450.90 553.09 C 450.92 554.70 450.92 556.30 450.90 557.91 C 438.88 558.04 426.83 558.10 414.81 557.88 C 415.08 556.36 415.33 554.81 415.73 553.32 Z"
     fill="#aaabaa"
     id="path5083" />
</svg>
