<?xml version="1.0" encoding="UTF-8" standalone="no"?>
<svg
   xmlns:dc="http://purl.org/dc/elements/1.1/"
   xmlns:cc="http://creativecommons.org/ns#"
   xmlns:rdf="http://www.w3.org/1999/02/22-rdf-syntax-ns#"
   xmlns:svg="http://www.w3.org/2000/svg"
   xmlns="http://www.w3.org/2000/svg"
   xmlns:sodipodi="http://sodipodi.sourceforge.net/DTD/sodipodi-0.dtd"
   xmlns:inkscape="http://www.inkscape.org/namespaces/inkscape"
   viewBox="0 0 1017 587"
   height="587.0pt"
   width="1017.0pt"
   version="1.1"
   id="svg5085"
   sodipodi:docname="kZQjVE.svg"
   inkscape:version="0.92.1 r15371">
  <metadata
     id="metadata5091">
    <rdf:RDF>
      <cc:Work
         rdf:about="">
        <dc:format>image/svg+xml</dc:format>
        <dc:type
           rdf:resource="http://purl.org/dc/dcmitype/StillImage" />
        <dc:title></dc:title>
      </cc:Work>
    </rdf:RDF>
  </metadata>
  <defs
     id="defs5089" />
  <sodipodi:namedview
     pagecolor="#ffffff"
     bordercolor="#666666"
     borderopacity="1"
     objecttolerance="10"
     gridtolerance="10"
     guidetolerance="10"
     inkscape:pageopacity="0"
     inkscape:pageshadow="2"
     inkscape:window-width="1920"
     inkscape:window-height="1017"
     id="namedview5087"
     showgrid="false"
     inkscape:zoom="0.83775811"
     inkscape:cx="678"
     inkscape:cy="391.33333"
     inkscape:window-x="1912"
     inkscape:window-y="-8"
     inkscape:window-maximized="1"
     inkscape:current-layer="svg5085" />
  <path
     d="M 447.51 7.45 C 447.90 31.95 447.53 56.49 447.70 81.00 C 447.67 83.42 447.82 85.98 447.33 88.36 C 443.79 89.74 438.99 89.68 435.40 88.47 C 434.86 86.17 434.94 83.67 434.80 81.32 C 432.58 83.31 430.37 85.28 427.86 86.91 C 419.33 92.78 405.67 91.07 399.72 82.25 C 395.14 75.77 394.02 66.76 394.30 59.02 C 394.61 51.04 396.42 42.12 402.38 36.35 C 407.22 31.36 414.42 29.77 421.13 30.84 C 425.70 31.76 429.06 34.44 432.67 37.17 C 432.82 27.31 432.54 17.42 432.86 7.57 C 437.62 5.67 442.69 5.92 447.51 7.45 Z"
     fill="#008100"
     id="path4787" />
  <path
     d="M 21.12 12.21 C 25.36 11.20 30.35 11.18 34.49 12.64 C 35.05 14.37 34.99 16.19 35.03 17.99 C 34.97 31.00 35.02 44.00 34.98 57.01 C 35.04 62.16 35.17 67.35 38.31 71.69 C 42.52 77.60 51.08 78.65 57.54 76.40 C 61.15 75.00 64.00 72.02 65.39 68.42 C 66.81 64.68 66.83 60.94 66.83 57.00 C 66.78 44.00 66.85 30.99 66.79 17.99 C 66.80 16.32 66.81 14.69 67.10 13.03 C 68.67 11.78 71.04 11.70 72.97 11.55 C 75.87 11.48 79.42 11.44 82.02 12.88 C 82.40 15.54 82.28 18.31 82.29 21.00 C 82.20 34.33 82.38 47.67 82.20 60.99 C 82.02 68.68 80.14 76.05 74.61 81.67 C 68.39 88.36 58.81 90.28 50.03 90.29 C 41.55 90.31 32.25 88.16 26.36 81.63 C 21.04 75.93 19.52 68.57 19.38 60.99 C 19.27 46.31 19.39 31.63 19.31 16.95 C 19.52 15.10 18.81 12.86 21.12 12.21 Z"
     fill="#008100"
     id="path4789" />
  <path
     d="M 171.97 17.42 C 174.72 17.41 177.97 17.24 180.38 18.75 C 181.22 22.96 180.74 27.50 180.90 31.79 C 185.12 31.89 189.59 31.41 193.74 32.25 C 195.02 35.74 195.05 40.17 193.65 43.62 C 189.51 44.37 185.11 43.89 180.91 43.99 C 180.90 52.34 180.69 60.69 180.80 69.03 C 180.95 71.63 181.03 74.99 183.48 76.58 C 186.75 78.65 190.68 76.81 194.11 76.15 C 194.47 79.59 195.42 84.45 193.61 87.57 C 191.14 89.66 187.11 90.04 184.01 90.14 C 179.07 90.23 173.77 89.48 170.21 85.72 C 166.51 81.92 165.90 76.05 165.83 71.00 C 165.77 62.03 165.79 53.05 165.83 44.08 C 163.33 44.01 160.71 44.15 158.25 43.67 C 156.64 40.84 156.59 34.93 158.26 32.12 C 160.72 31.62 163.35 31.75 165.85 31.67 C 165.89 27.46 165.55 23.15 166.08 18.98 C 167.41 17.51 170.13 17.56 171.97 17.42 Z"
     fill="#008100"
     id="path4791" />
  <path
     d="M 144.17 36.91 C 148.32 42.30 148.70 49.43 148.67 55.97 C 148.58 66.27 148.84 76.61 148.57 86.90 C 148.63 88.98 145.52 89.09 144.07 89.26 C 140.91 89.35 136.80 89.74 133.99 88.06 C 133.34 80.10 133.89 71.99 133.72 64.00 C 133.55 58.94 134.44 52.49 132.13 47.87 C 130.50 44.43 126.59 42.82 122.95 43.76 C 118.68 44.88 115.72 48.41 112.98 51.64 C 113.03 61.76 112.96 71.88 113.03 82.00 C 113.01 83.92 113.07 85.93 112.72 87.84 C 111.11 89.37 108.10 89.25 106.01 89.36 C 103.59 89.30 100.26 89.50 98.24 87.95 C 97.76 85.03 97.94 81.96 97.92 79.00 C 97.94 65.33 97.95 51.66 97.91 38.00 C 97.93 36.17 97.92 34.21 98.34 32.43 C 102.22 30.83 106.49 31.42 110.48 32.21 C 110.73 34.64 110.90 37.08 111.07 39.51 C 114.74 36.31 117.97 33.15 122.74 31.61 C 130.03 29.25 139.26 30.53 144.17 36.91 Z"
     fill="#008100"
     id="path4793" />
  <path
     d="M 296.30 31.36 C 303.52 29.36 312.27 30.78 317.02 37.01 C 321.11 42.55 321.44 49.37 321.43 55.99 C 321.34 66.82 321.59 77.65 321.29 88.47 C 317.09 89.34 312.34 89.81 308.15 88.78 C 306.32 88.29 306.59 86.59 306.47 85.08 C 306.42 75.39 306.54 65.68 306.47 55.99 C 306.35 52.15 306.10 48.55 303.26 45.68 C 300.85 43.25 297.38 43.12 294.30 44.22 C 290.75 45.69 288.29 48.75 285.75 51.50 C 285.73 63.00 285.82 74.53 285.71 86.03 C 285.92 88.96 283.25 88.98 281.07 89.26 C 277.89 89.37 273.80 89.71 270.96 88.05 C 270.33 82.10 270.85 75.99 270.69 70.00 C 270.83 57.65 270.41 45.20 270.89 32.88 C 274.09 30.49 279.68 31.51 283.32 32.33 C 283.51 34.75 283.64 37.18 283.73 39.61 C 287.66 36.17 291.11 32.81 296.30 31.36 Z"
     fill="#008100"
     id="path4795" />
  <path
     d="M 368.54 31.55 C 374.30 32.90 379.21 36.87 381.94 42.09 C 384.56 47.27 385.25 53.33 384.99 59.06 C 384.86 60.64 384.62 62.37 383.25 63.37 C 381.82 64.27 379.67 64.14 378.03 64.23 C 368.00 64.28 357.96 64.14 347.92 64.30 C 348.45 67.66 348.69 71.33 350.81 74.15 C 352.80 76.87 355.82 78.23 359.07 78.76 C 364.51 79.48 369.97 78.81 375.15 77.05 C 377.33 76.43 379.85 75.25 382.10 75.61 C 382.66 78.59 382.89 81.92 382.08 84.88 C 381.55 86.65 379.40 87.20 377.86 87.81 C 371.52 89.86 364.63 90.45 358.00 90.16 C 350.89 89.76 343.75 87.66 339.05 82.01 C 333.79 75.71 332.68 66.95 333.01 59.03 C 333.41 51.03 335.38 43.08 341.39 37.41 C 348.44 30.51 359.31 29.29 368.54 31.55 Z"
     fill="#008100"
     id="path4797" />
  <path
     d="M 219.67 32.50 C 220.51 38.56 219.85 44.88 220.05 51.00 C 220.24 57.43 219.52 64.18 220.68 70.52 C 221.58 74.55 224.74 77.46 229.00 77.25 C 234.30 77.08 237.52 72.66 240.89 69.19 C 240.88 58.79 240.92 48.40 240.85 38.00 C 240.90 36.20 240.77 34.11 241.43 32.42 C 245.85 30.82 251.17 31.30 255.66 32.42 C 256.08 45.93 255.73 59.48 255.84 73.00 C 255.72 77.90 256.15 82.91 255.61 87.78 C 252.90 90.27 246.76 89.51 243.48 88.45 C 242.86 86.11 243.02 83.52 242.88 81.11 C 239.35 84.46 235.79 87.45 231.16 89.16 C 223.74 91.57 214.21 90.28 209.38 83.57 C 204.64 77.02 205.13 68.68 205.09 61.00 C 205.25 51.49 204.80 41.93 205.32 32.44 C 209.87 31.17 215.18 30.86 219.67 32.50 Z"
     fill="#008100"
     id="path4799" />
  <path
     d="M 368.11 44.94 C 370.18 47.53 370.25 51.25 370.68 54.41 C 363.12 54.49 355.57 54.46 348.01 54.41 C 348.73 50.27 349.23 46.50 352.54 43.53 C 356.77 39.93 364.80 40.16 368.11 44.94 Z"
     fill="#ffffff"
     id="path4801" />
  <path
     d="M 419.15 43.27 C 424.48 42.52 429.86 47.38 432.44 51.60 C 432.97 54.31 432.66 57.24 432.74 60.00 C 432.35 63.95 433.99 68.80 430.65 71.62 C 427.33 75.39 423.17 78.51 417.84 77.42 C 413.47 76.42 411.08 71.80 410.22 67.76 C 409.16 61.91 409.03 55.03 411.52 49.50 C 412.93 46.42 415.58 43.52 419.15 43.27 Z"
     fill="#ffffff"
     id="path4803" />
  <path
     d="M 339.50 119.47 C 341.54 119.07 343.66 118.97 345.73 118.81 C 345.84 125.99 345.85 133.17 345.73 140.35 C 348.27 138.52 351.13 136.16 354.19 135.35 C 358.77 134.32 363.87 135.22 366.94 139.01 C 369.91 142.71 369.92 147.48 370.04 151.99 C 370.03 159.29 370.01 166.58 369.94 173.88 C 367.77 173.88 365.61 173.88 363.44 173.87 C 363.15 165.57 363.73 157.21 363.19 148.93 C 362.87 145.07 361.32 141.28 357.05 140.65 C 352.95 140.00 347.38 144.20 346.13 148.01 C 345.22 156.54 346.14 165.31 345.73 173.91 C 343.57 173.90 341.41 173.89 339.25 173.86 C 339.10 158.24 339.30 142.62 339.13 127.00 C 339.14 124.51 339.10 121.93 339.50 119.47 Z"
     fill="#aaabaa"
     id="path4805" />
  <path
     d="M 17.74 123.08 C 20.03 123.09 22.31 123.12 24.59 123.15 C 24.64 140.09 24.67 157.03 24.58 173.96 C 22.25 173.88 19.91 173.79 17.58 173.67 C 17.70 156.81 17.41 139.94 17.74 123.08 Z"
     fill="#aaabaa"
     id="path4807" />
  <path
     d="M 148.88 126.29 C 149.51 129.42 149.44 132.81 149.55 135.99 C 152.85 135.99 156.15 136.01 159.45 136.04 C 159.46 137.81 159.46 139.58 159.45 141.36 C 156.09 141.39 152.74 141.40 149.38 141.40 C 149.52 148.62 149.21 155.85 149.42 163.07 C 149.59 165.11 149.75 168.31 152.08 169.09 C 154.68 169.37 157.42 168.84 160.01 168.61 C 159.73 170.17 159.51 171.79 159.04 173.30 C 157.92 174.67 155.67 174.90 154.04 175.03 C 150.72 175.17 147.21 174.76 144.95 172.05 C 142.79 169.39 142.52 165.31 142.38 162.03 C 142.25 155.33 142.44 148.63 142.38 141.92 C 140.52 141.51 138.56 141.33 136.76 140.72 C 136.36 139.25 136.14 137.73 135.88 136.21 C 138.03 136.10 140.18 136.00 142.33 135.91 C 142.34 132.67 142.32 129.39 142.55 126.18 C 144.67 126.06 146.77 126.04 148.88 126.29 Z"
     fill="#aaabaa"
     id="path4809" />
  <path
     d="M 319.88 126.29 C 320.51 129.42 320.44 132.81 320.55 135.99 C 323.85 135.99 327.15 136.01 330.45 136.04 C 330.46 137.81 330.46 139.58 330.45 141.36 C 327.09 141.39 323.74 141.40 320.38 141.40 C 320.52 148.62 320.21 155.85 320.42 163.07 C 320.59 165.12 320.75 168.31 323.08 169.09 C 325.68 169.37 328.42 168.84 331.01 168.61 C 330.73 170.17 330.51 171.79 330.04 173.30 C 328.92 174.67 326.67 174.90 325.04 175.03 C 321.72 175.17 318.21 174.76 315.95 172.05 C 313.79 169.39 313.52 165.31 313.38 162.03 C 313.25 155.33 313.44 148.63 313.38 141.92 C 311.52 141.51 309.56 141.33 307.76 140.72 C 307.36 139.25 307.14 137.73 306.88 136.21 C 309.03 136.10 311.18 136.00 313.33 135.91 C 313.34 132.67 313.32 129.39 313.55 126.17 C 315.67 126.06 317.77 126.04 319.88 126.29 Z"
     fill="#aaabaa"
     id="path4811" />
  <path
     d="M 442.33 126.44 C 444.39 126.11 446.57 126.04 448.66 125.96 C 448.76 129.29 448.81 132.63 448.85 135.96 C 452.20 135.99 455.55 136.03 458.90 136.10 C 458.91 137.82 458.92 139.54 458.92 141.27 C 455.55 141.35 452.17 141.41 448.80 141.46 C 448.87 147.97 448.71 154.49 448.75 161.01 C 448.91 163.74 448.77 167.12 451.09 169.04 C 453.84 169.41 456.79 168.89 459.54 168.64 C 458.75 170.69 459.37 174.07 456.61 174.50 C 452.88 175.51 447.50 175.40 444.70 172.31 C 442.15 169.58 442.16 165.51 441.99 162.01 C 441.91 155.16 442.05 148.30 442.00 141.45 C 439.95 141.40 437.91 141.34 435.86 141.28 C 435.84 139.56 435.83 137.84 435.84 136.12 C 437.87 136.06 439.89 136.01 441.92 135.95 C 441.95 132.81 441.83 129.55 442.33 126.44 Z"
     fill="#aaabaa"
     id="path4813" />
  <path
     d="M 112.49 135.61 C 117.17 134.17 122.83 134.97 126.09 138.91 C 128.90 142.24 129.15 146.82 129.38 150.98 C 129.52 158.74 129.42 166.51 129.25 174.27 C 127.19 174.08 125.07 173.94 123.05 173.55 C 121.58 164.61 123.73 154.98 121.92 146.11 C 120.98 141.93 117.23 139.67 113.08 140.95 C 109.56 142.24 104.97 145.78 105.05 149.92 C 104.74 157.91 105.20 165.92 104.92 173.92 C 102.75 173.90 100.59 173.87 98.43 173.82 C 98.34 161.29 98.33 148.74 98.43 136.21 C 100.44 136.11 102.44 136.02 104.44 135.93 C 104.48 137.73 104.52 139.52 104.54 141.31 C 106.87 139.23 109.50 136.67 112.49 135.61 Z"
     fill="#aaabaa"
     id="path4815" />
  <path
     d="M 225.35 135.43 C 229.57 134.34 234.59 135.00 237.73 138.27 C 241.01 141.56 241.48 146.57 241.63 150.97 C 241.72 158.58 241.60 166.21 241.57 173.82 C 239.41 173.87 237.24 173.90 235.08 173.92 C 234.84 166.28 235.23 158.62 234.90 150.98 C 234.62 147.50 234.18 143.10 230.69 141.30 C 226.00 138.84 219.67 143.28 217.79 147.57 C 216.44 156.04 218.38 165.05 216.95 173.55 C 214.93 173.94 212.80 174.08 210.75 174.27 C 210.44 164.84 210.71 155.43 210.53 146.00 C 210.55 142.88 210.43 139.53 211.05 136.46 C 212.93 136.10 214.79 135.95 216.70 135.76 C 216.72 137.55 216.74 139.34 216.76 141.13 C 219.30 139.05 222.16 136.39 225.35 135.43 Z"
     fill="#aaabaa"
     id="path4817" />
  <path
     d="M 275.65 136.34 C 282.29 139.34 284.66 147.14 283.85 153.91 C 283.53 156.00 281.72 155.80 280.07 155.98 C 272.62 156.21 265.16 155.86 257.70 156.03 C 258.26 158.78 258.70 161.71 259.77 164.30 C 261.06 167.23 263.84 168.95 266.93 169.43 C 272.56 170.36 277.59 168.03 282.82 166.42 C 282.28 168.50 282.84 171.50 280.55 172.55 C 276.54 174.72 271.45 175.19 266.96 174.98 C 262.26 174.73 257.76 172.96 254.85 169.14 C 251.58 164.76 250.99 159.27 251.13 153.97 C 251.25 148.71 252.73 143.33 256.48 139.48 C 261.19 134.56 269.59 133.80 275.65 136.34 Z"
     fill="#aaabaa"
     id="path4819" />
  <path
     d="M 403.09 135.91 C 407.68 137.48 410.67 141.39 411.81 146.01 C 412.51 148.94 413.27 152.78 411.74 155.55 C 403.38 156.69 394.69 155.64 386.25 156.06 C 386.85 159.05 387.20 162.58 388.74 165.25 C 390.53 168.17 393.66 169.39 396.96 169.61 C 401.93 169.95 406.41 167.95 411.02 166.43 C 410.58 168.65 411.50 171.86 408.77 172.73 C 404.57 174.74 399.56 175.27 394.96 174.94 C 390.36 174.61 385.90 172.72 383.16 168.89 C 380.34 164.98 379.56 159.70 379.56 154.99 C 379.65 149.25 381.00 143.37 385.26 139.25 C 389.79 134.71 397.24 134.02 403.09 135.91 Z"
     fill="#aaabaa"
     id="path4821" />
  <path
     d="M 524.46 135.54 C 529.17 134.22 534.72 135.03 537.94 139.01 C 540.86 142.65 540.96 147.55 541.04 152.00 C 541.03 159.29 541.01 166.58 540.94 173.88 C 538.77 173.88 536.61 173.88 534.44 173.87 C 534.15 165.57 534.73 157.22 534.19 148.93 C 533.87 145.08 532.32 141.28 528.05 140.65 C 523.95 140.00 518.38 144.20 517.13 148.01 C 516.22 156.54 517.14 165.31 516.73 173.91 C 514.57 173.90 512.41 173.89 510.25 173.86 C 510.18 161.16 510.12 148.45 510.29 135.75 C 512.11 135.94 513.97 136.10 515.76 136.47 C 516.18 137.97 516.40 139.54 516.67 141.08 C 518.96 138.95 521.42 136.51 524.46 135.54 Z"
     fill="#aaabaa"
     id="path4823" />
  <path
     d="M 574.09 135.91 C 578.68 137.48 581.67 141.39 582.81 146.01 C 583.51 148.93 584.28 152.79 582.74 155.55 C 574.38 156.69 565.69 155.64 557.25 156.06 C 557.85 159.05 558.20 162.58 559.74 165.25 C 561.53 168.17 564.66 169.39 567.96 169.61 C 572.93 169.95 577.41 167.95 582.02 166.43 C 581.58 168.65 582.50 171.86 579.77 172.73 C 575.57 174.74 570.56 175.27 565.96 174.94 C 561.36 174.61 556.90 172.72 554.16 168.89 C 551.34 164.98 550.56 159.70 550.56 154.99 C 550.65 149.25 552.00 143.37 556.26 139.25 C 560.79 134.71 568.24 134.02 574.09 135.91 Z"
     fill="#aaabaa"
     id="path4825" />
  <path
     d="M 606.98 135.16 C 609.09 135.48 611.61 136.22 613.09 137.83 C 613.78 139.52 613.85 141.51 614.16 143.29 C 610.12 141.83 604.97 138.69 600.69 140.72 C 597.50 142.06 596.47 146.48 599.17 148.84 C 603.00 151.96 608.98 152.85 612.75 156.25 C 617.47 160.35 616.39 168.92 611.42 172.38 C 607.66 175.10 602.47 175.41 598.03 174.74 C 595.48 174.29 592.47 173.24 590.77 171.19 C 590.30 169.54 590.35 167.67 590.38 165.97 C 595.17 167.38 599.80 170.84 605.02 169.23 C 608.62 168.41 610.65 163.85 608.04 160.94 C 604.23 157.29 597.15 156.58 593.53 152.50 C 590.09 148.51 590.53 141.93 594.36 138.35 C 597.73 135.15 602.54 134.60 606.98 135.16 Z"
     fill="#aaabaa"
     id="path4827" />
  <path
     d="M 61.90 136.26 C 63.31 144.86 61.65 153.92 62.65 162.58 C 63.07 165.34 64.28 168.02 67.08 169.02 C 70.03 170.05 72.76 168.95 75.08 167.12 C 77.31 165.27 79.47 163.13 79.55 160.04 C 80.12 152.19 78.82 143.95 80.06 136.18 C 82.10 135.93 83.91 135.93 85.95 136.18 C 86.92 142.33 86.26 148.79 86.39 155.00 C 86.25 161.12 86.94 167.50 85.95 173.54 C 84.08 173.89 82.22 174.03 80.33 174.21 C 80.29 172.44 80.26 170.67 80.24 168.90 C 77.70 170.99 74.85 173.63 71.65 174.57 C 66.83 175.76 61.42 174.83 58.36 170.61 C 55.46 166.68 55.43 160.69 55.35 156.00 C 55.41 149.39 55.17 142.76 55.55 136.16 C 57.68 136.03 59.78 136.01 61.90 136.26 Z"
     fill="#aaabaa"
     id="path4829" />
  <path
     d="M 168.34 136.42 C 170.42 136.08 172.59 136.02 174.69 135.91 C 175.10 144.60 174.37 153.36 175.02 162.02 C 175.43 166.36 178.29 170.05 183.04 169.33 C 187.45 168.33 192.35 163.89 192.18 159.06 C 192.41 151.42 192.03 143.76 192.26 136.10 C 194.42 136.10 196.58 136.10 198.74 136.10 C 198.85 148.69 198.84 161.28 198.75 173.87 C 196.78 173.90 194.81 173.92 192.85 173.94 C 192.77 172.25 192.70 170.56 192.63 168.86 C 190.24 170.91 187.56 173.46 184.54 174.46 C 179.57 175.85 173.74 174.87 170.66 170.38 C 167.71 166.14 168.07 159.95 167.97 155.00 C 168.14 148.84 167.54 142.53 168.34 136.42 Z"
     fill="#aaabaa"
     id="path4831" />
  <path
     d="M 473.90 136.26 C 475.31 144.86 473.65 153.92 474.65 162.58 C 475.07 165.34 476.28 168.02 479.08 169.02 C 482.03 170.05 484.76 168.95 487.08 167.12 C 489.31 165.27 491.47 163.13 491.55 160.04 C 492.12 152.19 490.83 143.95 492.06 136.18 C 494.10 135.93 495.91 135.93 497.95 136.18 C 498.92 142.32 498.26 148.79 498.39 155.00 C 498.24 161.12 498.95 167.50 497.95 173.54 C 496.08 173.89 494.22 174.04 492.33 174.21 C 492.29 172.44 492.26 170.67 492.24 168.90 C 489.70 170.99 486.85 173.63 483.65 174.57 C 478.83 175.76 473.42 174.83 470.36 170.61 C 467.46 166.68 467.43 160.69 467.35 156.00 C 467.41 149.39 467.17 142.76 467.55 136.16 C 469.68 136.03 471.78 136.01 473.90 136.26 Z"
     fill="#aaabaa"
     id="path4833" />
  <path
     d="M 275.02 143.01 C 276.65 145.15 277.03 148.38 277.71 150.92 C 271.03 151.04 264.34 151.01 257.66 150.97 C 258.58 148.36 259.32 145.24 261.04 143.05 C 264.49 139.11 271.60 138.96 275.02 143.01 Z"
     fill="#ffffff"
     id="path4835" />
  <path
     d="M 403.75 143.27 C 405.16 145.43 405.52 148.42 406.11 150.90 C 399.45 151.05 392.79 151.05 386.13 150.90 C 387.02 148.42 387.77 145.50 389.35 143.35 C 392.70 138.99 400.38 138.89 403.75 143.27 Z"
     fill="#ffffff"
     id="path4837" />
  <path
     d="M 574.75 143.27 C 576.16 145.43 576.52 148.42 577.11 150.90 C 570.45 151.05 563.79 151.05 557.13 150.90 C 558.02 148.42 558.77 145.50 560.35 143.35 C 563.70 138.99 571.38 138.89 574.75 143.27 Z"
     fill="#ffffff"
     id="path4839" />
  <path
     d="M 626.38 165.41 C 628.33 164.73 630.61 164.91 632.56 165.51 C 634.10 167.80 633.22 171.38 633.05 173.99 C 630.95 173.66 626.74 174.56 625.43 172.59 C 624.75 170.62 624.41 166.75 626.38 165.41 Z"
     fill="#aaabaa"
     id="path4841" />
  <path
     d="M 261.51 266.86 C 263.46 266.99 265.42 267.13 267.38 267.29 C 267.46 283.15 267.47 299.03 267.37 314.90 C 265.66 314.93 263.95 314.96 262.23 314.97 C 262.23 313.52 262.23 312.07 262.23 310.63 C 259.98 312.45 257.58 314.74 254.76 315.58 C 250.40 316.67 245.61 315.98 242.48 312.53 C 239.39 309.04 238.47 303.53 238.38 299.02 C 238.40 294.01 239.52 287.88 243.25 284.24 C 246.31 281.15 250.68 280.44 254.83 281.26 C 257.25 281.90 259.48 283.81 261.45 285.31 C 261.29 279.17 261.27 273.01 261.51 266.86 Z"
     fill="#04dfd7"
     id="path4843" />
  <path
     d="M 515.70 267.53 C 517.54 267.09 519.46 266.92 521.33 266.67 C 521.46 282.76 521.43 298.86 521.35 314.95 C 519.38 314.92 517.41 314.88 515.44 314.83 C 515.27 301.56 515.48 288.28 515.31 275.00 C 515.32 272.53 515.27 269.97 515.70 267.53 Z"
     fill="#aaabaa"
     id="path4845" />
  <path
     d="M 26.95 268.99 C 30.61 268.83 35.22 269.38 38.11 271.85 C 38.66 273.60 38.61 275.56 38.84 277.37 C 34.46 275.97 29.32 272.68 24.72 274.65 C 20.82 275.88 19.53 280.93 21.96 284.05 C 24.39 287.16 29.09 288.70 32.51 290.54 C 36.04 292.33 39.75 295.13 40.74 299.17 C 41.31 302.29 41.25 305.95 39.76 308.83 C 37.61 312.82 33.48 315.35 29.00 315.85 C 24.34 316.40 18.81 315.86 14.88 313.07 C 12.57 311.57 13.50 309.09 13.66 306.79 C 17.47 308.17 20.92 310.53 25.04 310.95 C 27.66 311.13 30.64 310.40 32.60 308.57 C 34.63 306.61 35.00 303.57 34.30 300.94 C 33.26 298.15 30.18 296.60 27.68 295.34 C 23.47 293.27 19.15 291.65 16.39 287.61 C 13.42 283.26 13.81 277.16 17.17 273.14 C 19.69 270.34 23.26 269.13 26.95 268.99 Z"
     fill="#04dfd7"
     id="path4847" />
  <path
     d="M 339.52 269.42 C 341.56 270.19 341.05 273.00 340.69 274.68 C 339.72 276.52 336.23 275.74 334.44 276.03 C 334.13 274.78 333.83 273.53 333.54 272.27 C 334.53 268.92 336.38 268.73 339.52 269.42 Z"
     fill="#04dfd7"
     id="path4849" />
  <path
     d="M 595.81 269.36 C 599.76 270.17 603.05 272.84 604.23 276.75 C 605.82 282.45 604.23 288.18 601.01 292.98 C 596.83 299.19 591.10 304.46 586.09 310.00 C 592.97 309.99 599.82 309.96 606.70 310.09 C 606.71 311.70 606.71 313.30 606.70 314.91 C 597.22 315.03 587.73 315.11 578.26 314.86 C 578.86 312.26 578.95 309.91 580.77 307.81 C 586.11 301.42 594.26 294.97 597.09 286.93 C 598.59 282.79 598.58 277.23 594.19 274.88 C 589.33 272.26 583.67 276.50 579.29 278.44 C 579.60 276.59 579.15 273.22 581.02 272.13 C 585.19 269.19 590.88 268.39 595.81 269.36 Z"
     fill="#aaabaa"
     id="path4851" />
  <path
     d="M 701.80 269.41 C 705.45 270.23 708.50 272.62 709.78 276.20 C 711.91 282.06 709.84 288.50 706.46 293.45 C 702.31 299.45 696.70 304.53 691.85 309.99 C 698.72 310.01 705.58 309.97 712.44 310.04 C 712.45 311.68 712.45 313.32 712.44 314.96 C 703.03 315.04 693.61 314.99 684.19 314.99 C 684.57 312.48 684.44 310.26 686.18 308.21 C 691.45 301.83 699.53 295.45 702.63 287.53 C 704.23 283.10 704.50 276.66 699.29 274.59 C 694.83 272.57 689.00 276.71 684.91 278.39 C 685.37 276.47 685.01 273.14 686.97 272.00 C 691.15 269.11 696.89 268.39 701.80 269.41 Z"
     fill="#aaabaa"
     id="path4853" />
  <path
     d="M 731.22 269.26 C 736.09 268.49 741.68 268.94 745.20 272.80 C 749.05 277.02 749.80 283.55 750.00 289.00 C 750.15 295.22 750.12 302.60 747.25 308.28 C 745.40 312.06 742.08 314.95 737.87 315.72 C 732.97 316.52 727.35 316.09 723.80 312.19 C 719.96 308.01 719.23 301.42 719.01 296.00 C 718.85 289.98 718.95 283.00 721.44 277.41 C 723.26 273.30 726.70 270.08 731.22 269.26 Z"
     fill="#aaabaa"
     id="path4855" />
  <path
     d="M 211.37 270.33 C 213.64 269.91 216.04 270.00 218.34 269.96 C 222.02 279.58 225.39 289.33 228.96 298.99 C 230.91 304.41 233.04 309.59 234.41 315.20 C 232.38 315.06 230.28 315.04 228.28 314.66 C 226.17 311.14 225.19 306.85 223.81 303.00 C 217.64 303.00 211.47 303.00 205.31 303.00 C 204.00 307.02 202.66 311.02 201.24 315.00 C 199.16 314.95 197.09 314.87 195.02 314.77 C 199.33 301.99 204.20 289.40 208.65 276.67 C 209.44 274.55 210.15 272.25 211.37 270.33 Z"
     fill="#04dfd7"
     id="path4857" />
  <path
     d="M 461.32 270.48 C 463.14 270.11 465.04 269.95 466.89 269.76 C 467.12 280.50 466.92 291.25 467.06 302.00 C 466.97 305.46 467.16 310.03 464.89 312.89 C 462.27 316.40 456.45 316.67 452.67 315.30 C 450.02 314.53 450.65 311.03 449.98 308.88 C 452.47 309.65 455.14 310.81 457.76 310.90 C 460.61 310.19 460.60 307.46 460.92 305.07 C 461.45 293.59 460.38 281.92 461.32 270.48 Z"
     fill="#aaabaa"
     id="path4859" />
  <path
     d="M 614.78 270.35 C 617.45 269.85 620.29 269.95 623.00 269.94 C 629.94 270.05 636.88 269.91 643.82 270.12 C 643.27 273.59 642.60 276.98 641.14 280.19 C 636.79 289.89 632.59 299.66 628.48 309.46 C 627.70 311.18 626.91 313.10 625.66 314.54 C 623.62 315.00 621.47 315.05 619.40 315.22 C 624.67 301.60 631.16 288.44 636.91 275.01 C 629.22 274.97 621.50 275.12 613.81 274.84 C 614.10 273.35 614.37 271.81 614.78 270.35 Z"
     fill="#aaabaa"
     id="path4861" />
  <path
     d="M 774.88 269.51 C 775.15 283.00 774.94 296.49 775.00 309.97 C 778.11 310.00 781.21 310.02 784.32 310.07 C 784.33 311.69 784.33 313.32 784.32 314.94 C 775.73 315.04 767.15 315.02 758.56 314.96 C 758.56 313.32 758.55 311.69 758.56 310.05 C 762.04 310.01 765.52 310.00 769.00 309.98 C 769.00 298.80 769.00 287.61 769.00 276.42 C 765.36 278.53 761.71 280.62 757.90 282.40 C 758.36 280.73 758.11 277.91 759.63 276.78 C 764.07 273.07 769.05 270.25 774.88 269.51 Z"
     fill="#aaabaa"
     id="path4863" />
  <path
     d="M 792.26 270.33 C 801.85 269.52 811.68 270.13 821.32 270.14 C 820.72 274.25 819.71 278.12 817.90 281.88 C 812.95 292.84 808.35 303.95 803.49 314.95 C 801.29 314.90 799.08 314.83 796.88 314.75 C 802.53 301.42 808.59 288.25 814.43 275.00 C 806.73 274.97 799.02 275.10 791.33 274.88 C 791.60 273.37 791.85 271.81 792.26 270.33 Z"
     fill="#aaabaa"
     id="path4865" />
  <path
     d="M 733.25 274.11 C 736.41 273.65 739.70 274.77 741.30 277.66 C 743.55 281.83 743.73 287.38 743.91 292.01 C 743.85 296.91 743.70 302.86 741.22 307.23 C 738.68 311.63 731.89 312.30 728.54 308.49 C 726.27 305.76 725.70 301.47 725.39 298.04 C 724.96 292.27 724.89 286.04 726.57 280.46 C 727.58 277.24 729.79 274.65 733.25 274.11 Z"
     id="path4867"
     fill="#ffffff" />
  <path
     d="M 214.50 276.14 C 216.95 283.52 219.62 290.83 222.19 298.17 C 217.10 298.17 212.01 298.17 206.92 298.17 C 209.37 290.80 212.04 283.51 214.50 276.14 Z"
     fill="#ffffff"
     id="path4869" />
  <path
     d="M 99.20 281.36 C 102.74 280.57 106.86 280.79 109.73 283.25 C 113.33 286.16 114.58 290.50 114.93 294.96 C 115.28 300.61 115.04 306.81 111.44 311.48 C 108.94 314.76 105.04 316.30 100.97 316.03 C 97.19 316.02 94.84 313.72 91.98 311.64 C 92.01 317.08 92.06 322.53 91.91 327.96 C 90.02 327.95 88.13 327.92 86.24 327.88 C 86.12 312.63 86.13 297.33 86.24 282.08 C 87.96 282.06 89.67 282.05 91.38 282.04 C 91.38 283.50 91.36 284.95 91.32 286.41 C 93.65 284.53 96.28 282.17 99.20 281.36 Z"
     fill="#04dfd7"
     id="path4871" />
  <path
     d="M 146.82 285.14 C 150.41 289.42 150.29 294.52 150.21 299.80 C 142.57 300.23 134.91 299.84 127.25 300.10 C 128.11 303.97 128.26 307.73 132.08 309.92 C 137.20 312.66 143.51 310.40 148.71 309.01 C 148.75 310.69 148.78 312.38 148.79 314.06 C 143.11 315.77 137.41 316.81 131.52 315.41 C 126.86 314.16 123.44 310.48 122.23 305.85 C 120.66 300.04 120.94 293.21 123.84 287.85 C 127.92 279.85 141.04 278.41 146.82 285.14 Z"
     fill="#04dfd7"
     id="path4873" />
  <path
     d="M 169.54 281.56 C 171.74 280.75 174.49 281.21 176.81 281.24 C 176.91 283.08 176.99 284.92 177.07 286.77 C 174.61 286.63 171.32 285.42 169.31 287.28 C 166.92 289.38 164.59 292.58 164.68 295.90 C 164.49 302.29 164.78 308.69 164.58 315.08 C 162.59 314.98 160.61 314.88 158.63 314.74 C 158.57 303.86 158.45 292.95 158.70 282.07 C 160.43 282.06 162.17 282.06 163.91 282.07 C 163.95 283.68 163.97 285.30 163.99 286.91 C 165.64 285.06 167.36 282.79 169.54 281.56 Z"
     fill="#04dfd7"
     id="path4875" />
  <path
     d="M 294.00 280.97 C 298.42 280.87 300.70 283.60 303.22 286.74 C 305.53 284.75 308.18 282.09 311.16 281.26 C 314.75 280.54 318.63 281.01 321.23 283.81 C 324.13 286.81 324.38 291.05 324.46 295.00 C 324.45 301.65 324.45 308.31 324.36 314.97 C 322.38 314.94 320.41 314.91 318.43 314.85 C 318.27 308.57 318.39 302.28 318.39 296.00 C 318.33 293.64 318.39 290.90 317.24 288.78 C 316.04 286.50 312.85 285.32 310.52 286.51 C 308.01 287.68 305.95 290.13 303.98 292.06 C 303.99 299.70 304.07 307.34 303.92 314.98 C 302.03 314.96 300.14 314.92 298.24 314.87 C 298.00 307.56 298.42 300.23 298.07 292.93 C 297.79 289.31 296.03 286.07 292.01 285.99 C 288.72 286.38 286.02 289.71 283.79 291.91 C 283.84 299.59 283.89 307.28 283.74 314.96 C 281.85 314.95 279.96 314.92 278.08 314.88 C 277.95 303.96 277.95 292.99 278.08 282.08 C 279.82 282.06 281.56 282.06 283.31 282.06 C 283.32 283.56 283.32 285.05 283.31 286.55 C 286.52 283.61 289.25 280.68 294.00 280.97 Z"
     fill="#04dfd7"
     id="path4877" />
  <path
     d="M 364.15 281.21 C 367.74 280.58 371.59 281.03 374.28 283.71 C 377.40 286.77 377.70 290.85 377.83 294.98 C 377.88 301.61 377.84 308.24 377.76 314.87 C 375.87 314.92 373.97 314.96 372.08 314.98 C 371.82 308.07 372.24 301.14 371.86 294.25 C 371.43 290.78 370.73 287.05 366.76 286.19 C 362.92 285.05 359.17 289.41 356.62 291.70 C 356.65 299.49 356.73 307.28 356.55 315.06 C 354.58 314.97 352.60 314.87 350.63 314.75 C 350.56 303.87 350.46 292.96 350.70 282.08 C 352.42 282.06 354.15 282.05 355.88 282.05 C 355.93 283.55 355.97 285.04 356.00 286.53 C 358.38 284.44 360.96 281.92 364.15 281.21 Z"
     fill="#04dfd7"
     id="path4879" />
  <path
     d="M 54.52 282.05 C 54.83 289.06 54.49 296.06 54.66 303.06 C 54.77 306.12 55.47 309.14 58.55 310.46 C 61.43 311.83 64.16 310.22 66.38 308.41 C 67.61 307.27 69.24 305.67 69.43 303.92 C 70.05 296.79 68.97 289.45 69.91 282.35 C 71.78 282.05 73.65 281.94 75.54 281.80 C 75.74 292.84 75.65 303.90 75.60 314.94 C 73.82 314.94 72.04 314.94 70.27 314.92 C 70.25 313.47 70.24 312.03 70.23 310.58 C 68.03 312.41 65.54 314.82 62.75 315.64 C 58.93 316.52 54.69 316.08 51.84 313.16 C 48.75 310.15 48.55 304.96 48.37 300.91 C 48.35 294.70 48.17 288.45 48.53 282.25 C 50.53 282.09 52.52 282.07 54.52 282.05 Z"
     fill="#04dfd7"
     id="path4881" />
  <path
     d="M 334.61 282.43 C 336.48 282.04 338.44 281.93 340.34 281.74 C 340.50 292.81 340.46 303.90 340.36 314.97 C 338.38 314.94 336.41 314.91 334.43 314.85 C 334.46 304.08 334.00 293.18 334.61 282.43 Z"
     fill="#04dfd7"
     id="path4883" />
  <path
     d="M 478.33 282.49 C 480.15 282.12 482.04 281.96 483.88 281.76 C 484.29 289.44 483.53 297.21 484.26 304.84 C 484.65 308.64 487.76 311.80 491.73 310.78 C 495.31 309.64 499.32 306.16 499.16 302.08 C 499.44 295.43 499.04 288.76 499.27 282.10 C 501.15 282.08 503.04 282.07 504.92 282.06 C 505.05 293.01 505.04 303.99 504.93 314.94 C 503.21 314.94 501.49 314.93 499.76 314.91 C 499.73 313.46 499.71 312.00 499.70 310.55 C 497.56 312.34 495.20 314.55 492.56 315.50 C 488.16 316.82 482.90 315.80 480.24 311.79 C 477.90 308.26 478.11 303.08 477.98 299.01 C 478.07 293.54 477.60 287.91 478.33 282.49 Z"
     fill="#aaabaa"
     id="path4885" />
  <path
     d="M 533.46 281.95 C 536.70 290.64 539.73 299.42 542.89 308.14 C 545.90 299.39 548.83 290.61 551.93 281.89 C 553.91 282.05 555.89 282.21 557.87 282.39 C 552.53 297.60 546.88 312.71 541.51 327.91 C 539.37 327.87 537.24 327.81 535.11 327.74 C 536.59 323.69 538.15 319.67 539.75 315.66 C 535.45 304.61 531.30 293.49 527.24 282.36 C 529.31 282.21 531.38 282.08 533.46 281.95 Z"
     fill="#aaabaa"
     id="path4887" />
  <path
     d="M 107.17 289.78 C 109.49 294.86 109.61 301.26 107.35 306.38 C 106.11 309.20 103.28 311.34 100.12 310.88 C 96.80 310.27 94.31 307.21 91.99 304.97 C 92.09 300.81 91.62 296.44 92.34 292.35 C 93.69 289.68 96.65 287.20 99.50 286.33 C 102.52 285.30 105.84 286.96 107.17 289.78 Z"
     fill="#ffffff"
     id="path4889" />
  <path
     d="M 141.60 287.42 C 143.59 289.29 144.09 292.80 144.82 295.31 C 138.92 295.37 133.02 295.38 127.12 295.29 C 127.89 293.16 128.54 290.69 129.82 288.81 C 132.31 285.09 138.31 284.52 141.60 287.42 Z"
     fill="#ffffff"
     id="path4891" />
  <path
     d="M 253.72 286.18 C 256.72 286.85 259.21 289.58 261.39 291.61 C 261.34 296.11 261.33 300.61 261.40 305.11 C 258.80 307.62 256.03 310.96 252.11 311.01 C 248.18 310.73 245.89 307.53 245.15 303.93 C 244.30 299.55 244.21 294.32 246.25 290.24 C 247.57 287.56 250.64 285.37 253.72 286.18 Z"
     fill="#ffffff"
     id="path4893" />
  <path
     d="M 398.71 293.06 C 410.62 292.95 422.53 292.98 434.44 293.04 C 434.45 294.68 434.45 296.32 434.44 297.96 C 422.53 298.02 410.62 298.05 398.71 297.94 C 398.70 296.31 398.70 294.69 398.71 293.06 Z"
     fill="#aaabaa"
     id="path4895" />
  <path
     d="M 659.88 307.21 C 659.96 313.80 657.10 319.16 652.67 323.83 C 651.27 324.82 649.31 325.05 647.71 325.60 C 648.98 322.60 650.47 319.69 651.67 316.65 C 652.85 313.71 653.00 310.42 653.59 307.24 C 655.69 307.15 657.78 307.17 659.88 307.21 Z"
     fill="#aaabaa"
     id="path4897" />
  <path
     d="M 91.83 353.86 C 92.13 369.87 92.07 385.96 91.86 401.97 C 90.02 401.95 88.18 401.91 86.34 401.84 C 86.19 386.00 86.10 370.11 86.37 354.27 C 88.19 354.07 90.01 353.97 91.83 353.86 Z"
     fill="#008100"
     id="path4899" />
  <path
     d="M 277.25 354.28 C 279.04 354.03 280.79 354.03 282.60 354.00 C 282.93 369.97 282.78 385.97 282.68 401.94 C 281.02 401.94 279.36 401.92 277.70 401.89 C 277.71 400.37 277.73 398.86 277.76 397.35 C 275.46 399.43 273.35 401.53 270.31 402.51 C 266.13 403.68 261.42 402.95 258.32 399.73 C 255.06 396.31 254.27 391.52 254.04 386.97 C 253.94 381.82 254.66 376.15 258.05 372.05 C 261.14 368.37 266.23 367.22 270.78 368.43 C 273.25 369.25 275.03 370.95 277.01 372.56 C 277.14 366.49 276.66 360.32 277.25 354.28 Z"
     fill="#008100"
     id="path4901" />
  <path
     d="M 672.32 354.52 C 674.09 354.11 675.93 353.91 677.73 353.68 C 677.84 360.02 677.85 366.36 677.71 372.70 C 679.99 371.11 682.49 369.08 685.18 368.31 C 688.99 367.45 693.25 368.04 696.13 370.87 C 699.61 374.20 700.72 379.33 700.85 383.97 C 701.01 389.29 700.15 395.35 696.40 399.41 C 693.33 402.77 688.50 403.69 684.20 402.64 C 681.54 401.79 679.15 399.57 676.99 397.87 C 676.94 399.24 676.89 400.62 676.84 401.99 C 675.25 401.97 673.66 401.94 672.07 401.89 C 671.88 388.93 672.10 375.96 671.94 363.00 C 671.94 360.20 671.86 357.29 672.32 354.52 Z"
     fill="#aaabaa"
     id="path4903" />
  <path
     d="M 355.41 356.54 C 357.07 357.99 356.74 360.91 355.60 362.57 C 353.89 363.10 352.09 363.16 350.37 362.65 C 348.79 361.32 349.53 358.47 349.62 356.66 C 351.48 356.38 353.57 356.03 355.41 356.54 Z"
     fill="#008100"
     id="path4905" />
  <path
     d="M 870.81 356.36 C 874.76 357.17 878.05 359.84 879.23 363.75 C 880.82 369.45 879.23 375.18 876.01 379.98 C 871.83 386.19 866.10 391.46 861.09 397.00 C 867.97 396.99 874.82 396.96 881.70 397.09 C 881.71 398.70 881.71 400.30 881.70 401.91 C 872.22 402.03 862.73 402.11 853.26 401.86 C 853.86 399.26 853.95 396.91 855.77 394.81 C 861.11 388.42 869.26 381.97 872.09 373.93 C 873.60 369.78 873.58 364.17 869.13 361.85 C 864.32 359.27 858.63 363.53 854.29 365.44 C 854.60 363.58 854.15 360.22 856.03 359.13 C 860.18 356.19 865.89 355.39 870.81 356.36 Z"
     fill="#aaabaa"
     id="path4907" />
  <path
     d="M 899.41 356.51 C 904.08 355.40 910.16 355.71 913.84 359.18 C 917.26 362.34 918.47 367.50 918.99 371.95 C 919.75 378.76 919.65 386.07 917.59 392.65 C 916.06 397.39 912.82 401.38 907.80 402.57 C 903.29 403.52 897.55 403.27 893.92 400.07 C 890.28 396.87 889.04 391.56 888.50 386.94 C 887.90 380.31 887.87 373.14 889.82 366.71 C 891.29 361.98 894.48 357.86 899.41 356.51 Z"
     fill="#aaabaa"
     id="path4909" />
  <path
     d="M 11.84 357.19 C 22.83 356.79 33.91 357.00 44.92 357.11 C 44.94 358.70 44.94 360.30 44.92 361.89 C 40.38 362.05 35.87 362.00 31.33 362.00 C 31.30 375.29 31.38 388.58 31.28 401.87 C 29.30 401.91 27.32 401.91 25.34 401.85 C 25.09 388.58 25.30 375.28 25.23 362.00 C 20.63 362.00 16.06 362.07 11.46 361.86 C 11.51 360.28 11.53 358.75 11.84 357.19 Z"
     fill="#008100"
     id="path4911" />
  <path
     d="M 233.46 357.35 C 235.91 362.24 237.33 367.67 239.33 372.77 C 242.69 382.47 246.69 392.00 249.59 401.84 C 247.54 401.92 245.48 401.96 243.43 401.95 C 241.86 398.01 240.50 394.01 239.09 390.00 C 232.90 390.01 226.70 389.99 220.51 390.02 C 219.17 394.04 217.86 398.07 216.31 402.03 C 214.34 401.97 212.37 401.89 210.40 401.76 C 214.17 390.25 218.60 378.93 222.65 367.51 C 223.94 364.14 224.91 360.54 226.61 357.35 C 228.72 356.80 231.35 356.82 233.46 357.35 Z"
     fill="#008100"
     id="path4913" />
  <path
     d="M 472.15 357.43 C 476.02 356.73 480.09 356.89 484.01 356.94 C 489.18 357.09 494.00 357.60 498.32 360.68 C 503.72 364.50 505.85 370.65 506.28 377.02 C 506.61 383.22 505.46 390.46 501.35 395.36 C 497.73 399.64 492.51 401.48 487.04 401.87 C 482.13 402.15 477.02 402.38 472.15 401.57 C 471.23 397.21 471.57 392.44 471.58 388.00 C 471.62 381.00 471.64 374.00 471.52 367.00 C 471.51 363.84 471.47 360.52 472.15 357.43 Z"
     fill="#aaabaa"
     id="path4915" />
  <path
     d="M 802.71 356.54 C 802.91 370.02 802.75 383.49 802.81 396.97 C 805.85 397.00 808.90 397.02 811.94 397.06 C 811.96 398.69 811.96 400.32 811.94 401.94 C 803.39 402.03 794.83 402.06 786.28 401.91 C 786.29 400.30 786.31 398.68 786.35 397.07 C 789.76 397.02 793.18 396.99 796.60 396.97 C 796.60 385.79 796.58 374.62 796.61 363.45 C 793.04 365.57 789.44 367.63 785.68 369.41 C 786.16 367.67 785.93 364.80 787.54 363.66 C 791.97 359.97 796.90 357.20 802.71 356.54 Z"
     fill="#aaabaa"
     id="path4917" />
  <path
     d="M 944.55 356.59 C 944.71 370.05 944.58 383.51 944.63 396.97 C 947.67 397.00 950.71 397.02 953.76 397.07 C 953.76 398.69 953.76 400.32 953.76 401.94 C 945.20 402.03 936.64 402.06 928.08 401.91 C 928.09 400.30 928.11 398.69 928.15 397.08 C 931.56 397.02 934.96 396.99 938.37 396.97 C 938.39 385.80 938.35 374.64 938.39 363.47 C 934.79 365.57 931.17 367.63 927.40 369.41 C 927.82 367.80 927.63 365.22 928.93 364.03 C 933.39 360.10 938.53 357.16 944.55 356.59 Z"
     fill="#aaabaa"
     id="path4919" />
  <path
     d="M 961.78 357.35 C 964.45 356.85 967.29 356.95 970.00 356.94 C 976.92 357.05 983.84 356.92 990.76 357.10 C 990.36 360.34 989.76 363.50 988.43 366.50 C 984.00 376.44 979.68 386.42 975.48 396.46 C 974.70 398.18 973.91 400.10 972.66 401.54 C 970.62 402.00 968.47 402.05 966.40 402.22 C 971.67 388.60 978.16 375.44 983.91 362.01 C 976.22 361.97 968.50 362.12 960.81 361.84 C 961.10 360.35 961.37 358.81 961.78 357.35 Z"
     fill="#aaabaa"
     id="path4921" />
  <path
     d="M 176.64 360.15 C 178.42 359.93 180.18 359.96 181.95 360.25 C 182.51 363.07 182.32 366.12 182.36 369.00 C 185.30 369.00 188.23 369.00 191.16 369.08 C 191.23 370.60 191.25 372.12 191.24 373.65 C 188.27 373.77 185.30 373.77 182.32 373.79 C 182.39 380.19 182.22 386.61 182.36 393.01 C 182.47 395.14 182.86 397.19 185.20 397.85 C 187.27 398.01 189.44 397.41 191.49 397.14 C 191.33 398.70 191.23 400.21 190.84 401.73 C 187.97 403.45 183.79 403.37 180.74 402.16 C 177.48 400.61 176.57 397.22 176.46 393.88 C 176.38 387.20 176.49 380.51 176.45 373.82 C 174.65 373.77 172.84 373.72 171.04 373.64 C 171.02 372.13 171.03 370.63 171.07 369.12 C 172.86 369.05 174.65 369.00 176.44 368.95 C 176.45 366.03 176.32 363.05 176.64 360.15 Z"
     fill="#008100"
     id="path4923" />
  <path
     d="M 902.24 361.17 C 905.72 360.53 909.25 361.89 910.82 365.18 C 912.89 369.63 913.15 375.16 913.20 380.00 C 913.12 384.67 912.78 390.28 910.36 394.39 C 907.72 398.74 900.91 399.24 897.66 395.33 C 895.12 392.07 894.74 386.98 894.51 383.01 C 894.35 377.98 894.30 372.59 895.71 367.73 C 896.71 364.53 898.77 361.80 902.24 361.17 Z"
     fill="#ffffff"
     id="path4925" />
  <path
     d="M 477.81 361.90 C 483.14 362.06 489.56 361.53 494.04 364.96 C 498.87 368.55 500.19 375.31 499.85 380.98 C 499.53 386.04 498.10 391.68 493.56 394.58 C 489.13 397.37 482.85 396.96 477.81 397.10 C 477.80 385.37 477.80 373.63 477.81 361.90 Z"
     fill="#ffffff"
     id="path4927" />
  <path
     d="M 229.75 363.01 C 232.27 370.44 234.93 377.82 237.53 385.23 C 232.37 385.23 227.22 385.22 222.06 385.24 C 224.57 377.81 227.21 370.43 229.75 363.01 Z"
     fill="#ffffff"
     id="path4929" />
  <path
     d="M 70.54 369.44 C 74.32 371.34 76.34 375.01 77.11 379.05 C 77.49 381.47 78.03 384.41 76.81 386.66 C 69.47 387.50 61.88 386.70 54.48 387.07 C 55.19 390.93 55.40 394.64 59.08 396.89 C 64.40 399.74 70.51 397.51 75.91 396.11 C 75.94 397.73 75.93 399.36 75.90 400.98 C 70.30 402.78 64.29 403.85 58.51 402.27 C 53.91 400.92 50.61 397.21 49.48 392.60 C 47.99 386.60 48.29 379.10 51.83 373.83 C 55.78 367.88 64.35 366.46 70.54 369.44 Z"
     fill="#008100"
     id="path4931" />
  <path
     d="M 115.22 368.43 C 119.17 367.36 123.88 368.11 126.59 371.41 C 129.26 374.44 129.49 379.09 129.56 382.94 C 129.53 389.25 129.63 395.56 129.45 401.86 C 127.54 401.92 125.64 401.94 123.74 401.94 C 123.55 395.01 123.83 388.06 123.61 381.13 C 123.44 378.29 122.60 374.56 119.59 373.47 C 115.44 371.56 110.34 375.76 108.49 379.22 C 108.03 386.73 108.52 394.35 108.28 401.89 C 106.37 401.92 104.47 401.92 102.56 401.88 C 102.35 390.99 102.43 380.06 102.52 369.16 C 104.21 369.07 105.90 369.00 107.59 368.94 C 107.67 370.52 107.73 372.11 107.77 373.70 C 110.04 371.61 112.21 369.40 115.22 368.43 Z"
     fill="#008100"
     id="path4933" />
  <path
     d="M 158.19 368.82 C 162.27 370.33 164.94 373.86 165.88 378.04 C 166.42 380.67 167.14 384.18 165.81 386.66 C 158.47 387.50 150.88 386.70 143.48 387.07 C 144.19 390.93 144.40 394.64 148.08 396.89 C 153.40 399.74 159.51 397.51 164.91 396.11 C 164.94 397.73 164.93 399.36 164.90 400.98 C 159.22 402.83 152.62 403.97 146.83 402.05 C 142.33 400.48 139.27 396.57 138.33 391.96 C 136.98 385.94 137.42 378.33 141.26 373.24 C 145.22 368.06 152.21 366.89 158.19 368.82 Z"
     fill="#008100"
     id="path4935" />
  <path
     d="M 309.98 368.03 C 314.11 368.30 316.37 370.93 318.38 374.22 C 320.41 372.11 322.80 369.73 325.53 368.58 C 329.59 367.19 334.69 368.16 337.26 371.82 C 339.42 374.86 339.59 378.37 339.58 381.96 C 339.51 388.64 339.63 395.31 339.46 401.99 C 337.56 401.95 335.65 401.90 333.75 401.81 C 333.50 394.31 333.89 386.79 333.57 379.31 C 333.33 375.96 331.47 373.17 327.90 372.97 C 324.35 373.05 321.64 376.60 319.32 378.90 C 319.31 386.58 319.38 394.26 319.26 401.94 C 317.36 401.94 315.46 401.92 313.56 401.86 C 313.26 394.55 313.64 387.22 313.38 379.91 C 313.14 376.55 311.67 373.36 307.93 373.01 C 304.02 372.81 301.45 376.46 299.00 378.96 C 298.93 386.62 299.16 394.29 298.85 401.94 C 297.01 401.94 295.18 401.91 293.34 401.85 C 293.16 390.98 293.16 379.96 293.34 369.09 C 295.05 369.07 296.77 369.07 298.48 369.09 C 298.49 370.65 298.48 372.21 298.44 373.76 C 301.84 370.52 304.84 367.45 309.98 368.03 Z"
     fill="#008100"
     id="path4937" />
  <path
     d="M 379.21 368.36 C 383.15 367.40 387.85 368.21 390.48 371.54 C 392.89 374.39 393.06 378.35 393.30 381.90 C 393.38 388.53 393.35 395.17 393.25 401.80 C 391.35 401.90 389.44 401.95 387.54 401.99 C 387.35 395.64 387.51 389.31 387.46 382.97 C 387.38 380.34 387.22 377.52 385.65 375.30 C 384.11 373.08 380.87 372.44 378.46 373.51 C 375.96 374.57 373.88 377.02 372.00 378.93 C 371.93 386.60 372.16 394.28 371.85 401.94 C 370.01 401.94 368.18 401.91 366.34 401.85 C 366.16 390.98 366.16 379.96 366.34 369.09 C 368.05 369.07 369.77 369.07 371.48 369.09 C 371.49 370.64 371.48 372.19 371.43 373.74 C 373.74 371.63 376.14 369.26 379.21 368.36 Z"
     fill="#008100"
     id="path4939" />
  <path
     d="M 539.06 373.94 C 541.43 377.80 541.12 382.50 541.22 386.85 C 533.52 387.12 525.82 386.91 518.12 387.09 C 519.14 390.74 519.35 394.96 523.07 396.95 C 527.98 399.63 534.61 397.40 539.67 396.08 C 539.73 397.74 539.78 399.40 539.82 401.06 C 533.82 402.73 527.13 404.15 521.09 401.90 C 516.79 400.26 514.04 396.44 513.03 392.04 C 511.71 386.27 512.09 379.37 515.25 374.23 C 519.98 366.15 534.38 365.50 539.06 373.94 Z"
     fill="#aaabaa"
     id="path4941" />
  <path
     d="M 569.99 370.03 C 572.76 371.61 572.10 374.73 572.63 377.46 C 569.76 376.00 566.84 374.01 563.72 373.18 C 560.31 372.42 556.85 374.32 555.44 377.47 C 553.37 381.92 553.29 388.33 555.10 392.87 C 556.33 396.12 559.47 398.25 562.97 397.96 C 566.62 397.26 569.24 395.21 572.64 393.95 C 572.66 395.45 572.67 397.05 572.35 398.52 C 571.36 400.59 568.60 401.80 566.52 402.41 C 562.35 403.48 556.98 403.36 553.44 400.61 C 549.79 397.81 548.35 393.50 548.02 389.06 C 547.70 383.96 547.86 378.18 550.77 373.78 C 554.60 367.56 564.08 366.29 569.99 370.03 Z"
     fill="#aaabaa"
     id="path4943" />
  <path
     d="M 604.74 374.24 C 607.05 378.34 606.67 382.42 606.53 386.93 C 598.87 387.07 591.21 386.94 583.54 387.06 C 584.61 390.63 585.00 395.32 588.82 397.10 C 593.92 399.61 600.56 397.16 605.80 396.08 C 605.47 397.64 605.18 399.26 604.69 400.78 C 602.23 402.35 598.87 402.76 596.02 402.98 C 591.71 403.20 587.29 402.96 583.69 400.32 C 580.05 397.63 578.45 393.43 578.08 389.04 C 577.64 383.76 578.03 377.76 581.36 373.39 C 586.58 365.99 600.40 365.83 604.74 374.24 Z"
     fill="#aaabaa"
     id="path4945" />
  <path
     d="M 632.03 368.01 C 636.09 368.21 638.01 371.08 640.56 373.76 C 642.81 371.82 645.33 369.27 648.20 368.35 C 651.94 367.40 656.22 368.12 658.81 371.17 C 661.36 374.16 661.60 378.23 661.67 381.98 C 661.69 388.75 661.61 395.52 661.57 402.28 C 659.71 402.07 657.88 401.89 656.06 401.51 C 654.80 394.25 656.20 386.52 655.45 379.18 C 655.17 376.88 654.48 374.76 652.28 373.64 C 649.96 372.37 647.73 373.28 645.71 374.64 C 643.60 376.23 641.51 378.11 641.47 380.96 C 641.12 387.94 641.58 394.95 641.35 401.95 C 639.38 401.92 637.41 401.88 635.44 401.83 C 635.31 395.89 635.42 389.94 635.44 384.00 C 635.36 381.38 635.44 378.18 634.21 375.82 C 632.98 373.44 629.93 372.38 627.49 373.48 C 624.98 374.62 622.89 377.04 620.94 378.94 C 621.05 386.61 621.04 394.29 620.92 401.96 C 619.03 401.93 617.14 401.90 615.25 401.86 C 615.16 390.94 615.16 380.01 615.26 369.09 C 617.02 369.08 618.78 369.07 620.55 369.06 C 620.54 370.56 620.52 372.05 620.48 373.55 C 624.05 370.51 626.87 367.42 632.03 368.01 Z"
     fill="#aaabaa"
     id="path4947" />
  <path
     d="M 733.53 373.47 C 736.19 377.48 735.85 382.18 735.95 386.78 C 728.26 387.16 720.59 386.90 712.90 387.10 C 713.98 390.81 714.08 395.18 718.02 397.06 C 722.92 399.59 729.48 397.34 734.49 396.07 C 734.50 397.78 734.52 399.48 734.52 401.19 C 728.65 402.64 721.93 404.10 716.04 401.98 C 711.18 400.18 708.31 395.75 707.52 390.77 C 706.69 385.32 706.99 378.81 710.12 374.07 C 714.87 366.28 728.56 365.58 733.53 373.47 Z"
     fill="#aaabaa"
     id="path4949" />
  <path
     d="M 755.49 368.53 C 757.75 367.81 760.49 368.35 762.84 368.45 C 762.82 370.18 762.78 371.92 762.75 373.65 C 760.59 373.58 757.80 372.86 755.80 373.77 C 752.79 375.72 750.50 379.27 750.43 382.93 C 750.17 389.26 750.53 395.61 750.35 401.95 C 748.38 401.92 746.41 401.88 744.44 401.83 C 744.33 390.93 744.34 380.02 744.43 369.12 C 746.20 369.09 747.97 369.07 749.74 369.04 C 749.72 370.61 749.69 372.18 749.65 373.74 C 751.43 371.96 753.25 369.74 755.49 368.53 Z"
     fill="#aaabaa"
     id="path4951" />
  <path
     d="M 350.23 369.35 C 352.00 369.03 353.83 368.94 355.63 368.81 C 355.87 379.83 355.82 390.94 355.67 401.97 C 353.82 401.95 351.97 401.91 350.13 401.83 C 350.01 391.04 349.74 380.12 350.23 369.35 Z"
     fill="#008100"
     id="path4953" />
  <path
     d="M 69.25 374.71 C 71.12 376.71 71.38 379.83 72.01 382.40 C 66.14 382.48 60.26 382.49 54.39 382.39 C 55.28 379.65 55.69 376.91 57.83 374.82 C 60.74 371.80 66.30 371.70 69.25 374.71 Z"
     fill="#ffffff"
     id="path4955" />
  <path
     d="M 158.25 374.71 C 160.12 376.71 160.38 379.83 161.01 382.40 C 155.14 382.48 149.26 382.49 143.39 382.39 C 144.28 379.65 144.69 376.91 146.83 374.82 C 149.75 371.80 155.30 371.70 158.25 374.71 Z"
     id="path4957"
     fill="#ffffff" />
  <path
     d="M 269.79 373.28 C 272.65 373.97 274.99 376.82 277.01 378.84 C 277.00 383.22 277.00 387.59 277.01 391.97 C 275.12 393.92 273.07 396.39 270.52 397.43 C 268.02 398.52 264.89 398.06 263.02 396.01 C 260.83 393.62 260.34 390.24 260.05 387.14 C 259.81 383.53 260.29 379.39 262.23 376.26 C 263.80 373.71 266.89 372.39 269.79 373.28 Z"
     fill="#ffffff"
     id="path4959" />
  <path
     d="M 532.62 374.40 C 534.53 376.37 535.10 379.79 535.96 382.31 C 529.97 382.41 523.97 382.41 517.98 382.29 C 518.83 380.14 519.58 377.78 520.83 375.82 C 523.22 372.03 529.36 371.53 532.62 374.40 Z"
     fill="#ffffff"
     id="path4961" />
  <path
     d="M 598.37 374.63 C 600.03 376.72 600.63 379.83 601.47 382.32 C 595.48 382.40 589.48 382.41 583.49 382.31 C 584.30 380.23 585.04 378.02 586.17 376.09 C 588.48 371.96 595.12 371.43 598.37 374.63 Z"
     fill="#ffffff"
     id="path4963" />
  <path
     d="M 687.88 373.08 C 691.58 373.60 693.34 376.68 694.08 380.03 C 694.96 384.47 694.97 389.74 692.94 393.89 C 691.51 396.72 688.46 398.64 685.25 397.75 C 682.38 396.87 679.94 394.14 677.75 392.18 C 677.83 387.95 677.35 383.41 678.26 379.27 C 679.70 375.85 684.10 372.72 687.88 373.08 Z"
     fill="#ffffff"
     id="path4965" />
  <path
     d="M 727.50 374.51 C 729.27 376.57 729.89 379.78 730.77 382.31 C 724.76 382.41 718.76 382.41 712.76 382.30 C 713.79 379.80 714.63 376.51 716.60 374.57 C 719.41 371.97 724.69 371.85 727.50 374.51 Z"
     fill="#ffffff"
     id="path4967" />
  <path
     d="M 414.54 380.32 C 417.30 379.85 420.21 379.94 423.00 379.94 C 431.90 380.08 440.80 379.90 449.70 380.09 C 449.71 381.70 449.71 383.30 449.70 384.91 C 437.67 385.04 425.60 385.09 413.57 384.88 C 413.86 383.37 414.12 381.81 414.54 380.32 Z"
     fill="#aaabaa"
     id="path4969" />
  <path
     d="M 828.99 394.08 C 828.76 396.88 828.81 399.99 827.57 402.54 C 826.33 405.13 824.66 407.70 822.82 409.90 C 821.38 411.82 819.14 411.86 816.97 412.60 C 818.21 409.64 819.69 406.78 820.85 403.80 C 821.99 400.88 822.17 397.45 822.74 394.34 C 824.83 394.17 826.90 394.12 828.99 394.08 Z"
     fill="#aaabaa"
     id="path4971" />
  <path
     d="M 91.83 440.00 C 92.06 455.96 92.00 471.97 91.85 487.94 C 90.01 487.92 88.17 487.88 86.33 487.82 C 86.23 471.97 86.13 456.10 86.37 440.26 C 88.19 440.11 90.01 440.05 91.83 440.00 Z"
     fill="#008100"
     id="path4973" />
  <path
     d="M 258.49 440.05 C 258.60 456.01 258.60 471.99 258.49 487.95 C 256.57 487.92 254.65 487.86 252.73 487.78 C 252.61 471.94 252.61 456.06 252.73 440.22 C 254.65 440.14 256.57 440.08 258.49 440.05 Z"
     fill="#008100"
     id="path4975" />
  <path
     d="M 424.25 440.14 C 424.43 456.04 424.34 471.95 424.30 487.85 C 422.65 487.90 420.99 487.92 419.32 487.91 C 419.29 486.39 419.28 484.86 419.27 483.34 C 416.97 485.38 414.80 487.60 411.77 488.51 C 407.42 489.62 402.67 488.92 399.54 485.49 C 396.41 481.99 395.59 476.50 395.46 471.99 C 395.53 466.97 396.54 460.96 400.29 457.29 C 403.29 454.29 407.51 453.55 411.58 454.26 C 414.17 454.84 416.46 456.88 418.52 458.47 C 418.45 452.39 418.29 446.28 418.59 440.21 C 420.48 440.10 422.37 440.11 424.25 440.14 Z"
     fill="#008100"
     id="path4977" />
  <path
     d="M 243.19 444.74 C 246.01 446.30 245.07 448.73 245.28 451.40 C 241.84 449.89 238.70 447.73 235.00 447.19 C 230.96 446.46 226.58 447.72 223.85 450.87 C 220.54 454.67 219.45 460.10 219.35 465.00 C 219.31 469.89 219.90 475.10 222.80 479.19 C 225.48 483.00 230.31 484.49 234.79 483.90 C 238.78 483.32 241.94 481.21 245.53 479.56 C 245.20 481.45 246.12 485.02 243.90 485.85 C 237.04 490.01 226.34 490.42 219.96 485.10 C 214.09 480.11 212.75 472.44 212.83 465.11 C 213.09 458.63 214.56 452.02 219.28 447.28 C 225.16 440.97 236.04 440.51 243.19 444.74 Z"
     fill="#008100"
     id="path4979" />
  <path
     d="M 491.57 442.60 C 493.27 442.17 496.30 441.71 497.45 443.42 C 497.90 445.19 498.00 447.21 496.68 448.65 C 494.89 449.09 493.16 449.06 491.39 448.58 C 490.11 446.58 490.17 444.51 491.57 442.60 Z"
     fill="#008100"
     id="path4981" />
  <path
     d="M 627.05 442.13 C 629.41 442.44 632.30 443.15 634.03 444.87 C 634.65 446.59 634.64 448.57 634.97 450.36 C 631.92 449.30 628.86 447.89 625.70 447.23 C 623.12 446.69 620.13 447.36 618.25 449.26 C 616.00 451.76 616.30 455.92 618.91 458.08 C 623.31 462.06 630.66 463.19 634.76 468.27 C 637.29 471.26 637.38 475.21 636.78 478.90 C 635.68 484.43 630.48 488.26 625.05 488.85 C 620.41 489.41 614.78 488.89 610.89 486.07 C 608.75 484.65 609.46 482.12 609.39 479.91 C 614.98 481.56 619.99 485.67 626.04 483.18 C 630.82 481.57 632.28 474.80 628.56 471.44 C 624.30 467.67 617.30 466.52 613.22 461.73 C 609.11 457.04 609.50 449.35 614.13 445.17 C 617.75 442.05 622.48 441.66 627.05 442.13 Z"
     fill="#738ada"
     id="path4983" />
  <path
     d="M 11.59 443.13 C 22.66 442.99 33.81 442.99 44.89 443.12 C 44.92 444.71 44.92 446.29 44.89 447.88 C 40.37 447.99 35.86 447.96 31.34 447.95 C 31.32 461.24 31.39 474.54 31.30 487.84 C 29.31 487.88 27.33 487.87 25.34 487.84 C 25.14 474.54 25.30 461.24 25.25 447.95 C 20.69 447.96 16.15 448.00 11.59 447.87 C 11.56 446.29 11.56 444.71 11.59 443.13 Z"
     fill="#008100"
     id="path4985" />
  <path
     d="M 368.31 443.25 C 370.54 442.92 372.87 443.09 375.12 443.13 C 380.46 457.99 386.16 472.76 391.14 487.73 C 389.04 487.86 386.95 487.92 384.85 487.94 C 383.38 483.96 381.99 479.95 380.55 475.95 C 374.37 475.96 368.19 475.95 362.00 475.96 C 360.71 479.95 359.37 483.92 357.98 487.88 C 355.95 487.89 353.92 487.85 351.89 487.74 C 356.25 474.65 361.30 461.77 365.85 448.74 C 366.57 446.91 367.15 444.84 368.31 443.25 Z"
     fill="#008100"
     id="path4987" />
  <path
     d="M 754.81 443.28 C 759.71 442.60 764.83 443.07 769.77 443.06 C 769.77 444.35 769.77 445.64 769.77 446.93 C 767.85 446.97 765.92 447.00 764.00 447.03 C 764.00 452.37 764.02 457.70 763.97 463.03 C 762.52 462.99 761.07 462.94 759.62 462.89 C 759.55 457.62 759.56 452.35 759.57 447.08 C 757.56 446.99 755.54 446.90 753.53 446.79 C 753.92 445.61 754.34 444.44 754.81 443.28 Z"
     fill="#738ada"
     id="path4989" />
  <path
     d="M 773.53 443.20 C 775.51 442.90 777.63 442.84 779.58 443.33 C 782.14 447.45 783.31 452.51 785.04 457.03 C 786.62 452.97 787.91 448.68 789.96 444.84 C 790.80 442.32 794.57 443.24 796.71 442.78 C 796.91 449.51 796.86 456.25 796.77 462.98 C 795.38 462.96 794.00 462.93 792.62 462.91 C 792.54 457.72 792.55 452.53 792.62 447.35 C 790.82 452.59 788.89 457.79 786.88 462.95 C 785.63 462.96 784.38 462.97 783.13 462.98 C 781.11 457.69 779.16 452.37 777.37 447.00 C 777.45 452.33 777.45 457.66 777.41 462.99 C 776.01 462.97 774.62 462.96 773.23 462.94 C 773.30 456.40 772.69 449.69 773.53 443.20 Z"
     fill="#738ada"
     id="path4991" />
  <path
     d="M 176.61 446.26 C 178.42 446.04 180.32 446.09 182.15 446.10 C 182.33 449.08 182.36 452.05 182.37 455.03 C 185.31 455.05 188.24 455.04 191.18 455.12 C 191.24 456.63 191.26 458.13 191.25 459.64 C 188.28 459.75 185.31 459.75 182.33 459.76 C 182.40 466.16 182.24 472.57 182.37 478.97 C 182.48 481.06 182.84 483.30 185.24 483.83 C 187.32 483.99 189.48 483.42 191.54 483.18 C 191.35 484.69 191.22 486.26 190.83 487.71 C 188.21 489.37 184.35 489.22 181.46 488.44 C 177.71 487.19 176.57 483.51 176.46 479.90 C 176.38 473.20 176.48 466.49 176.45 459.78 C 174.66 459.75 172.87 459.71 171.08 459.66 C 171.06 458.14 171.07 456.63 171.10 455.12 C 172.88 455.08 174.66 455.04 176.43 455.02 C 176.44 452.11 176.32 449.16 176.61 446.26 Z"
     fill="#008100"
     id="path4993" />
  <path
     d="M 371.23 448.98 C 373.77 456.42 376.46 463.81 379.01 471.25 C 373.85 471.25 368.68 471.24 363.52 471.26 C 366.09 463.83 368.73 456.43 371.23 448.98 Z"
     fill="#ffffff"
     id="path4995" />
  <path
     d="M 69.20 454.82 C 73.27 456.34 75.92 459.85 76.87 464.02 C 77.43 466.65 78.14 470.14 76.84 472.63 C 69.47 473.39 61.89 472.75 54.47 472.95 C 55.17 476.88 55.37 480.60 59.10 482.90 C 64.43 485.76 70.49 483.53 75.89 482.10 C 75.90 483.74 75.89 485.37 75.85 487.01 C 70.31 488.79 64.23 489.76 58.52 488.27 C 53.97 486.93 50.71 483.35 49.54 478.79 C 47.85 472.39 48.29 463.96 52.71 458.68 C 56.83 453.90 63.41 453.07 69.20 454.82 Z"
     fill="#008100"
     id="path4997" />
  <path
     d="M 115.21 454.44 C 118.90 453.53 123.37 453.97 126.11 456.89 C 129.02 459.77 129.42 464.11 129.55 467.99 C 129.56 474.60 129.62 481.22 129.46 487.83 C 127.55 487.88 125.63 487.90 123.71 487.90 C 123.58 481.29 123.74 474.67 123.65 468.06 C 123.56 465.36 123.12 461.90 120.83 460.13 C 118.16 458.34 115.16 458.81 112.69 460.67 C 110.81 462.21 108.01 464.19 108.35 466.93 C 108.26 473.90 108.42 480.88 108.30 487.86 C 106.38 487.89 104.46 487.88 102.54 487.85 C 102.37 476.96 102.42 466.04 102.51 455.14 C 104.23 455.10 105.94 455.09 107.65 455.10 C 107.69 456.66 107.72 458.21 107.72 459.77 C 109.96 457.71 112.23 455.37 115.21 454.44 Z"
     fill="#008100"
     id="path4999" />
  <path
     d="M 156.84 454.42 C 161.22 455.45 164.46 458.88 165.64 463.16 C 166.35 466.02 167.23 469.89 165.84 472.63 C 158.47 473.39 150.89 472.75 143.47 472.95 C 144.17 476.88 144.37 480.60 148.10 482.90 C 153.43 485.76 159.49 483.53 164.89 482.10 C 164.90 483.74 164.89 485.37 164.85 487.01 C 159.40 488.75 153.91 489.64 148.22 488.46 C 144.15 487.48 140.74 484.65 139.21 480.73 C 137.26 475.63 137.14 469.75 138.64 464.52 C 139.68 460.99 141.75 457.83 144.99 455.96 C 148.49 453.76 152.90 453.68 156.84 454.42 Z"
     fill="#008100"
     id="path5001" />
  <path
     d="M 277.94 454.14 C 281.78 453.85 286.36 453.92 289.42 456.62 C 292.12 459.06 292.57 462.49 292.58 465.94 C 292.55 473.25 292.59 480.56 292.51 487.86 C 290.91 487.90 289.31 487.91 287.70 487.90 C 287.71 486.60 287.71 485.31 287.72 484.01 C 285.12 486.08 282.54 488.67 279.04 488.90 C 274.75 489.32 270.12 488.11 267.99 484.05 C 266.16 480.08 266.58 474.16 270.50 471.52 C 275.28 468.12 281.28 468.44 286.85 468.39 C 286.65 466.28 286.79 463.91 286.07 461.90 C 284.96 459.49 282.48 458.84 280.03 458.72 C 275.84 458.64 272.77 460.86 268.97 462.09 C 268.64 460.70 268.38 459.29 268.20 457.86 C 271.25 456.01 274.32 454.44 277.94 454.14 Z"
     fill="#008100"
     id="path5003" />
  <path
     d="M 320.04 454.05 C 325.58 454.21 329.29 458.63 329.69 463.95 C 330.23 471.86 329.92 479.88 329.86 487.81 C 328.02 487.88 326.17 487.92 324.33 487.94 C 324.15 481.61 324.32 475.29 324.25 468.96 C 324.20 466.53 323.94 463.58 322.54 461.50 C 321.03 459.18 317.86 458.35 315.35 459.46 C 312.81 460.52 310.70 463.00 308.74 464.87 C 308.72 472.55 308.85 480.24 308.66 487.92 C 306.82 487.91 304.98 487.88 303.14 487.82 C 302.98 476.96 302.98 465.98 303.14 455.12 C 304.85 455.10 306.56 455.11 308.28 455.14 C 308.28 456.68 308.26 458.22 308.23 459.75 C 311.64 456.42 314.90 453.52 320.04 454.05 Z"
     fill="#008100"
     id="path5005" />
  <path
     d="M 451.08 454.03 C 455.41 454.10 457.59 456.80 459.90 460.04 C 462.03 458.03 464.46 455.58 467.23 454.52 C 471.18 453.39 475.86 454.06 478.50 457.48 C 481.00 460.65 480.95 464.16 480.98 468.00 C 480.91 474.64 481.05 481.30 480.86 487.94 C 479.01 487.92 477.17 487.88 475.33 487.82 C 475.15 481.20 475.30 474.57 475.27 467.96 C 475.24 465.67 475.07 463.21 473.72 461.27 C 472.24 459.05 468.98 458.31 466.69 459.69 C 464.43 460.96 462.58 463.17 460.74 464.98 C 460.73 472.63 460.83 480.29 460.68 487.94 C 458.83 487.92 456.99 487.88 455.14 487.81 C 454.84 480.54 455.31 473.23 454.90 465.97 C 454.60 462.81 453.39 459.69 449.91 459.07 C 446.17 458.36 442.86 462.39 440.55 464.78 C 440.52 472.49 440.65 480.22 440.46 487.93 C 438.55 487.91 436.64 487.86 434.73 487.78 C 434.63 476.91 434.59 466.02 434.75 455.15 C 436.44 455.11 438.12 455.09 439.81 455.09 C 439.89 456.65 439.95 458.22 440.00 459.78 C 443.26 456.59 446.11 453.62 451.08 454.03 Z"
     fill="#008100"
     id="path5007" />
  <path
     d="M 521.04 454.30 C 524.63 453.63 528.54 454.07 531.23 456.76 C 534.32 459.76 534.63 463.87 534.75 467.94 C 534.76 474.56 534.81 481.19 534.67 487.82 C 532.83 487.88 530.99 487.92 529.15 487.94 C 528.83 480.95 529.32 473.92 528.88 466.95 C 528.53 463.61 527.63 459.88 523.80 459.16 C 519.70 458.01 516.20 462.24 513.55 464.74 C 513.52 472.47 513.65 480.20 513.46 487.93 C 511.55 487.91 509.64 487.86 507.73 487.78 C 507.63 476.91 507.59 466.01 507.75 455.15 C 509.44 455.11 511.12 455.09 512.81 455.09 C 512.89 456.65 512.95 458.20 513.00 459.76 C 515.38 457.51 517.74 455.09 521.04 454.30 Z"
     fill="#008100"
     id="path5009" />
  <path
     d="M 653.50 454.58 C 657.45 453.63 662.06 453.62 665.87 455.16 C 670.64 457.23 673.25 461.95 673.84 466.95 C 674.46 473.12 674.16 479.89 669.65 484.64 C 665.56 489.01 659.66 489.59 654.03 488.71 C 649.59 487.91 645.88 484.99 644.26 480.75 C 642.63 476.50 642.72 471.48 643.21 467.03 C 643.93 461.29 647.85 456.18 653.50 454.58 Z"
     fill="#738ada"
     id="path5011" />
  <path
     d="M 691.39 454.48 C 696.07 453.48 702.24 453.61 706.10 456.84 C 709.58 459.64 711.07 463.73 711.57 468.05 C 712.05 473.02 711.43 478.38 708.71 482.68 C 706.57 486.07 702.93 488.28 698.98 488.82 C 694.44 489.39 689.57 489.11 685.83 486.19 C 682.28 483.42 680.86 479.31 680.40 474.97 C 680.03 470.34 680.30 465.68 682.50 461.49 C 684.34 458.01 687.56 455.43 691.39 454.48 Z"
     fill="#738ada"
     id="path5013" />
  <path
     d="M 732.37 454.42 C 736.32 453.36 741.00 453.97 743.79 457.22 C 746.45 460.24 746.70 464.16 746.84 467.99 C 746.93 474.61 746.82 481.24 746.78 487.86 C 744.87 487.91 742.97 487.95 741.06 487.98 C 740.82 480.99 741.32 473.95 740.81 466.97 C 740.42 463.59 739.56 460.03 735.73 459.18 C 731.91 458.11 728.18 462.44 725.60 464.69 C 725.69 472.54 725.71 480.40 725.57 488.25 C 723.69 488.07 721.87 487.92 720.01 487.57 C 719.41 484.82 719.54 481.81 719.50 479.00 C 719.64 471.02 719.45 463.05 719.68 455.08 C 721.42 455.06 723.16 455.05 724.90 455.05 C 724.92 456.53 724.94 458.01 724.95 459.48 C 727.16 457.63 729.61 455.34 732.37 454.42 Z"
     fill="#738ada"
     id="path5015" />
  <path
     d="M 496.83 455.00 C 497.06 465.95 497.00 476.98 496.86 487.94 C 495.01 487.92 493.17 487.88 491.33 487.82 C 491.23 476.97 491.12 466.10 491.37 455.26 C 493.19 455.11 495.01 455.05 496.83 455.00 Z"
     fill="#008100"
     id="path5017" />
  <path
     d="M 69.22 460.66 C 71.14 462.73 71.36 465.77 72.00 468.40 C 66.12 468.47 60.24 468.48 54.36 468.39 C 55.27 465.67 55.71 462.91 57.83 460.82 C 60.72 457.80 66.26 457.70 69.22 460.66 Z"
     fill="#ffffff"
     id="path5019" />
  <path
     d="M 158.22 460.66 C 160.14 462.73 160.36 465.77 161.00 468.40 C 155.12 468.47 149.24 468.48 143.36 468.39 C 144.27 465.66 144.71 462.91 146.83 460.82 C 149.72 457.80 155.26 457.70 158.22 460.66 Z"
     fill="#ffffff"
     id="path5021" />
  <path
     d="M 410.73 459.15 C 413.87 459.73 416.26 462.52 418.45 464.64 C 418.44 469.13 418.44 473.61 418.46 478.10 C 415.97 480.55 413.59 483.56 409.89 484.00 C 405.99 484.35 403.20 481.38 402.31 477.82 C 401.15 473.15 401.05 467.58 403.20 463.17 C 404.57 460.40 407.58 458.37 410.73 459.15 Z"
     fill="#ffffff"
     id="path5023" />
  <path
     d="M 655.40 459.55 C 659.49 458.17 664.44 459.58 666.40 463.64 C 668.27 467.56 668.40 472.40 667.38 476.57 C 666.60 479.66 664.69 482.38 661.58 483.43 C 657.90 484.77 653.01 483.61 650.93 480.12 C 648.83 476.42 648.57 471.59 649.31 467.48 C 650.01 463.95 651.86 460.79 655.40 459.55 Z"
     fill="#ffffff"
     id="path5025" />
  <path
     d="M 694.26 459.18 C 698.51 458.44 703.00 460.44 704.40 464.71 C 705.88 469.31 705.97 475.28 703.68 479.63 C 700.73 485.07 692.10 485.50 688.62 480.40 C 686.34 476.95 686.34 471.90 686.79 467.94 C 687.32 463.70 689.84 459.94 694.26 459.18 Z"
     fill="#ffffff"
     id="path5027" />
  <path
     d="M 555.91 466.34 C 558.54 465.85 561.33 465.95 564.00 465.94 C 573.07 466.07 582.14 465.92 591.21 466.06 C 591.23 467.69 591.23 469.31 591.21 470.94 C 579.14 471.00 567.05 471.13 554.98 470.86 C 555.26 469.35 555.51 467.82 555.91 466.34 Z"
     fill="#aaabaa"
     id="path5029" />
  <path
     d="M 286.65 472.88 C 286.66 475.31 286.66 477.75 286.67 480.19 C 283.71 482.66 281.21 485.18 276.96 484.32 C 272.82 483.59 271.27 478.19 274.35 475.32 C 277.13 472.43 282.97 473.09 286.65 472.88 Z"
     fill="#ffffff"
     id="path5031" />
  <path
     d="M 278.25 527.33 C 280.02 527.06 281.86 527.00 283.66 526.91 C 283.93 542.92 283.80 558.95 283.72 574.96 C 282.03 574.95 280.33 574.92 278.63 574.89 C 278.65 573.42 278.69 571.95 278.74 570.48 C 276.32 572.59 273.80 575.02 270.57 575.74 C 266.73 576.46 262.72 575.96 259.77 573.21 C 256.14 569.87 255.20 564.68 255.03 559.97 C 254.90 554.82 255.62 549.12 259.03 545.01 C 262.15 541.31 267.21 540.24 271.78 541.41 C 274.08 542.16 276.13 543.96 278.03 545.42 C 278.12 539.41 277.66 533.30 278.25 527.33 Z"
     fill="#ff8103"
     id="path5033" />
  <path
     d="M 38.12 531.84 C 38.59 533.62 38.57 535.54 38.76 537.36 C 34.07 535.76 29.03 532.43 24.04 534.92 C 20.05 536.70 19.63 542.40 22.87 545.12 C 27.90 549.62 35.52 550.18 39.57 556.47 C 42.40 561.49 41.30 569.03 36.59 572.63 C 32.43 576.21 26.20 576.54 21.04 575.57 C 18.61 575.02 15.61 574.07 13.96 572.11 C 13.20 570.53 13.53 568.29 13.43 566.54 C 18.31 568.75 23.20 572.12 28.82 570.61 C 35.08 569.43 36.94 560.99 31.52 557.50 C 26.87 554.26 21.14 553.22 17.25 548.71 C 13.32 544.22 13.52 536.94 17.66 532.66 C 22.67 527.80 32.64 527.86 38.12 531.84 Z"
     fill="#ff8103"
     id="path5035" />
  <path
     d="M 126.50 529.46 C 128.49 530.15 128.09 533.06 127.65 534.65 C 126.78 536.74 122.83 535.61 121.03 535.78 C 121.00 533.60 120.69 531.66 121.59 529.60 C 123.12 529.22 124.99 528.92 126.50 529.46 Z"
     fill="#ff8103"
     id="path5037" />
  <path
     d="M 356.57 529.51 C 358.05 531.39 357.78 533.58 356.74 535.59 C 354.90 536.08 353.14 536.13 351.28 535.72 C 349.93 534.11 350.43 531.54 350.46 529.59 C 352.43 529.35 354.61 529.11 356.57 529.51 Z"
     fill="#ff8103"
     id="path5039" />
  <path
     d="M 492.31 530.73 C 494.73 531.45 494.16 535.42 494.68 537.38 C 490.24 535.98 484.55 532.48 479.96 534.88 C 475.78 536.52 475.50 542.55 478.77 545.22 C 482.82 548.75 489.07 550.00 493.15 553.83 C 498.65 558.45 497.95 568.14 492.53 572.55 C 488.31 576.17 482.51 576.49 477.24 575.70 C 474.71 575.19 471.57 574.26 469.82 572.25 C 469.19 570.47 469.16 568.43 468.88 566.57 C 474.17 568.66 479.65 572.47 485.54 570.28 C 490.44 568.85 492.13 562.06 488.46 558.55 C 484.37 554.83 477.06 553.47 473.08 548.91 C 468.57 543.90 469.29 534.86 475.16 531.20 C 480.01 528.17 487.24 528.32 492.31 530.73 Z"
     fill="#738ada"
     id="path5041" />
  <path
     d="M 234.63 530.28 C 236.92 534.25 238.05 538.97 239.71 543.24 C 243.35 553.85 247.76 564.26 250.89 575.03 C 248.78 575.00 246.67 574.96 244.56 574.91 C 243.08 570.96 241.70 566.97 240.28 563.00 C 234.12 563.00 227.97 563.00 221.81 563.00 C 220.47 567.01 219.14 571.02 217.64 574.97 C 215.64 574.95 213.65 574.90 211.66 574.83 C 213.66 568.04 216.32 561.43 218.69 554.75 C 221.77 546.57 224.48 538.23 227.78 530.14 C 230.03 529.98 232.40 529.85 234.63 530.28 Z"
     fill="#ff8103"
     id="path5043" />
  <path
     d="M 613.64 530.03 C 618.86 529.99 624.07 529.99 629.28 530.02 C 629.28 531.33 629.29 532.64 629.28 533.95 C 627.41 533.98 625.53 534.01 623.66 534.03 C 623.66 539.36 623.67 544.68 623.61 550.01 C 622.15 550.00 620.69 549.97 619.22 549.93 C 619.15 544.63 619.16 539.34 619.16 534.04 C 617.32 534.00 615.48 533.97 613.64 533.94 C 613.64 532.64 613.64 531.33 613.64 530.03 Z"
     fill="#738ada"
     id="path5045" />
  <path
     d="M 633.04 530.34 C 635.13 530.04 637.23 530.01 639.34 529.95 C 641.15 534.63 642.86 539.35 644.56 544.07 C 646.37 539.63 647.58 534.42 650.38 530.50 C 652.27 530.01 654.28 529.89 656.21 529.65 C 656.55 536.37 656.47 543.18 656.37 549.91 C 654.99 549.93 653.61 549.96 652.23 549.98 C 652.16 544.93 652.17 539.89 652.11 534.85 C 650.16 539.85 648.30 544.89 646.42 549.92 C 645.14 549.94 643.86 549.96 642.58 549.97 C 640.66 544.77 638.78 539.55 636.85 534.34 C 636.83 539.58 636.84 544.81 636.80 550.04 C 635.41 549.99 634.02 549.94 632.63 549.89 C 632.71 543.43 632.02 536.72 633.04 530.34 Z"
     fill="#738ada"
     id="path5047" />
  <path
     d="M 231.00 536.26 C 233.58 543.57 236.15 550.89 238.72 558.20 C 233.60 558.20 228.47 558.20 223.35 558.21 C 225.88 550.89 228.39 543.56 231.00 536.26 Z"
     fill="#ffffff"
     id="path5049" />
  <path
     d="M 67.23 541.79 C 73.98 544.06 77.02 553.41 74.89 559.66 C 67.49 560.50 59.88 559.71 52.42 560.08 C 53.25 563.76 53.53 567.75 57.12 569.86 C 62.32 572.70 68.57 570.47 73.88 569.08 C 73.95 570.72 74.01 572.37 74.06 574.01 C 68.21 575.80 61.78 577.00 55.81 575.08 C 51.28 573.52 48.25 569.60 47.29 564.98 C 45.87 558.78 46.42 550.72 50.68 545.65 C 54.77 540.88 61.46 540.00 67.23 541.79 Z"
     fill="#ff8103"
     id="path5051" />
  <path
     d="M 110.48 548.40 C 112.18 556.94 111.13 566.10 111.32 574.78 C 109.37 574.88 107.42 574.96 105.47 575.02 C 105.32 569.01 105.44 563.00 105.43 556.99 C 105.37 554.38 105.34 551.24 104.01 548.93 C 102.76 546.60 99.73 545.46 97.25 546.28 C 94.41 547.16 92.06 549.91 89.99 551.94 C 89.97 559.61 90.11 567.29 89.89 574.96 C 88.02 574.94 86.15 574.91 84.28 574.86 C 84.15 563.95 84.15 552.98 84.29 542.07 C 86.05 542.06 87.81 542.07 89.57 542.09 C 89.54 543.60 89.50 545.12 89.44 546.63 C 91.39 544.92 93.48 542.94 95.84 541.84 C 101.73 539.45 108.85 541.87 110.48 548.40 Z"
     fill="#ff8103"
     id="path5053" />
  <path
     d="M 146.46 541.56 C 151.11 540.48 157.29 540.61 161.19 543.75 C 165.28 546.97 166.72 551.93 166.84 556.96 C 167.04 562.48 166.01 567.96 162.01 572.02 C 157.83 576.11 151.69 576.63 146.21 575.57 C 142.05 574.61 138.74 571.87 137.13 567.90 C 135.21 562.99 135.14 557.25 136.36 552.17 C 137.59 547.14 141.42 542.92 146.46 541.56 Z"
     fill="#ff8103"
     id="path5055" />
  <path
     d="M 186.40 541.41 C 188.59 540.68 191.32 541.32 193.58 541.56 C 193.58 543.31 193.56 545.05 193.54 546.80 C 190.76 546.57 187.77 545.22 185.50 547.49 C 183.29 549.59 180.94 552.73 181.03 555.91 C 180.86 562.26 181.15 568.62 180.90 574.98 C 179.03 574.95 177.15 574.91 175.28 574.85 C 175.16 563.94 175.15 552.98 175.29 542.07 C 177.05 542.06 178.81 542.07 180.57 542.09 C 180.54 543.71 180.51 545.34 180.45 546.96 C 182.15 545.02 184.02 542.49 186.40 541.41 Z"
     fill="#ff8103"
     id="path5057" />
  <path
     d="M 311.02 541.02 C 315.15 541.24 317.14 543.96 319.49 546.93 C 321.71 544.89 324.28 542.22 327.21 541.33 C 330.76 540.50 334.69 541.03 337.36 543.68 C 340.05 546.48 340.59 550.23 340.62 553.94 C 340.62 560.97 340.64 568.00 340.53 575.02 C 338.58 574.96 336.63 574.88 334.68 574.78 C 334.38 567.07 334.99 559.26 334.41 551.57 C 334.09 547.63 330.28 544.74 326.51 546.59 C 323.53 548.19 319.84 551.13 320.37 554.95 C 320.30 561.62 320.48 568.29 320.32 574.96 C 318.37 574.94 316.43 574.91 314.48 574.85 C 314.31 568.56 314.44 562.28 314.43 555.99 C 314.36 553.57 314.44 550.95 313.20 548.78 C 312.00 546.39 308.80 545.38 306.40 546.48 C 303.90 547.54 301.87 550.08 299.99 551.98 C 299.97 559.64 300.11 567.30 299.89 574.96 C 298.02 574.94 296.15 574.91 294.28 574.86 C 294.15 563.95 294.15 552.98 294.29 542.07 C 296.05 542.06 297.80 542.07 299.56 542.09 C 299.54 543.61 299.51 545.13 299.45 546.65 C 302.94 543.48 305.83 540.41 311.02 541.02 Z"
     fill="#ff8103"
     id="path5059" />
  <path
     d="M 393.49 548.46 C 395.17 556.98 394.13 566.12 394.32 574.78 C 392.37 574.88 390.42 574.96 388.47 575.02 C 388.32 569.01 388.44 563.00 388.43 556.99 C 388.37 554.38 388.34 551.24 387.01 548.93 C 385.76 546.60 382.73 545.46 380.25 546.28 C 377.41 547.16 375.06 549.91 372.99 551.94 C 372.97 559.61 373.11 567.29 372.89 574.96 C 371.02 574.94 369.15 574.91 367.28 574.86 C 367.15 563.95 367.15 552.98 367.29 542.07 C 369.05 542.06 370.81 542.07 372.57 542.09 C 372.54 543.60 372.51 545.12 372.44 546.63 C 374.39 544.92 376.48 542.94 378.84 541.84 C 384.75 539.44 391.89 541.89 393.49 548.46 Z"
     fill="#ff8103"
     id="path5061" />
  <path
     d="M 513.45 541.53 C 518.33 540.42 524.88 540.59 528.77 544.19 C 532.46 547.42 533.76 552.21 533.89 556.97 C 534.08 562.45 533.04 568.02 529.04 572.05 C 524.86 576.17 518.69 576.63 513.21 575.60 C 509.03 574.66 505.71 571.89 504.10 567.92 C 502.17 563.00 502.08 557.26 503.32 552.15 C 504.58 547.12 508.38 542.88 513.45 541.53 Z"
     fill="#738ada"
     id="path5063" />
  <path
     d="M 550.50 541.58 C 554.45 540.63 559.06 540.62 562.87 542.16 C 567.64 544.23 570.25 548.95 570.84 553.95 C 571.46 560.12 571.16 566.89 566.65 571.64 C 562.56 576.01 556.66 576.59 551.03 575.71 C 546.59 574.91 542.88 571.99 541.26 567.75 C 539.63 563.50 539.72 558.48 540.21 554.03 C 540.93 548.29 544.85 543.18 550.50 541.58 Z"
     fill="#738ada"
     id="path5065" />
  <path
     d="M 592.21 541.39 C 595.92 540.44 600.42 540.92 603.17 543.83 C 606.03 546.70 606.50 551.10 606.64 554.94 C 606.77 561.58 606.64 568.22 606.59 574.85 C 604.60 574.90 602.61 574.93 600.62 574.96 C 600.46 568.29 600.72 561.61 600.54 554.95 C 600.39 552.04 599.97 548.46 597.18 546.85 C 593.18 544.27 587.11 548.58 585.69 552.40 C 584.95 559.83 585.70 567.45 585.38 574.94 C 583.39 574.92 581.40 574.90 579.41 574.86 C 579.30 563.94 579.31 553.01 579.40 542.10 C 581.19 542.08 582.98 542.06 584.77 542.05 C 584.76 543.49 584.76 544.93 584.75 546.36 C 586.98 544.58 589.46 542.27 592.21 541.39 Z"
     fill="#738ada"
     id="path5067" />
  <path
     d="M 121.64 542.43 C 123.49 542.03 125.42 541.93 127.30 541.75 C 127.45 552.81 127.41 563.90 127.32 574.96 C 125.37 574.94 123.43 574.91 121.48 574.85 C 121.49 564.08 121.07 553.17 121.64 542.43 Z"
     fill="#ff8103"
     id="path5069" />
  <path
     d="M 351.24 542.39 C 353.02 542.05 354.88 541.93 356.69 541.76 C 356.88 552.82 356.83 563.92 356.72 574.98 C 354.84 574.95 352.97 574.91 351.09 574.85 C 351.07 564.06 350.69 553.15 351.24 542.39 Z"
     fill="#ff8103"
     id="path5071" />
  <path
     d="M 67.23 547.73 C 68.95 549.68 69.36 552.92 70.04 555.35 C 64.14 555.42 58.23 555.43 52.32 555.34 C 53.15 553.06 53.82 550.27 55.38 548.38 C 58.13 544.88 64.13 544.57 67.23 547.73 Z"
     fill="#ffffff"
     id="path5073" />
  <path
     d="M 147.52 546.74 C 151.03 545.32 155.55 545.95 158.08 548.91 C 160.22 551.49 160.59 554.75 160.66 557.99 C 160.72 561.47 160.33 565.22 158.01 568.00 C 154.52 572.23 146.70 571.98 143.72 567.28 C 141.68 564.05 141.55 559.63 141.83 555.94 C 142.21 552.09 143.79 548.38 147.52 546.74 Z"
     fill="#ffffff"
     id="path5075" />
  <path
     d="M 270.78 546.31 C 273.62 547.07 275.97 549.87 278.02 551.87 C 277.99 556.23 277.99 560.60 278.01 564.96 C 275.65 567.31 273.29 570.22 269.86 570.90 C 266.60 571.46 263.66 569.53 262.47 566.53 C 260.47 561.30 260.38 554.93 262.91 549.87 C 264.35 547.02 267.66 545.31 270.78 546.31 Z"
     fill="#ffffff"
     id="path5077" />
  <path
     d="M 515.38 546.47 C 519.78 545.06 524.90 547.00 526.55 551.48 C 528.02 555.47 528.04 561.54 526.48 565.51 C 524.54 570.46 518.66 572.26 513.99 570.07 C 509.79 568.16 508.82 563.17 508.75 559.02 C 508.64 553.89 509.93 548.25 515.38 546.47 Z"
     fill="#ffffff"
     id="path5079" />
  <path
     d="M 552.40 546.55 C 556.49 545.17 561.44 546.58 563.40 550.64 C 565.27 554.56 565.40 559.40 564.38 563.57 C 563.60 566.66 561.69 569.38 558.58 570.43 C 554.90 571.77 550.01 570.61 547.93 567.12 C 545.83 563.42 545.57 558.59 546.31 554.48 C 547.01 550.95 548.86 547.79 552.40 546.55 Z"
     fill="#ffffff"
     id="path5081" />
  <path
     d="M 415.73 553.32 C 418.43 552.85 421.27 552.94 424.00 552.94 C 432.97 553.08 441.93 552.90 450.90 553.09 C 450.92 554.70 450.92 556.30 450.90 557.91 C 438.88 558.04 426.83 558.10 414.81 557.88 C 415.08 556.36 415.33 554.81 415.73 553.32 Z"
     fill="#aaabaa"
     id="path5083" />
</svg>
